<svg width="24" height="24" viewBox="0 0 24 24" fill="none" xmlns="http://www.w3.org/2000/svg">
    <path d="M4.35139 19.2207L4.34658 20.9861C4.34268 20.988 4.339 20.9903 4.33561 20.993L4.34041 19.2276C4.34381 19.2249 4.34749 19.2226 4.35139 19.2207ZM4.33972 19.2276L4.33492 20.993C4.29325 21.0178 4.25417 21.0468 4.21828 21.0794L4.22308 19.314C4.2588 19.2812 4.29789 19.2522 4.33972 19.2276ZM4.22308 19.314L4.21828 21.0794C4.19729 21.0983 4.17801 21.1189 4.16064 21.1412L4.16545 19.3758C4.18281 19.3535 4.2021 19.3329 4.22308 19.314Z" fill="#EBFCF9"/>
    <path d="M4.16559 19.376L4.16078 21.1414C4.14704 21.1591 4.13444 21.1777 4.12305 21.197L4.12785 19.4316C4.13908 19.4121 4.15169 19.3936 4.16559 19.376Z" fill="#EBFCF9"/>
    <path d="M4.12792 19.4316L4.12312 21.197C4.11377 21.2141 4.10552 21.2318 4.09842 21.2499L4.10322 19.4845C4.11032 19.4664 4.11857 19.4487 4.12792 19.4316ZM4.10322 19.4845L4.09842 21.2499C4.09172 21.267 4.08667 21.2847 4.08332 21.3027L4.08813 19.5373C4.09197 19.5194 4.09702 19.5017 4.10322 19.4845ZM4.08813 19.5373L4.08332 21.3027C4.07991 21.3204 4.07785 21.3383 4.07715 21.3562L4.08195 19.5908C4.08269 19.5729 4.08475 19.555 4.08813 19.5373Z" fill="#EBFCF9"/>
    <path d="M4.08195 19.5918L4.07715 21.3572V21.3654L4.08195 19.6V19.5918Z" fill="#EBFCF9"/>
    <path fill-rule="evenodd" clip-rule="evenodd" d="M18.8697 3.55484L18.8705 3.55526C18.9316 3.53872 18.9937 3.52589 19.0564 3.51684L17.1654 2.44374C17.1047 2.4526 17.0433 2.46554 16.9806 2.48188L16.9798 2.48145C16.8991 2.50266 16.8162 2.53071 16.7321 2.5649L16.7313 2.56445C16.6345 2.60356 16.5357 2.65091 16.4355 2.70785L18.3265 3.78096C18.4218 3.72704 18.5203 3.67923 18.6216 3.63781L18.6224 3.63826C18.703 3.60519 18.7856 3.57732 18.8697 3.55484ZM17.1654 2.44305L19.0564 3.51615C19.1085 3.5085 19.1609 3.50346 19.2135 3.50106C19.2599 3.49876 19.3064 3.49922 19.3528 3.50243L17.4618 2.42933C17.4166 2.42658 17.3699 2.4259 17.3226 2.42795C17.2711 2.43001 17.219 2.43482 17.1654 2.44305ZM19.3529 3.50181L17.4619 2.42871C17.5051 2.43146 17.5477 2.43626 17.5888 2.44312L19.4798 3.51622C19.4379 3.5086 19.3955 3.50379 19.3529 3.50181ZM17.5898 2.44238L19.4801 3.51549C19.5202 3.52222 19.5598 3.53115 19.5988 3.54224L17.7079 2.46914C17.6694 2.45816 17.6303 2.44924 17.5898 2.44238ZM17.7079 2.46846L19.5988 3.54156C19.6365 3.55262 19.6735 3.56544 19.71 3.57998C19.746 3.59487 19.7813 3.61159 19.8156 3.63007L17.9247 2.55697C17.8904 2.53844 17.8554 2.52197 17.819 2.50688C17.7833 2.49178 17.7456 2.47943 17.7079 2.46846Z" fill="url(#paint0_linear_258_44595)"/>
    <path d="M19.8158 3.63072L17.9248 2.55762L17.9365 2.56379L19.8274 3.63689L19.8158 3.63072Z" fill="#99FFF0"/>
    <path d="M16.3158 4.91557L14.4248 3.84315L16.4358 2.70898L18.3268 3.78209L16.3158 4.91557Z" fill="#2357A1"/>
    <path d="M10.6151 8.12913L8.72412 7.05602L12.8079 4.75407L14.6982 5.82717L10.6151 8.12913ZM13.0742 3.11216L11.1839 2.03906L14.4245 3.84289L16.3154 4.91531L13.0742 3.11216Z" fill="url(#paint1_linear_258_44595)"/>
    <path d="M8.99839 9.0398L7.10742 7.96738L10.3308 2.51953L12.2218 3.59263L8.99839 9.0398Z" fill="#4DB4F6"/>
    <path d="M12.2215 3.59247L10.3306 2.51936L10.3367 2.50839L12.2277 3.58149L12.2215 3.59247ZM12.2284 3.58149L10.3374 2.50839L10.3683 2.45898L12.2593 3.53209C12.2483 3.54814 12.238 3.56462 12.2284 3.58149Z" fill="#4DB4F6"/>
    <path d="M12.2586 3.53237L10.3677 2.45927L10.402 2.40918L12.2929 3.48297L12.2586 3.53237Z" fill="#4DB4F6"/>
    <path d="M12.2928 3.48327L10.4019 2.41017L10.441 2.35802L12.3319 3.43112L12.2928 3.48327ZM12.3319 3.43112L10.4417 2.35802L10.489 2.30176L12.38 3.37486C12.3635 3.3927 12.3477 3.41191 12.3319 3.43112Z" fill="#4DB4F6"/>
    <path d="M12.3792 3.37484L10.4883 2.30174C10.5096 2.27773 10.5308 2.25577 10.5528 2.2345L12.4437 3.3076C12.4225 3.32819 12.4005 3.35083 12.3792 3.37484ZM12.4444 3.3076L10.5535 2.2345C10.6186 2.17206 10.6866 2.11992 10.7552 2.08149C10.784 2.06571 10.8121 2.0513 10.8403 2.04033L12.7312 3.11343C12.6247 3.16037 12.5276 3.22615 12.4444 3.3076ZM12.7312 3.11274L10.8403 2.03964C10.8635 2.0301 10.8873 2.02208 10.9116 2.01562L12.8026 3.08873C12.7793 3.09559 12.7552 3.10314 12.7312 3.11274Z" fill="#4DB4F6"/>
    <path d="M12.8026 3.08986L10.9116 2.01676C10.9292 2.01211 10.9471 2.00845 10.9651 2.00578L12.8561 3.07888C12.838 3.08122 12.8201 3.08489 12.8026 3.08986ZM12.8561 3.0782L10.9651 2.00509C10.9802 2.00304 10.9953 2.00167 11.0104 2.00098L12.9014 3.07408C12.8862 3.07477 12.8711 3.07614 12.8561 3.0782Z" fill="#4DB4F6"/>
    <path d="M12.9007 3.07362L11.0098 2.00052C11.023 1.99983 11.0363 1.99983 11.0496 2.00052L12.9405 3.07362C12.9273 3.07293 12.914 3.07293 12.9007 3.07362Z" fill="#4DB4F6"/>
    <path d="M12.9413 3.07408L11.0503 2.00098C11.0625 2.00167 11.0746 2.00305 11.0867 2.00509L12.9776 3.0782C12.9656 3.07619 12.9534 3.07481 12.9413 3.07408Z" fill="#4DB4F6"/>
    <path d="M12.9769 3.07896L11.0859 2.00586C11.0972 2.00797 11.1084 2.01049 11.1196 2.01341L13.0105 3.08651C12.9995 3.08327 12.9883 3.08075 12.9769 3.07896Z" fill="#4EAFED"/>
    <path d="M13.0106 3.0858L11.1196 2.0127C11.1306 2.01544 11.1409 2.01956 11.1519 2.02367L13.0428 3.09678C13.0324 3.0924 13.0216 3.08873 13.0106 3.0858Z" fill="#99FFF0"/>
    <path d="M13.0428 3.09654L11.1519 2.02344L11.1827 2.03785L13.0737 3.11095C13.0637 3.10559 13.0534 3.10078 13.0428 3.09654Z" fill="#99FFF0"/>
    <path d="M13.0736 3.11119L11.1826 2.03809L11.184 2.03877L13.0743 3.11187L13.0736 3.11119Z" fill="#4DB4F6"/>
    <path fill-rule="evenodd" clip-rule="evenodd" d="M4.91636 22.5438L4.89097 13.7196L3 12.6465L3.02539 21.4714L3.02539 21.4715C3.02694 22.1188 3.26156 22.5741 3.63879 22.7881L5.52947 23.861C5.15227 23.6469 4.91841 23.1913 4.91636 22.5438Z" fill="#4DB4F6"/>
    <path d="M6.98696 10.1737L5.09668 9.10126L7.10703 7.96777L8.998 9.04019L6.98696 10.1737Z" fill="#4DB4F6"/>
    <path fill-rule="evenodd" clip-rule="evenodd" d="M5.8841 11.1478L5.88413 11.1478C5.93884 11.0782 5.99582 11.0105 6.05498 10.9447C6.12843 10.8621 6.20511 10.7825 6.28483 10.7059L4.39386 9.63281C4.31414 9.70936 4.23747 9.78901 4.16401 9.87158C4.10581 9.93731 4.04898 10.0051 3.99352 10.0742L3.99349 10.0742C3.94546 10.1346 3.8988 10.1963 3.85352 10.2595L5.74448 11.3326C5.78966 11.2696 5.83619 11.208 5.8841 11.1478ZM5.41447 11.8575L5.41489 11.8578C5.44634 11.7993 5.47929 11.7416 5.51369 11.6849L3.62273 10.6117C3.58871 10.6682 3.55598 10.7255 3.52458 10.7834L3.52416 10.7832C3.4926 10.8408 3.46241 10.8992 3.43359 10.9582L3.43362 10.9582C3.40414 11.0171 3.37673 11.0768 3.34999 11.1364C3.32255 11.1975 3.29648 11.2592 3.27246 11.321L5.16343 12.3941C5.18813 12.3323 5.21351 12.2706 5.24096 12.2095C5.26732 12.1493 5.29523 12.0898 5.32467 12.0311L5.32464 12.0311C5.35324 11.9732 5.38318 11.9154 5.41447 11.8575ZM3.62273 10.6111L5.51369 11.6842C5.54878 11.6257 5.58492 11.5678 5.6221 11.5106C5.6619 11.4502 5.70238 11.3912 5.74423 11.3329L3.85327 10.2598C3.81115 10.318 3.77043 10.3773 3.73114 10.4375C3.69409 10.4944 3.65772 10.5521 3.62273 10.6111ZM5.09214 12.5886L5.09146 12.5882C5.06833 12.6573 5.04664 12.727 5.02643 12.797L3.13546 11.7239C3.15536 11.6539 3.17732 11.5839 3.20064 11.5146L3.20132 11.515C3.22324 11.4507 3.2472 11.3856 3.27253 11.3213L5.16349 12.3944C5.13861 12.4587 5.11482 12.5234 5.09214 12.5886ZM3.02637 12.2447L4.91733 13.3178C4.92975 13.2222 4.94647 13.1272 4.96742 13.033C4.9845 12.954 5.00418 12.8755 5.02643 12.7977L3.13546 11.7246C3.11354 11.8025 3.09386 11.8809 3.07645 11.9599C3.05589 12.0541 3.03918 12.1491 3.02637 12.2447ZM3 12.6465L4.89097 13.7196C4.89028 13.5886 4.8992 13.4541 4.91773 13.3182L3.02676 12.2451C3.00877 12.3782 2.99983 12.5123 3 12.6465Z" fill="#4DB4F6"/>
    <path d="M6.28501 10.7048L4.39404 9.63165C4.60494 9.42574 4.84101 9.24731 5.09664 9.10059L6.9876 10.1737C6.7406 10.3123 6.50457 10.4934 6.28501 10.7048Z" fill="#4DB4F6"/>
    <mask id="path-25-inside-1_258_44595" fill="white">
        <path fill-rule="evenodd" clip-rule="evenodd" d="M18.3269 3.78148C19.4919 3.12486 20.4367 3.65112 20.4408 4.95407L20.4662 13.779C20.4703 15.082 19.531 16.6697 18.366 17.3263L7.02704 23.7183C5.86543 24.3728 4.92063 23.8473 4.91651 22.5443L4.89113 13.7193C4.88701 12.4164 5.82632 10.8287 6.98793 10.1734L8.99897 9.03996L12.2224 3.5928C12.3383 3.39451 12.4927 3.2415 12.6471 3.15436C12.8015 3.06722 12.9572 3.04595 13.0753 3.11182L16.3165 4.91496L18.3269 3.78148ZM10.6155 8.12878L14.6993 5.82683L13.0807 4.92251C12.962 4.85664 12.807 4.87791 12.6526 4.96505C12.4982 5.05219 12.3438 5.20519 12.2279 5.40349L10.6155 8.12878ZM17.9525 8.47767C18.2674 8.29996 18.5254 8.44336 18.5261 8.79672C18.5268 9.15007 18.2708 9.58371 17.9559 9.76073L7.6441 15.5736C7.32917 15.7513 7.07462 15.6058 7.07324 15.2525C7.07256 14.8991 7.32505 14.4676 7.63998 14.2899L17.9525 8.47767ZM14.147 14.8316C14.1463 14.4782 13.8918 14.3327 13.5769 14.5105L7.74203 17.7991C7.4271 17.9768 7.17461 18.4083 7.17529 18.7617C7.17667 19.115 7.43122 19.2605 7.74615 19.0828L13.5803 15.7942C13.8952 15.6165 14.1477 15.1849 14.147 14.8316Z"/>
    </mask>
    <path fill-rule="evenodd" clip-rule="evenodd" d="M18.3269 3.78148C19.4919 3.12486 20.4367 3.65112 20.4408 4.95407L20.4662 13.779C20.4703 15.082 19.531 16.6697 18.366 17.3263L7.02704 23.7183C5.86543 24.3728 4.92063 23.8473 4.91651 22.5443L4.89113 13.7193C4.88701 12.4164 5.82632 10.8287 6.98793 10.1734L8.99897 9.03996L12.2224 3.5928C12.3383 3.39451 12.4927 3.2415 12.6471 3.15436C12.8015 3.06722 12.9572 3.04595 13.0753 3.11182L16.3165 4.91496L18.3269 3.78148ZM10.6155 8.12878L14.6993 5.82683L13.0807 4.92251C12.962 4.85664 12.807 4.87791 12.6526 4.96505C12.4982 5.05219 12.3438 5.20519 12.2279 5.40349L10.6155 8.12878ZM17.9525 8.47767C18.2674 8.29996 18.5254 8.44336 18.5261 8.79672C18.5268 9.15007 18.2708 9.58371 17.9559 9.76073L7.6441 15.5736C7.32917 15.7513 7.07462 15.6058 7.07324 15.2525C7.07256 14.8991 7.32505 14.4676 7.63998 14.2899L17.9525 8.47767ZM14.147 14.8316C14.1463 14.4782 13.8918 14.3327 13.5769 14.5105L7.74203 17.7991C7.4271 17.9768 7.17461 18.4083 7.17529 18.7617C7.17667 19.115 7.43122 19.2605 7.74615 19.0828L13.5803 15.7942C13.8952 15.6165 14.1477 15.1849 14.147 14.8316Z" fill="url(#paint2_linear_258_44595)"/>
    <path fill-rule="evenodd" clip-rule="evenodd" d="M18.3269 3.78148C19.4919 3.12486 20.4367 3.65112 20.4408 4.95407L20.4662 13.779C20.4703 15.082 19.531 16.6697 18.366 17.3263L7.02704 23.7183C5.86543 24.3728 4.92063 23.8473 4.91651 22.5443L4.89113 13.7193C4.88701 12.4164 5.82632 10.8287 6.98793 10.1734L8.99897 9.03996L12.2224 3.5928C12.3383 3.39451 12.4927 3.2415 12.6471 3.15436C12.8015 3.06722 12.9572 3.04595 13.0753 3.11182L16.3165 4.91496L18.3269 3.78148ZM10.6155 8.12878L14.6993 5.82683L13.0807 4.92251C12.962 4.85664 12.807 4.87791 12.6526 4.96505C12.4982 5.05219 12.3438 5.20519 12.2279 5.40349L10.6155 8.12878ZM17.9525 8.47767C18.2674 8.29996 18.5254 8.44336 18.5261 8.79672C18.5268 9.15007 18.2708 9.58371 17.9559 9.76073L7.6441 15.5736C7.32917 15.7513 7.07462 15.6058 7.07324 15.2525C7.07256 14.8991 7.32505 14.4676 7.63998 14.2899L17.9525 8.47767ZM14.147 14.8316C14.1463 14.4782 13.8918 14.3327 13.5769 14.5105L7.74203 17.7991C7.4271 17.9768 7.17461 18.4083 7.17529 18.7617C7.17667 19.115 7.43122 19.2605 7.74615 19.0828L13.5803 15.7942C13.8952 15.6165 14.1477 15.1849 14.147 14.8316Z" fill="url(#paint3_linear_258_44595)"/>
    <path fill-rule="evenodd" clip-rule="evenodd" d="M18.3269 3.78148C19.4919 3.12486 20.4367 3.65112 20.4408 4.95407L20.4662 13.779C20.4703 15.082 19.531 16.6697 18.366 17.3263L7.02704 23.7183C5.86543 24.3728 4.92063 23.8473 4.91651 22.5443L4.89113 13.7193C4.88701 12.4164 5.82632 10.8287 6.98793 10.1734L8.99897 9.03996L12.2224 3.5928C12.3383 3.39451 12.4927 3.2415 12.6471 3.15436C12.8015 3.06722 12.9572 3.04595 13.0753 3.11182L16.3165 4.91496L18.3269 3.78148ZM10.6155 8.12878L14.6993 5.82683L13.0807 4.92251C12.962 4.85664 12.807 4.87791 12.6526 4.96505C12.4982 5.05219 12.3438 5.20519 12.2279 5.40349L10.6155 8.12878ZM17.9525 8.47767C18.2674 8.29996 18.5254 8.44336 18.5261 8.79672C18.5268 9.15007 18.2708 9.58371 17.9559 9.76073L7.6441 15.5736C7.32917 15.7513 7.07462 15.6058 7.07324 15.2525C7.07256 14.8991 7.32505 14.4676 7.63998 14.2899L17.9525 8.47767ZM14.147 14.8316C14.1463 14.4782 13.8918 14.3327 13.5769 14.5105L7.74203 17.7991C7.4271 17.9768 7.17461 18.4083 7.17529 18.7617C7.17667 19.115 7.43122 19.2605 7.74615 19.0828L13.5803 15.7942C13.8952 15.6165 14.1477 15.1849 14.147 14.8316Z" fill="url(#paint4_linear_258_44595)"/>
    <path d="M20.4408 4.95407L21.5317 4.95093L21.5317 4.95062L20.4408 4.95407ZM18.3269 3.78148L17.7912 2.83112L17.7911 2.83121L18.3269 3.78148ZM20.4662 13.779L19.3753 13.7822L19.3753 13.7825L20.4662 13.779ZM18.366 17.3263L17.8303 16.376L17.8303 16.376L18.366 17.3263ZM7.02704 23.7183L7.56259 24.6687L7.56275 24.6686L7.02704 23.7183ZM4.91651 22.5443L3.82561 22.5474L3.82561 22.5478L4.91651 22.5443ZM4.89113 13.7193L5.98203 13.7162L5.98203 13.7159L4.89113 13.7193ZM6.98793 10.1734L6.45229 9.22309L6.45196 9.22328L6.98793 10.1734ZM8.99897 9.03996L9.53462 9.99031L9.78906 9.8469L9.93781 9.59553L8.99897 9.03996ZM12.2224 3.5928L13.1612 4.14837L13.1641 4.14349L12.2224 3.5928ZM12.6471 3.15436L12.1109 2.20434L12.1109 2.20434L12.6471 3.15436ZM13.0753 3.11182L12.5436 4.0644L12.5449 4.06514L13.0753 3.11182ZM16.3165 4.91496L15.7862 5.86828L16.3201 6.16531L16.8523 5.86523L16.3165 4.91496ZM14.6993 5.82683L15.235 6.77716L16.9284 5.82262L15.2314 4.87448L14.6993 5.82683ZM10.6155 8.12878L9.67659 7.57329L7.6021 11.0796L11.1512 9.07911L10.6155 8.12878ZM13.0807 4.92251L13.6128 3.97016L13.6101 3.96862L13.0807 4.92251ZM12.6526 4.96505L12.1164 4.01503L12.1164 4.01503L12.6526 4.96505ZM12.2279 5.40349L13.1668 5.95898L13.1696 5.95417L12.2279 5.40349ZM18.5261 8.79672L17.4352 8.79884V8.79884L18.5261 8.79672ZM17.9525 8.47767L18.4881 9.42803L18.4886 9.42776L17.9525 8.47767ZM17.9559 9.76073L17.4214 8.80975L17.4202 8.81041L17.9559 9.76073ZM7.6441 15.5736L7.1084 14.6233L7.10799 14.6235L7.6441 15.5736ZM7.07324 15.2525L5.98233 15.2546L5.98234 15.2567L7.07324 15.2525ZM7.63998 14.2899L7.10436 13.3395L7.10388 13.3398L7.63998 14.2899ZM13.5769 14.5105L14.1125 15.4608L14.113 15.4605L13.5769 14.5105ZM14.147 14.8316L15.2379 14.8294V14.8294L14.147 14.8316ZM7.74203 17.7991L7.2064 16.8487L7.20593 16.849L7.74203 17.7991ZM7.17529 18.7617L6.08439 18.7638L6.08439 18.7659L7.17529 18.7617ZM7.74615 19.0828L7.21047 18.1325L7.21005 18.1327L7.74615 19.0828ZM13.5803 15.7942L14.116 16.7445L14.1164 16.7443L13.5803 15.7942ZM21.5317 4.95062C21.5289 4.05497 21.1908 3.14687 20.3489 2.67925C19.5191 2.21837 18.5693 2.3926 17.7912 2.83112L18.8625 4.73184C19.2495 4.51374 19.3546 4.62279 19.2895 4.58662C19.2648 4.57292 19.2708 4.56292 19.2903 4.60324C19.3128 4.64985 19.3493 4.75959 19.3499 4.95752L21.5317 4.95062ZM21.5571 13.7759L21.5317 4.95093L19.3499 4.95721L19.3753 13.7822L21.5571 13.7759ZM18.9016 18.2767C19.6874 17.8338 20.3398 17.1169 20.7933 16.3507C21.2459 15.5862 21.5599 14.6716 21.5571 13.7756L19.3753 13.7825C19.3766 14.1894 19.2231 14.7202 18.9158 15.2394C18.6094 15.757 18.2096 16.1622 17.8303 16.376L18.9016 18.2767ZM7.56275 24.6686L18.9017 18.2766L17.8303 16.376L6.49133 22.768L7.56275 24.6686ZM3.82561 22.5478C3.82844 23.4435 4.16654 24.351 5.00741 24.8187C5.83642 25.2798 6.78547 25.1066 7.56259 24.6687L6.49149 22.7679C6.107 22.9845 6.00284 22.8758 6.06802 22.912C6.09262 22.9257 6.0866 22.9356 6.06709 22.8952C6.04456 22.8485 6.00804 22.7388 6.00742 22.5409L3.82561 22.5478ZM3.80022 13.7225L3.82561 22.5474L6.00742 22.5412L5.98203 13.7162L3.80022 13.7225ZM6.45196 9.22328C5.66767 9.66568 5.01623 10.3825 4.5634 11.1482C4.11142 11.9124 3.79739 12.8269 3.80022 13.7228L5.98203 13.7159C5.98074 13.3089 6.13431 12.778 6.44136 12.2588C6.74756 11.7411 7.14658 11.3364 7.52391 11.1236L6.45196 9.22328ZM8.46332 8.08961L6.45229 9.22309L7.52358 11.1238L9.53462 9.99031L8.46332 8.08961ZM11.2836 3.03722L8.06013 8.48439L9.93781 9.59553L13.1612 4.14837L11.2836 3.03722ZM12.1109 2.20434C11.7653 2.39939 11.4798 2.70163 11.2807 3.04211L13.1641 4.14349C13.1778 4.12001 13.1913 4.10385 13.1998 4.0951C13.2039 4.09098 13.2054 4.08992 13.2037 4.09126C13.2021 4.09251 13.1956 4.09745 13.1833 4.10438L12.1109 2.20434ZM13.6069 2.15924C13.0168 1.82985 12.4274 2.02565 12.1109 2.20434L13.1833 4.10438C13.162 4.11642 13.0982 4.14871 12.9933 4.16017C12.8824 4.17229 12.7158 4.1605 12.5436 4.0644L13.6069 2.15924ZM16.8469 3.96164L13.6056 2.1585L12.5449 4.06514L15.7862 5.86828L16.8469 3.96164ZM17.7911 2.83121L15.7807 3.96469L16.8523 5.86523L18.8627 4.73175L17.7911 2.83121ZM14.1636 4.87649L10.0798 7.17845L11.1512 9.07911L15.235 6.77716L14.1636 4.87649ZM12.5487 5.87486L14.1672 6.77917L15.2314 4.87448L13.6128 3.97016L12.5487 5.87486ZM13.1888 5.91507C13.1681 5.92678 13.1041 5.95931 12.9987 5.97084C12.8867 5.98309 12.7214 5.97073 12.5514 5.8764L13.6101 3.96862C13.0208 3.64166 12.4341 3.8357 12.1164 4.01503L13.1888 5.91507ZM13.1696 5.95417C13.1833 5.9307 13.1968 5.91453 13.2053 5.90579C13.2093 5.90167 13.2109 5.90061 13.2092 5.90195C13.2076 5.9032 13.2011 5.90814 13.1888 5.91507L12.1164 4.01503C11.7708 4.21008 11.4853 4.51232 11.2862 4.8528L13.1696 5.95417ZM11.5544 8.68427L13.1668 5.95897L11.289 4.848L9.67659 7.57329L11.5544 8.68427ZM19.617 8.7946C19.6162 8.37041 19.449 7.79697 18.8873 7.48464C18.3377 7.179 17.7724 7.32666 17.4164 7.52758L18.4886 9.42776C18.4474 9.45097 18.1686 9.58148 17.8269 9.39145C17.4732 9.19473 17.4353 8.86967 17.4352 8.79884L19.617 8.7946ZM18.4904 10.7117C18.8535 10.5076 19.1226 10.1975 19.2985 9.89993C19.4736 9.60368 19.6178 9.21565 19.617 8.7946L17.4352 8.79884C17.4351 8.77738 17.437 8.76284 17.4382 8.75578C17.4393 8.74861 17.4402 8.74643 17.4394 8.74898C17.4387 8.75145 17.4368 8.7568 17.4334 8.76448C17.43 8.77212 17.4255 8.78074 17.4202 8.78976C17.4149 8.79878 17.4093 8.80708 17.4039 8.81427C17.3984 8.82151 17.394 8.82651 17.3912 8.82936C17.3884 8.83228 17.3886 8.83174 17.3925 8.82865C17.3963 8.82561 17.4057 8.81858 17.4214 8.80975L18.4904 10.7117ZM8.17981 16.5239L18.4916 10.711L17.4202 8.81041L7.1084 14.6233L8.17981 16.5239ZM5.98234 15.2567C5.98396 15.6743 6.14638 16.2465 6.70427 16.5619C7.25535 16.8734 7.82375 16.7248 8.18021 16.5237L7.10799 14.6235C7.14952 14.6001 7.43318 14.4676 7.7779 14.6625C8.12944 14.8612 8.16389 15.184 8.16414 15.2483L5.98234 15.2567ZM7.10388 13.3398C6.74116 13.5444 6.47293 13.8544 6.2977 14.1526C6.12312 14.4498 5.98152 14.8363 5.98234 15.2546L8.16415 15.2504C8.16419 15.271 8.16241 15.2849 8.16132 15.2916C8.16022 15.2984 8.15941 15.3004 8.16019 15.2978C8.16096 15.2953 8.16276 15.2901 8.1661 15.2826C8.16941 15.2751 8.17367 15.2667 8.17881 15.258C8.18395 15.2492 8.18933 15.2412 8.19452 15.2343C8.19973 15.2273 8.20394 15.2226 8.20646 15.22C8.20904 15.2173 8.20874 15.218 8.20476 15.2211C8.20084 15.2242 8.19153 15.2312 8.17609 15.2399L7.10388 13.3398ZM17.4168 7.52731L7.10436 13.3395L8.17561 15.2402L18.4881 9.42803L17.4168 7.52731ZM14.113 15.4605C14.0716 15.4839 13.7877 15.6166 13.4426 15.4214C13.0903 15.222 13.0562 14.8982 13.0561 14.8337L15.2379 14.8294C15.2371 14.4115 15.0754 13.8383 14.5169 13.5224C13.9657 13.2105 13.397 13.3593 13.0408 13.5604L14.113 15.4605ZM8.27767 18.7494L14.1125 15.4608L13.0412 13.5601L7.2064 16.8487L8.27767 18.7494ZM8.2662 18.7596C8.26624 18.7802 8.26446 18.7941 8.26338 18.8008C8.26227 18.8076 8.26146 18.8096 8.26225 18.807C8.26301 18.8045 8.26481 18.7993 8.26815 18.7918C8.27146 18.7843 8.27572 18.7759 8.28086 18.7672C8.286 18.7584 8.29138 18.7504 8.29657 18.7435C8.30178 18.7366 8.30599 18.7318 8.30851 18.7292C8.31109 18.7265 8.31079 18.7272 8.30681 18.7303C8.30289 18.7335 8.29358 18.7404 8.27814 18.7491L7.20593 16.849C6.84321 17.0536 6.57498 17.3636 6.39975 17.6618C6.22517 17.959 6.08358 18.3455 6.08439 18.7638L8.2662 18.7596ZM7.21005 18.1327C7.25158 18.1093 7.53524 17.9769 7.87996 18.1717C8.23149 18.3704 8.26595 18.6932 8.2662 18.7575L6.08439 18.7659C6.08602 19.1836 6.24843 19.7557 6.80632 20.0711C7.35739 20.3826 7.92579 20.234 8.28226 20.0329L7.21005 18.1327ZM13.0446 14.8439L7.21047 18.1325L8.28184 20.0331L14.116 16.7445L13.0446 14.8439ZM13.0561 14.8337C13.0561 14.8131 13.0579 14.7992 13.0589 14.7925C13.0601 14.7857 13.0609 14.7837 13.0601 14.7862C13.0593 14.7887 13.0575 14.794 13.0542 14.8015C13.0509 14.8089 13.0466 14.8173 13.0415 14.8261C13.0363 14.8348 13.0309 14.8428 13.0258 14.8497C13.0205 14.8567 13.0163 14.8614 13.0138 14.8641C13.0112 14.8668 13.0115 14.8661 13.0155 14.8629C13.0194 14.8598 13.0287 14.8528 13.0442 14.8441L14.1164 16.7443C14.4791 16.5396 14.7473 16.2296 14.9226 15.9314C15.0972 15.6343 15.2387 15.2478 15.2379 14.8294L13.0561 14.8337Z" fill="url(#paint5_linear_258_44595)" fill-opacity="0.13" mask="url(#path-25-inside-1_258_44595)"/>
    <defs>
        <linearGradient id="paint0_linear_258_44595" x1="16.733" y1="2.42676" x2="19.4554" y2="3.856" gradientUnits="userSpaceOnUse">
            <stop stop-color="#425AA2"/>
            <stop offset="0.325671" stop-color="#0C2774"/>
            <stop offset="1" stop-color="#4FB4F8"/>
        </linearGradient>
        <linearGradient id="paint1_linear_258_44595" x1="7" y1="-3.64423e-08" x2="17.0207" y2="2.56056" gradientUnits="userSpaceOnUse">
            <stop stop-color="#425AA2"/>
            <stop offset="0.382047" stop-color="#0C2774"/>
            <stop offset="1" stop-color="#4FB4F8"/>
        </linearGradient>
        <linearGradient id="paint2_linear_258_44595" x1="4.48799" y1="4.36842" x2="12.0298" y2="24.9759" gradientUnits="userSpaceOnUse">
            <stop stop-color="#68F5FE"/>
            <stop offset="0.401661" stop-color="#68F5FE"/>
            <stop offset="0.684818" stop-color="#7EE2F9"/>
            <stop offset="1" stop-color="#7EE2F9"/>
        </linearGradient>
        <linearGradient id="paint3_linear_258_44595" x1="5.47801" y1="3.93062" x2="7.43696" y2="13.2332" gradientUnits="userSpaceOnUse">
            <stop stop-color="#F4F3F1"/>
            <stop offset="0.882503" stop-color="#F4F3F1" stop-opacity="0"/>
        </linearGradient>
        <linearGradient id="paint4_linear_258_44595" x1="10.216" y1="13.5365" x2="14.2122" y2="22.4038" gradientUnits="userSpaceOnUse">
            <stop stop-color="#897BC8" stop-opacity="0"/>
            <stop offset="1" stop-color="#897BC8"/>
        </linearGradient>
        <linearGradient id="paint5_linear_258_44595" x1="12.6787" y1="3.07324" x2="13.4077" y2="22.8888" gradientUnits="userSpaceOnUse">
            <stop offset="0.228134" stop-color="#FFF5FD" stop-opacity="0"/>
            <stop offset="1" stop-color="#FFF5FD"/>
        </linearGradient>
    </defs>
</svg>
