<svg width="26" height="26" viewBox="0 0 26 26" fill="none" xmlns="http://www.w3.org/2000/svg">
    <mask id="mask0_258_44597" style="mask-type:luminance" maskUnits="userSpaceOnUse" x="13" y="18" width="4" height="2">
        <path d="M16.2166 19.0246L13.8765 18.1355C13.8384 18.1191 13.7947 18.1191 13.7456 18.1355L16.0856 19.0246C16.1347 19.0082 16.1784 19.0082 16.2166 19.0246Z" fill="white"/>
    </mask>
    <g mask="url(#mask0_258_44597)">
        <path d="M16.2166 19.0246L13.8765 18.1355H13.8711L16.2111 19.0246H16.2166Z" fill="#858585"/>
        <path d="M16.2112 19.0244L13.8712 18.1353C13.8712 18.1353 13.8548 18.1353 13.8494 18.1299L16.1894 19.019C16.1894 19.019 16.2057 19.019 16.2112 19.0244Z" fill="#8A8A8A"/>
        <path d="M16.189 19.019L13.849 18.1299C13.849 18.1299 13.8381 18.1299 13.8326 18.1299L16.1726 19.019C16.1726 19.019 16.1835 19.019 16.189 19.019Z" fill="#8F8F8F"/>
        <path d="M16.1729 19.0137L13.8328 18.1246C13.8328 18.1246 13.8219 18.1246 13.8165 18.1246L16.1565 19.0137C16.1565 19.0137 16.1674 19.0137 16.1729 19.0137Z" fill="#949494"/>
        <path d="M16.157 19.0137L13.817 18.1246H13.8061L16.1461 19.0137H16.157Z" fill="#999999"/>
        <path d="M16.1453 19.0137L13.8053 18.1246H13.7944L16.1344 19.0137H16.1453Z" fill="#9E9E9E"/>
        <path d="M16.1294 19.0137L13.7894 18.1246C13.7894 18.1246 13.7839 18.1246 13.7785 18.1246L16.1185 19.0137H16.1294Z" fill="#A3A3A3"/>
        <path d="M16.1187 19.019L13.7787 18.1299C13.7787 18.1299 13.7732 18.1299 13.7677 18.1299L16.1077 19.019C16.1077 19.019 16.1132 19.019 16.1187 19.019Z" fill="#A8A8A8"/>
        <path d="M16.1079 19.019L13.7679 18.1299C13.7679 18.1299 13.7624 18.1299 13.757 18.1299L16.097 19.019C16.097 19.019 16.1025 19.019 16.1079 19.019Z" fill="#ADADAD"/>
        <path d="M16.0962 19.0246L13.7562 18.1355C13.7562 18.1355 13.7562 18.1355 13.7507 18.1355L16.0907 19.0246C16.0907 19.0246 16.0907 19.0246 16.0962 19.0246Z" fill="#B3B3B3"/>
    </g>
    <path d="M19.3083 20.0606L16.3411 21.1406L14.0011 20.2515L16.9683 19.1715L19.3083 20.0606Z" fill="#23588C"/>
    <path d="M6.31562 23.0501L9.2829 21.9701L9.31562 20.1919C9.31562 20.1919 9.31562 20.1865 9.31562 20.181C9.31562 20.1756 9.31562 20.1647 9.31562 20.1592C9.31562 20.1538 9.31562 20.1428 9.31562 20.1374C9.31562 20.1319 9.31562 20.121 9.31562 20.1156C9.31562 20.1101 9.31562 20.0992 9.31562 20.0938C9.31562 20.0883 9.31562 20.0774 9.31562 20.0719C9.31562 20.0665 9.31562 20.0556 9.31562 20.0501C9.31562 20.0392 9.31562 20.0338 9.32108 20.0228C9.32108 20.0228 9.32108 20.0174 9.32108 20.0119C9.32108 20.0119 9.32108 20.001 9.32108 19.9956C9.32108 19.9847 9.32653 19.9792 9.33199 19.9683C9.33199 19.9574 9.3429 19.9465 9.3429 19.9301C9.35381 19.9083 9.36472 19.8865 9.37562 19.8647C9.37562 19.8592 9.38108 19.8483 9.38654 19.8428C9.38654 19.8428 9.38653 19.8319 9.39199 19.8319C9.39744 19.821 9.40835 19.8101 9.4138 19.7992C9.41926 19.7883 9.42471 19.7828 9.43017 19.7774C9.43017 19.7719 9.44107 19.7665 9.44653 19.7556C9.44653 19.7501 9.45745 19.7447 9.4629 19.7392C9.4629 19.7392 9.47381 19.7283 9.47926 19.7228C9.47926 19.7228 9.48471 19.7174 9.49017 19.7119C9.49017 19.7119 9.50108 19.7065 9.50108 19.701C9.50108 19.701 9.50653 19.6956 9.51199 19.6901C9.51199 19.6901 9.51745 19.6847 9.5229 19.6792C9.5229 19.6792 9.52835 19.6792 9.5338 19.6738C9.5338 19.6738 9.53926 19.6738 9.54471 19.6683C9.54471 19.6683 9.55017 19.6683 9.55563 19.6628C9.55563 19.6628 9.56107 19.6628 9.56653 19.6574C9.56653 19.6574 9.57199 19.6574 9.57744 19.6574C9.57744 19.6574 9.5829 19.6574 9.58835 19.6574L13.7447 18.1465L16.0847 19.0356L11.9283 20.5465C11.8847 20.5628 11.8465 20.5901 11.8138 20.6228C11.7811 20.6556 11.7484 20.6992 11.7211 20.7483C11.7211 20.7538 11.7156 20.7647 11.7102 20.7701C11.6884 20.8138 11.6665 20.8628 11.6502 20.9174C11.6338 20.9774 11.6229 21.0374 11.6229 21.0974L11.5902 22.8756L8.62289 23.9556L8.59562 25.2919L6.25562 24.4028L6.2829 23.0665L6.31562 23.0501Z" fill="url(#paint0_linear_258_44597)"/>
    <path d="M4.02431 19.7335L4.26977 7.29718L6.60977 8.18627L6.36432 20.6226C6.36432 20.7481 6.37523 20.8626 6.39704 20.9717C6.41886 21.0754 6.45159 21.1735 6.49522 21.2554C6.5334 21.3263 6.57704 21.3808 6.62613 21.4354C6.6425 21.4517 6.65341 21.4681 6.66977 21.479C6.72432 21.5281 6.78432 21.5717 6.85522 21.5935L4.51523 20.7045C4.44977 20.6772 4.38431 20.639 4.32977 20.5899C4.3134 20.5735 4.29704 20.5626 4.28613 20.5463C4.26977 20.5299 4.24795 20.5135 4.23159 20.4917C4.21522 20.4699 4.19886 20.4426 4.1825 20.4154C4.17159 20.399 4.16613 20.3826 4.15523 20.3663C4.15523 20.3663 4.15523 20.3608 4.15523 20.3554C4.14432 20.3335 4.13886 20.3172 4.12795 20.2954C4.1225 20.279 4.11159 20.2572 4.10614 20.2408C4.10068 20.2245 4.09522 20.2081 4.08976 20.1863C4.08976 20.1699 4.07886 20.1535 4.0734 20.1317C4.0734 20.1154 4.06795 20.099 4.0625 20.0826C4.0625 20.0663 4.05704 20.0499 4.05159 20.0335C4.05159 20.0172 4.05159 20.0008 4.04614 19.9845C4.04614 19.9681 4.04613 19.9517 4.04068 19.9299C4.04068 19.9135 4.04068 19.8972 4.04068 19.8754C4.04068 19.859 4.04068 19.8372 4.04068 19.8208C4.04068 19.8045 4.04068 19.7826 4.04068 19.7663C4.04068 19.7554 4.04068 19.7445 4.04068 19.7335H4.02431Z" fill="#4DB4F6"/>
    <path d="M11.6224 21.0973L11.5897 22.8755L8.62239 23.9555L8.59512 25.2919L19.286 21.4028L19.3133 20.0664L16.346 21.1464L16.3788 19.3682C16.3788 19.1228 16.2533 18.9701 16.0897 19.0301L11.9333 20.541C11.7697 20.601 11.6333 20.8519 11.6278 21.0973H11.6224Z" fill="url(#paint1_linear_258_44597)"/>
    <path d="M11.6224 21.0973L11.5897 22.8755L8.62239 23.9555L8.59512 25.2919L19.286 21.4028L19.3133 20.0664L16.346 21.1464L16.3788 19.3682C16.3788 19.1228 16.2533 18.9701 16.0897 19.0301L11.9333 20.541C11.7697 20.601 11.6333 20.8519 11.6278 21.0973H11.6224Z" fill="url(#paint2_linear_258_44597)"/>
    <path d="M11.6224 21.0973L11.5897 22.8755L8.62239 23.9555L8.59512 25.2919L19.286 21.4028L19.3133 20.0664L16.346 21.1464L16.3788 19.3682C16.3788 19.1228 16.2533 18.9701 16.0897 19.0301L11.9333 20.541C11.7697 20.601 11.6333 20.8519 11.6278 21.0973H11.6224Z" fill="url(#paint3_linear_258_44597)"/>
    <path d="M7.6406 6.49003C7.08424 6.69185 6.62606 7.45003 6.60969 8.18639L6.36424 20.6228C6.34788 21.3537 6.78969 21.79 7.3406 21.5882L20.7042 16.7228C21.2551 16.5209 21.7188 15.7628 21.7297 15.0264L21.9751 2.59003C21.9915 1.85912 21.5497 1.42276 20.9988 1.62458L7.63514 6.49003H7.6406ZM11.8951 17.3064L12.0751 8.15912L13.8806 7.49912L13.7006 16.6464L11.8951 17.3064ZM9.00424 18.3591L9.1406 11.3664L10.9515 10.7064L10.8151 17.6991L9.00424 18.3591ZM14.7861 16.2537L14.8788 11.41L16.6842 10.75L16.5915 15.5937L14.7861 16.2537ZM17.317 15.3318L17.3715 12.6428L19.177 11.9828L19.1224 14.6718L17.317 15.3318Z" fill="url(#paint4_linear_258_44597)"/>
    <path d="M7.6406 6.49003C7.08424 6.69185 6.62606 7.45003 6.60969 8.18639L6.36424 20.6228C6.34788 21.3537 6.78969 21.79 7.3406 21.5882L20.7042 16.7228C21.2551 16.5209 21.7188 15.7628 21.7297 15.0264L21.9751 2.59003C21.9915 1.85912 21.5497 1.42276 20.9988 1.62458L7.63514 6.49003H7.6406ZM11.8951 17.3064L12.0751 8.15912L13.8806 7.49912L13.7006 16.6464L11.8951 17.3064ZM9.00424 18.3591L9.1406 11.3664L10.9515 10.7064L10.8151 17.6991L9.00424 18.3591ZM14.7861 16.2537L14.8788 11.41L16.6842 10.75L16.5915 15.5937L14.7861 16.2537ZM17.317 15.3318L17.3715 12.6428L19.177 11.9828L19.1224 14.6718L17.317 15.3318Z" fill="url(#paint5_linear_258_44597)"/>
    <path d="M7.6406 6.49003C7.08424 6.69185 6.62606 7.45003 6.60969 8.18639L6.36424 20.6228C6.34788 21.3537 6.78969 21.79 7.3406 21.5882L20.7042 16.7228C21.2551 16.5209 21.7188 15.7628 21.7297 15.0264L21.9751 2.59003C21.9915 1.85912 21.5497 1.42276 20.9988 1.62458L7.63514 6.49003H7.6406ZM11.8951 17.3064L12.0751 8.15912L13.8806 7.49912L13.7006 16.6464L11.8951 17.3064ZM9.00424 18.3591L9.1406 11.3664L10.9515 10.7064L10.8151 17.6991L9.00424 18.3591ZM14.7861 16.2537L14.8788 11.41L16.6842 10.75L16.5915 15.5937L14.7861 16.2537ZM17.317 15.3318L17.3715 12.6428L19.177 11.9828L19.1224 14.6718L17.317 15.3318Z" fill="url(#paint6_linear_258_44597)"/>
    <path d="M20.7042 16.7228C21.2551 16.5209 21.7188 15.7628 21.7297 15.0264L21.9751 2.59003C21.9915 1.85912 21.5497 1.42276 20.9988 1.62458L7.73038 6.45536L7.82627 7.00092M20.7042 16.7228L7.3406 21.5882C6.78969 21.79 6.34788 21.3537 6.36424 20.6228L6.60969 8.18639M20.7042 16.7228L20.5166 16.2106L7.15399 21.0757L7.15297 21.076C7.09835 21.0961 7.06988 21.0924 7.06126 21.0906C7.05329 21.089 7.04105 21.085 7.02314 21.0673C6.98252 21.0272 6.90366 20.8986 6.90956 20.635L6.90959 20.6335L7.15501 8.19851L6.60969 8.18639M20.7042 16.7228L20.5176 16.2102L20.5169 16.2105C20.6404 16.1651 20.8083 16.0308 20.9531 15.7921C21.0941 15.5598 21.1804 15.2801 21.1843 15.0183L21.1843 15.0156L21.4298 2.57927L21.4298 2.57782C21.4357 2.31422 21.3569 2.18561 21.3162 2.14546C21.2983 2.12776 21.2861 2.12378 21.2781 2.12217C21.2695 2.12043 21.241 2.11674 21.1864 2.13675L21.1864 2.13675L21.1854 2.13712L7.82627 7.00092M6.60969 8.18639C6.62512 7.49222 7.03318 6.77866 7.546 6.53009L7.63514 7.03549H7.6406V6.50503L7.82175 7.00257L7.82596 7.00104L7.82627 7.00092M6.60969 8.18639L7.15504 8.19716L7.15503 8.19783C7.16104 7.93349 7.24826 7.65265 7.38899 7.42068C7.53367 7.1822 7.70121 7.04828 7.8266 7.00279L7.82627 7.00092M15.8007 21.1364L15.827 19.7059L12.1921 21.0273C12.1881 21.0365 12.1843 21.0472 12.181 21.059C12.1758 21.0783 12.1735 21.0958 12.1732 21.1095L12.1613 21.6428H12.1579L12.135 22.8856L12.1281 23.26L11.7762 23.3881L9.16011 24.3403L9.1567 24.5072L18.7483 21.018L18.7517 20.8513L16.5326 21.659L15.786 21.9307L15.8007 21.1364ZM15.832 19.3502C15.8319 19.3503 15.8321 19.352 15.8328 19.3551C15.8325 19.3517 15.8321 19.3502 15.832 19.3502ZM12.0824 17.8187L11.3341 18.0922L11.3342 18.0905L11.0019 18.2116L9.19102 18.8716L8.44337 19.1441L8.45889 18.3485L8.59525 11.3558L8.60254 10.9819L8.95382 10.8539L10.7647 10.1939L11.4948 9.92784L11.5298 8.14839L11.5371 7.77504L11.8879 7.64682L13.6933 6.98682L14.4416 6.71328L14.426 7.50985L14.3569 11.0201L14.6915 10.8977L16.497 10.2377L17.2448 9.96434L17.2296 10.7605L17.2035 12.1234L18.9897 11.4705L19.7385 11.1967L19.7223 11.9938L19.6678 14.6829L19.6602 15.056L19.3097 15.1841L17.5042 15.8441L16.7554 16.1179L16.7555 16.1145L14.9733 16.766L14.2255 17.0394L14.2255 17.0353L13.8879 17.1587L12.0824 17.8187Z" stroke="url(#paint7_linear_258_44597)" stroke-opacity="0.13" stroke-width="1.09091"/>
    <path d="M7.25387 6.73534C7.19387 6.78989 7.13933 6.84989 7.08478 6.91534C7.08478 6.91534 7.08478 6.9208 7.07387 6.92625C7.02478 6.99171 6.97569 7.05716 6.93206 7.12807C6.93206 7.12807 6.9266 7.13898 6.92114 7.14443C6.91024 7.1608 6.90479 7.17716 6.89388 7.19352C6.85024 7.26989 6.81206 7.35171 6.77388 7.43352C6.74661 7.49898 6.71933 7.56443 6.69751 7.63534C6.69751 7.63534 6.69751 7.6408 6.69751 7.64625C6.67024 7.73352 6.64842 7.8208 6.63751 7.91352C6.62115 8.00625 6.61569 8.09352 6.61024 8.18625L4.27024 7.29716C4.27024 7.29716 4.27024 7.2808 4.27024 7.27534C4.27024 7.25352 4.27024 7.23716 4.27024 7.21534C4.27024 7.19352 4.27024 7.17716 4.27024 7.15534C4.27024 7.13352 4.27024 7.11716 4.2757 7.09534C4.2757 7.07352 4.28114 7.05171 4.2866 7.03534C4.2866 7.03534 4.2866 7.02989 4.2866 7.02443C4.2866 7.00807 4.2866 6.99171 4.29751 6.97534C4.29751 6.95352 4.30842 6.93171 4.31387 6.90989C4.31387 6.88807 4.32478 6.86625 4.33024 6.84443C4.33569 6.82261 4.34115 6.79534 4.35206 6.77352V6.76261C4.35206 6.76261 4.35206 6.75716 4.35206 6.75171C4.35751 6.72989 4.36296 6.71352 4.37387 6.69171C4.38478 6.65898 4.39569 6.6208 4.41206 6.58807C4.41206 6.57716 4.42297 6.56625 4.42842 6.54989C4.46115 6.46807 4.50479 6.38625 4.54842 6.30989C4.55388 6.29898 4.55933 6.28261 4.56479 6.27171C4.56479 6.27171 4.56478 6.26625 4.57024 6.2608C4.57024 6.2608 4.57569 6.24989 4.58115 6.24443C4.59751 6.21716 4.61387 6.18989 4.63024 6.16261C4.6466 6.13534 4.66842 6.10807 4.69024 6.0808C4.70115 6.06443 4.71206 6.05352 4.72296 6.04261C4.72296 6.04261 4.72297 6.03716 4.72842 6.03171C4.72842 6.02625 4.73933 6.0208 4.74479 6.01534C4.76115 5.99352 4.77751 5.97716 4.79387 5.95534C4.81024 5.93898 4.8266 5.92261 4.84296 5.9008C4.85933 5.88443 4.87569 5.86807 4.89205 5.85716C4.90296 5.84625 4.91388 5.83534 4.93024 5.82443C4.9466 5.81352 4.95751 5.79716 4.97388 5.78625C4.99024 5.77534 5.00115 5.76443 5.01751 5.75352C5.03388 5.74261 5.04479 5.73171 5.06115 5.72625C5.06661 5.72625 5.07751 5.71534 5.08297 5.71534C5.08297 5.71534 5.09387 5.70443 5.09933 5.70443C5.11569 5.69352 5.1266 5.68807 5.14297 5.68261C5.15933 5.67716 5.17024 5.66625 5.1866 5.6608C5.20297 5.65534 5.21388 5.64989 5.23024 5.63898C5.2466 5.62807 5.25751 5.62807 5.27388 5.62261C5.27933 5.62261 5.28479 5.62261 5.29024 5.61716L18.6539 0.751705C18.6539 0.751705 18.6702 0.746251 18.6811 0.740796C18.6975 0.740796 18.7084 0.729887 18.7248 0.729887C18.7411 0.729887 18.7575 0.724432 18.7684 0.718978C18.7848 0.718978 18.8011 0.713524 18.8121 0.713524C18.8284 0.713524 18.8448 0.713523 18.8611 0.708069C18.8775 0.708069 18.8884 0.708069 18.9048 0.708069C18.9048 0.708069 18.9048 0.708069 18.9102 0.708069C18.9266 0.708069 18.9484 0.708069 18.9648 0.708069C18.9866 0.708069 19.0084 0.708069 19.0302 0.718978C19.0575 0.718978 19.0848 0.729887 19.1066 0.740796C19.1175 0.740796 19.123 0.746251 19.1339 0.751705L21.4739 1.6408C21.403 1.61352 21.3266 1.60261 21.2448 1.60261C21.163 1.60261 21.0811 1.61898 20.9939 1.65171L7.63024 6.51716C7.55933 6.54443 7.49388 6.57716 7.42842 6.61534C7.36297 6.65352 7.30297 6.70261 7.24297 6.75716L7.25387 6.73534Z" fill="url(#paint8_linear_258_44597)"/>
    <defs>
        <linearGradient id="paint0_linear_258_44597" x1="14.522" y1="18.6313" x2="7.43531" y2="24.8197" gradientUnits="userSpaceOnUse">
            <stop stop-color="#13488A"/>
            <stop offset="1" stop-color="#447ABA"/>
        </linearGradient>
        <linearGradient id="paint1_linear_258_44597" x1="22.3797" y1="3.04312" x2="13.0232" y2="25.6546" gradientUnits="userSpaceOnUse">
            <stop stop-color="#68F5FE"/>
            <stop offset="0.401661" stop-color="#68F5FE"/>
            <stop offset="0.684818" stop-color="#7EE2F9"/>
            <stop offset="1" stop-color="#7EE2F9"/>
        </linearGradient>
        <linearGradient id="paint2_linear_258_44597" x1="21.3873" y1="2.54694" x2="18.9064" y2="12.9666" gradientUnits="userSpaceOnUse">
            <stop stop-color="#F4F3F1"/>
            <stop offset="0.882503" stop-color="#F4F3F1" stop-opacity="0"/>
        </linearGradient>
        <linearGradient id="paint3_linear_258_44597" x1="16.6382" y1="13.4336" x2="11.7473" y2="23.0319" gradientUnits="userSpaceOnUse">
            <stop stop-color="#897BC8" stop-opacity="0"/>
            <stop offset="1" stop-color="#897BC8"/>
        </linearGradient>
        <linearGradient id="paint4_linear_258_44597" x1="22.3797" y1="3.04312" x2="13.0232" y2="25.6546" gradientUnits="userSpaceOnUse">
            <stop stop-color="#68F5FE"/>
            <stop offset="0.401661" stop-color="#68F5FE"/>
            <stop offset="0.684818" stop-color="#7EE2F9"/>
            <stop offset="1" stop-color="#7EE2F9"/>
        </linearGradient>
        <linearGradient id="paint5_linear_258_44597" x1="21.3873" y1="2.54694" x2="18.9064" y2="12.9666" gradientUnits="userSpaceOnUse">
            <stop stop-color="#F4F3F1"/>
            <stop offset="0.882503" stop-color="#F4F3F1" stop-opacity="0"/>
        </linearGradient>
        <linearGradient id="paint6_linear_258_44597" x1="16.6382" y1="13.4336" x2="11.7473" y2="23.0319" gradientUnits="userSpaceOnUse">
            <stop stop-color="#897BC8" stop-opacity="0"/>
            <stop offset="1" stop-color="#897BC8"/>
        </linearGradient>
        <linearGradient id="paint7_linear_258_44597" x1="14.1697" y1="1.57526" x2="13.2358" y2="24.0243" gradientUnits="userSpaceOnUse">
            <stop offset="0.228134" stop-color="#FFF5FD" stop-opacity="0"/>
            <stop offset="1" stop-color="#FFF5FD"/>
        </linearGradient>
        <linearGradient id="paint8_linear_258_44597" x1="19.9601" y1="0.708069" x2="5.63816" y2="7.63809" gradientUnits="userSpaceOnUse">
            <stop stop-color="#425AA2"/>
            <stop offset="0.325671" stop-color="#0C2774"/>
            <stop offset="1" stop-color="#4FB4F8"/>
        </linearGradient>
    </defs>
</svg>
