<svg width="24" height="24" viewBox="0 0 24 24" fill="none" xmlns="http://www.w3.org/2000/svg">
    <path d="M17.7974 15.1896L17.7841 20.0048L17.7834 20.0505L17.7967 15.2353L17.7974 15.1896ZM17.7967 15.2353L17.7834 20.0505C17.7807 20.1506 17.7694 20.2503 17.7495 20.3484L17.7628 15.5332C17.7827 15.4351 17.794 15.3354 17.7967 15.2353Z" fill="#4DB3F5"/>
    <path d="M17.7636 15.5331L17.7503 20.3483C17.7305 20.4479 17.7027 20.5458 17.6672 20.6408L17.6805 15.8256C17.7164 15.7288 17.7437 15.6313 17.7636 15.5331ZM17.6805 15.8256L17.6672 20.6408C17.6292 20.7427 17.5835 20.8414 17.5303 20.936L17.5436 16.1208C17.5968 16.0261 17.6425 15.9274 17.6805 15.8256Z" fill="#4DB3F5"/>
    <path d="M17.5434 16.1211L17.5301 20.9363C17.4692 21.0451 17.4 21.1489 17.3233 21.247L17.3366 16.4318C17.4158 16.3295 17.4849 16.226 17.5434 16.1211ZM17.3366 16.4311L17.3233 21.2463C17.2263 21.37 17.1198 21.4858 17.0049 21.5926L17.0182 16.7774C17.1333 16.6707 17.2398 16.5549 17.3366 16.4311Z" fill="#4DB3F5"/>
    <path d="M17.0178 16.7783L17.0045 21.5936C16.8045 21.7779 16.5864 21.9413 16.3537 22.0811L16.367 17.2658C16.6163 17.1139 16.833 16.9505 17.0178 16.7783ZM16.3663 17.2658L16.353 22.0811L16.2905 22.1187C15.9474 22.3204 15.5678 22.4872 15.1643 22.6197L15.1775 17.8044C15.5695 17.6785 15.9471 17.5105 16.3038 17.3035L16.3663 17.2658ZM15.1769 17.8044L15.1636 22.6197C14.8518 22.7219 14.5253 22.8032 14.1909 22.8644L14.2042 18.0492C14.5393 17.988 14.8657 17.9066 15.1769 17.8044Z" fill="#4CAFF2"/>
    <path d="M14.2045 18.0498L14.1912 22.865C13.9758 22.904 13.757 22.935 13.5356 22.9572L13.5489 18.1419C13.7703 18.1197 13.9891 18.0895 14.2045 18.0498Z" fill="#4DB3F5"/>
    <path d="M13.5494 18.1407L13.5361 22.9559C13.3473 22.9747 13.1571 22.9875 12.9663 22.9942L12.9796 18.179C13.1704 18.173 13.3606 18.1602 13.5494 18.1407Z" fill="#4DB3F5"/>
    <path d="M12.9801 18.1796L12.9668 22.9949C12.792 23.0009 12.6158 23.0016 12.4409 22.9975L12.4542 18.1823C12.6291 18.187 12.8046 18.1857 12.9801 18.1796Z" fill="#4DB3F5"/>
    <path d="M12.4538 18.1823L12.4405 22.9975C12.2716 22.9935 12.1027 22.9841 11.9345 22.9699L11.9478 18.1547C12.1154 18.1688 12.2842 18.1782 12.4538 18.1823ZM11.9478 18.1547L11.9345 22.9699C11.7676 22.9559 11.6011 22.9371 11.4352 22.9135L11.4485 18.0982C11.6134 18.1224 11.7803 18.1413 11.9478 18.1547ZM11.4479 18.0982L11.4346 22.9135C11.2639 22.8889 11.0941 22.8591 10.9253 22.824L10.9386 18.0088C11.1061 18.0438 11.2763 18.074 11.4479 18.0982Z" fill="#4CAFF2"/>
    <path d="M10.9388 18.0083L10.9255 22.8235C10.7454 22.7857 10.5666 22.7413 10.3896 22.6904L10.4029 17.8751C10.5785 17.9262 10.7573 17.9706 10.9388 18.0083Z" fill="#4DB3F5"/>
    <path d="M10.4027 17.8762L10.3894 22.6915C10.1781 22.6306 9.96975 22.5594 9.76514 22.4783L9.77843 17.6631C9.97988 17.7431 10.1886 17.8144 10.4027 17.8762Z" fill="#4DB3F5"/>
    <path d="M9.77879 17.6636L9.76549 22.4788C9.50969 22.3777 9.26168 22.2574 9.02353 22.1191C8.01031 21.5273 7.50436 20.7507 7.50635 19.9754L7.51965 15.1602C7.51766 15.9355 8.0236 16.7121 9.03682 17.3038C9.26952 17.439 9.51817 17.5594 9.77879 17.6636Z" fill="#4CAFF2"/>
    <path d="M12.6498 18.185C13.3246 18.1869 13.993 18.1109 14.6169 17.9614C15.2407 17.8118 15.8078 17.5917 16.2857 17.3135C16.7637 17.0353 17.1431 16.7045 17.4023 16.34C17.6616 15.9755 17.7956 15.5844 17.7967 15.189C17.7978 14.7937 17.6659 14.4019 17.4087 14.0359C17.1515 13.6699 16.7739 13.337 16.2975 13.0561C15.8211 12.7752 15.2552 12.5519 14.6322 12.3988C14.0092 12.2458 13.3412 12.166 12.6664 12.1641C11.9916 12.1622 11.3232 12.2382 10.6993 12.3877C10.0755 12.5372 9.5084 12.7574 9.03046 13.0356C8.55253 13.3138 8.17311 13.6446 7.91387 14.0091C7.65462 14.3736 7.52063 14.7647 7.51954 15.16C7.51845 15.5554 7.65028 15.9472 7.90751 16.3132C8.16473 16.6791 8.54232 17.0121 9.01871 17.293C9.4951 17.5739 10.061 17.7972 10.684 17.9503C11.307 18.1033 11.975 18.1831 12.6498 18.185Z" fill="#FF9FE4"/>
    <path d="M20.8121 14.9374L20.7988 19.7526V19.7607L20.8121 14.9454V14.9374Z" fill="#FF9FE4"/>
    <path d="M20.8122 14.9445L20.799 19.7598C20.7983 19.7774 20.7963 19.7949 20.793 19.8122L20.8063 14.997C20.8096 14.9797 20.8116 14.9621 20.8122 14.9445Z" fill="#4DB3F5"/>
    <path d="M20.8062 14.9979L20.7929 19.8131C20.7897 19.8306 20.7848 19.8477 20.7783 19.8642L20.7916 15.049C20.798 15.0324 20.8029 15.0153 20.8062 14.9979Z" fill="#4DB3F5"/>
    <path d="M20.7919 15.0479L20.7786 19.8631C20.7717 19.8808 20.7637 19.8981 20.7547 19.9149L20.7679 15.0996C20.7775 15.0832 20.7856 15.0658 20.7919 15.0479ZM20.7679 15.0996L20.7547 19.9149C20.7442 19.9338 20.7322 19.9518 20.7188 19.9687L20.732 15.1534C20.7455 15.1366 20.7575 15.1186 20.7679 15.0996Z" fill="#4DB3F5"/>
    <path d="M20.7317 15.1533L20.7184 19.9686C20.7016 19.9903 20.6829 20.0106 20.6626 20.0291L20.6759 15.2138C20.6962 15.1954 20.7149 15.1751 20.7317 15.1533Z" fill="#4DB3F5"/>
    <path d="M20.6767 15.2139L20.6634 20.0291C20.6287 20.0615 20.5906 20.0899 20.5497 20.1138L20.563 15.2986C20.6062 15.2724 20.6441 15.2435 20.6767 15.2139ZM20.563 15.2986L20.5497 20.1138L20.5391 20.1206C20.4792 20.1562 20.4121 20.1851 20.3416 20.2086L20.3549 15.3934C20.4237 15.3713 20.4899 15.3418 20.5524 15.3053L20.563 15.2986ZM20.3543 15.3934L20.341 20.2086C20.2848 20.2269 20.2275 20.2413 20.1694 20.2517L20.1827 15.4364C20.2419 15.4257 20.2991 15.4109 20.3543 15.3934Z" fill="#4DB3F5"/>
    <path d="M20.1827 15.4375L20.1694 20.2527C20.131 20.2595 20.0924 20.2649 20.0537 20.2689L20.067 15.4536C20.1055 15.4496 20.1441 15.4442 20.1827 15.4375ZM20.0663 15.4536L20.053 20.2689C20.0198 20.2722 19.9859 20.2742 19.952 20.2756L19.9653 15.4604C19.9992 15.4597 20.0331 15.457 20.0663 15.4536ZM19.9653 15.4604L19.952 20.2756C19.921 20.2768 19.8899 20.277 19.8589 20.2763L19.8722 15.461C19.9034 15.4617 19.9347 15.4617 19.9653 15.4604Z" fill="#4DB3F5"/>
    <path d="M19.8721 15.4611L19.8588 20.2763C19.8289 20.2756 19.799 20.2736 19.7691 20.2716L19.7824 15.4564C19.8123 15.4584 19.8422 15.4604 19.8721 15.4611ZM19.7824 15.4564L19.7691 20.2716C19.7395 20.2689 19.7101 20.2656 19.6807 20.2615L19.694 15.4463C19.7232 15.4503 19.7525 15.4537 19.7824 15.4564Z" fill="#4DB3F5"/>
    <path d="M19.6941 15.4454L19.6808 20.2606C19.6506 20.2566 19.6207 20.2513 19.591 20.2445L19.6043 15.4292C19.6336 15.436 19.6635 15.4407 19.6941 15.4454ZM19.6043 15.4292L19.591 20.2445C19.5593 20.2377 19.5278 20.2299 19.4966 20.2209L19.5099 15.4057C19.5405 15.4151 19.5717 15.4225 19.6043 15.4292ZM19.5092 15.4057L19.4959 20.2209C19.4587 20.2103 19.4221 20.1977 19.3862 20.1833L19.3995 15.368C19.4348 15.3828 19.472 15.3949 19.5092 15.4057Z" fill="#4DB3F5"/>
    <path d="M19.3996 15.3695L19.3863 20.1848C19.3414 20.1671 19.2978 20.146 19.256 20.1215C19.0779 20.0173 18.9888 19.8801 18.9888 19.743L19.0021 14.9277C19.0014 15.0649 19.0905 15.2021 19.2693 15.3063C19.3106 15.3298 19.3538 15.3514 19.3996 15.3695Z" fill="#4DB3F5"/>
    <path d="M20.5433 14.5571C20.8977 14.7642 20.9043 15.099 20.5519 15.3055C20.2002 15.5126 19.6238 15.5126 19.2695 15.3055C18.9151 15.0984 18.9131 14.7608 19.2655 14.5544C19.6178 14.3473 20.1889 14.35 20.5433 14.5571Z" fill="#FF9FE4"/>
    <path d="M4.12793 13.0984L4.12261 14.9045C3.67118 14.6409 3.44514 14.2946 3.4458 13.9497L3.45112 12.1436C3.44979 12.4885 3.67584 12.8348 4.12793 13.0984Z" fill="#7AC9FF"/>
    <path d="M22.9999 12.3633L22.9946 14.1694V14.1896L22.9999 12.3835V12.3633Z" fill="#FFC0E9"/>
    <path d="M22.9996 12.3848L22.9943 14.1909C22.9932 14.2354 22.9881 14.2798 22.979 14.3234L22.9843 12.5172C22.9936 12.4735 22.9983 12.4291 22.9996 12.3848Z" fill="#7AC9FF"/>
    <path d="M22.9844 12.5175L22.9791 14.3236C22.9702 14.3678 22.9577 14.4112 22.9419 14.4534L22.9472 12.6472C22.9638 12.6049 22.9758 12.5612 22.9844 12.5175Z" fill="#7AC9FF"/>
    <path d="M22.9478 12.6476L22.9425 14.4538C22.9256 14.499 22.9054 14.5428 22.882 14.5849L22.8873 12.7788C22.9112 12.7357 22.9312 12.6914 22.9478 12.6476ZM22.8866 12.7788L22.8813 14.5849C22.8554 14.632 22.8248 14.6777 22.7896 14.7227L22.7949 12.9166C22.8289 12.8731 22.8596 12.827 22.8866 12.7788Z" fill="#7AC9FF"/>
    <path d="M22.7949 12.916L22.7896 14.7221C22.7463 14.777 22.699 14.8285 22.6479 14.8761L22.6533 13.07C22.7046 13.0227 22.752 12.9712 22.7949 12.916Z" fill="#7AC9FF"/>
    <path d="M22.6538 13.0701L22.6485 14.8763C22.5599 14.9578 22.4635 15.0301 22.3606 15.0921L22.3659 13.286C22.4756 13.2187 22.572 13.1461 22.6538 13.0701ZM22.3653 13.286L22.36 15.0921C22.3505 15.0975 22.3412 15.1031 22.332 15.1089L22.3374 13.3028L22.3653 13.286Z" fill="#7AC9FF"/>
    <path d="M22.3384 13.3019L22.3331 15.108L15.0391 19.3954L15.0437 17.5893L22.3384 13.3019Z" fill="#7AC9FF"/>
    <path d="M11.8193 17.5899L11.8146 19.3961L4.12305 14.9043L4.12837 13.0988L11.8193 17.5899Z" fill="#7AC9FF"/>
    <path d="M15.0436 17.59L15.0383 19.3962C14.8853 19.4863 14.7165 19.5602 14.537 19.6194L14.5423 17.8133C14.7225 17.7541 14.8913 17.6795 15.0436 17.59ZM14.5423 17.8133L14.537 19.6194C14.3956 19.6651 14.2515 19.7015 14.1055 19.7283L14.1108 17.9222C14.2591 17.8946 14.404 17.8583 14.5423 17.8133ZM14.1108 17.9215L14.1055 19.7277C14.0092 19.7451 13.9123 19.7588 13.8149 19.7687L13.8203 17.9626C13.9187 17.9531 14.0157 17.939 14.1108 17.9215Z" fill="#7AC9FF"/>
    <path d="M13.8203 17.9619L13.815 19.768C13.7312 19.7767 13.6472 19.7823 13.563 19.7849L13.5683 17.9787C13.6525 17.9762 13.7365 17.9706 13.8203 17.9619Z" fill="#7AC9FF"/>
    <path d="M13.5681 17.9786L13.5628 19.7848C13.4852 19.7876 13.4076 19.788 13.3301 19.7861L13.3354 17.98C13.4132 17.982 13.491 17.9813 13.5681 17.9786Z" fill="#7AC9FF"/>
    <path d="M13.3353 17.9809L13.33 19.787C13.2552 19.785 13.1805 19.7809 13.106 19.7749L13.1113 17.9688C13.1857 17.9748 13.2609 17.9788 13.3353 17.9809Z" fill="#7AC9FF"/>
    <path d="M13.1115 17.9682L13.1062 19.7744C13.0321 19.7681 12.9583 19.7599 12.8848 19.7495L12.8901 17.9434C12.9639 17.9534 13.0377 17.9622 13.1115 17.9682Z" fill="#7AC9FF"/>
    <path d="M12.891 17.944L12.8857 19.7501C12.81 19.7393 12.7346 19.726 12.6597 19.7104L12.665 17.9043C12.7394 17.9198 12.8146 17.9332 12.891 17.944Z" fill="#7AC9FF"/>
    <path d="M12.6647 17.9039L12.6594 19.71C12.5793 19.6935 12.4999 19.6737 12.4214 19.6509L12.4267 17.8447C12.5045 17.8669 12.5843 17.8871 12.6647 17.9039Z" fill="#7AC9FF"/>
    <path d="M12.4266 17.8448L12.4213 19.6509C12.3274 19.6239 12.2349 19.5923 12.144 19.5561L12.1494 17.75C12.2391 17.7856 12.3315 17.8172 12.4266 17.8448Z" fill="#7AC9FF"/>
    <path d="M12.1492 17.7501L12.1439 19.5562C12.03 19.5112 11.9196 19.4577 11.8135 19.3962L11.8188 17.59C11.9225 17.6505 12.0329 17.7037 12.1492 17.7501Z" fill="#7AC9FF"/>
    <path d="M22.3274 11.4135C23.2223 11.9359 23.2223 12.7825 22.338 13.3023L15.0434 17.5897C14.1545 18.1122 12.7137 18.1122 11.8189 17.5897L4.12728 13.0986C3.2324 12.5761 3.22309 11.7295 4.11199 11.207L11.4067 6.91965C12.2909 6.39987 13.7409 6.39987 14.6358 6.92234L22.3274 11.4135Z" fill="url(#paint0_linear_258_44594)"/>
    <path d="M22.3274 11.4135C23.2223 11.9359 23.2223 12.7825 22.338 13.3023L15.0434 17.5897C14.1545 18.1122 12.7137 18.1122 11.8189 17.5897L4.12728 13.0986C3.2324 12.5761 3.22309 11.7295 4.11199 11.207L11.4067 6.91965C12.2909 6.39987 13.7409 6.39987 14.6358 6.92234L22.3274 11.4135Z" fill="url(#paint1_linear_258_44594)"/>
    <path d="M22.3274 11.4135C23.2223 11.9359 23.2223 12.7825 22.338 13.3023L15.0434 17.5897C14.1545 18.1122 12.7137 18.1122 11.8189 17.5897L4.12728 13.0986C3.2324 12.5761 3.22309 11.7295 4.11199 11.207L11.4067 6.91965C12.2909 6.39987 13.7409 6.39987 14.6358 6.92234L22.3274 11.4135Z" fill="url(#paint2_linear_258_44594)"/>
    <path d="M22.0523 11.8845L22.0524 11.8845C22.3989 12.0868 22.4541 12.278 22.4544 12.361C22.4547 12.4434 22.4017 12.6321 22.0616 12.8321C22.0616 12.8321 22.0616 12.8321 22.0616 12.8321L14.767 17.1194L14.767 17.1194C14.4257 17.32 13.9446 17.4361 13.4333 17.4361C12.9223 17.4361 12.4389 17.3201 12.0939 17.1187C12.0939 17.1186 12.0939 17.1186 12.0939 17.1186L4.40232 12.6275L4.4023 12.6275C4.05442 12.4244 3.9969 12.2319 3.99615 12.1479C3.99542 12.0666 4.04631 11.8783 4.38838 11.6773L11.683 7.3899L11.6831 7.38988C12.0212 7.19113 12.503 7.07531 13.0169 7.07561C13.5305 7.0759 14.0161 7.19216 14.3608 7.39338C14.3608 7.39338 14.3608 7.39339 14.3608 7.39339L22.0523 11.8845Z" stroke="url(#paint3_linear_258_44594)" stroke-opacity="0.13" stroke-width="1.09091"/>
    <path d="M19.1297 6.06863L18.5938 5.77411C18.4117 5.67392 18.2913 5.4695 18.292 5.21869L18.8279 5.51388C18.8272 5.7647 18.9475 5.96844 19.1297 6.06863Z" fill="#4DB4F6"/>
    <path d="M18.8279 5.51359L18.292 5.21907L18.2933 4.41687L18.8292 4.71206L18.8279 5.51359Z" fill="#4DB4F6"/>
    <path d="M18.8294 4.71158L18.2935 4.41638C18.2942 4.02234 18.1054 3.7016 17.8208 3.54492L18.3567 3.84012C18.6412 3.99679 18.83 4.31687 18.8294 4.71158Z" fill="#4DB4F6"/>
    <path d="M17.8166 2.31695L17.2808 2.02176C17.564 1.98141 17.8352 1.99823 18.0859 2.06345L18.6218 2.35864C18.3587 2.29103 18.0851 2.27686 17.8166 2.31695ZM18.6218 2.35797L18.0859 2.06278C18.2142 2.0964 18.3372 2.14212 18.4535 2.19995L18.9894 2.49515C18.8717 2.43721 18.7485 2.39126 18.6218 2.35797Z" fill="url(#paint4_linear_258_44594)"/>
    <path d="M18.9895 2.49618L18.4536 2.20099L18.5248 2.23797L19.0606 2.53317C19.0367 2.52039 19.0134 2.50761 18.9895 2.49618Z" fill="#FFC0E9"/>
    <path d="M6.30002 20.2096L5.76416 19.9144C5.83908 19.9033 5.91545 19.9071 5.98888 19.9259L6.52474 20.2211C6.45131 20.2023 6.37494 20.1984 6.30002 20.2096Z" fill="#4DB4F6"/>
    <path d="M6.52512 20.2231L5.98926 19.9279C6.02512 19.9371 6.0599 19.9502 6.09297 19.9669L6.62884 20.2621C6.59576 20.2453 6.56099 20.2323 6.52512 20.2231ZM6.62884 20.2614L6.09297 19.9662L6.11292 19.977L6.64878 20.2722C6.64243 20.2681 6.63576 20.2645 6.62884 20.2614Z" fill="#626262"/>
    <path d="M3.86075 20.5582L3.32422 20.263L5.7642 19.916L6.30006 20.2112L3.86075 20.5582Z" fill="#4DB4F6"/>
    <path d="M3.31858 20.463L2.78271 20.1678L2.81396 20.184L3.34983 20.4792L3.31858 20.463ZM3.34983 20.4792L2.81396 20.184C2.86516 20.2095 2.91901 20.2297 2.97485 20.2438L3.51072 20.539C3.4551 20.525 3.40115 20.505 3.34983 20.4792Z" fill="#FFC0E9"/>
    <path d="M3.51047 20.5403L2.97461 20.2451C3.08364 20.2734 3.20199 20.2808 3.32498 20.2633L3.86085 20.5585C3.74401 20.5756 3.62497 20.5695 3.51047 20.5403Z" fill="#4DB4F6"/>
    <path d="M2.6169 21.7714L2.08104 21.4762C1.43148 21.1184 1.00133 20.3868 1 19.4824L1.53586 19.7776C1.53719 20.682 1.96735 21.4136 2.6169 21.7714Z" fill="#4DB4F6"/>
    <path d="M3.89053 4.29636L3.354 4.00116L17.2805 2.02155L17.8164 2.31674L3.89053 4.29636Z" fill="url(#paint5_linear_258_44594)"/>
    <path d="M1.53586 19.7789L1 19.4837L1.02327 6.87305L1.55913 7.16757L1.53586 19.7789Z" fill="url(#paint6_linear_258_44594)"/>
    <path d="M17.8167 2.31671C19.1025 2.13382 20.141 3.12228 20.1383 4.52563L20.137 5.32783C20.1363 5.71851 19.8438 6.07893 19.4808 6.13071C19.1184 6.18248 18.8266 5.90477 18.8272 5.51409L18.8286 4.71189C18.8299 4.09999 18.3738 3.66627 17.8133 3.74629L3.88818 5.72524C3.32771 5.80525 2.86963 6.36875 2.8683 6.98065L2.8457 19.5913C2.84437 20.2032 3.30045 20.6369 3.86092 20.5569L6.30023 20.2099C6.65792 20.1588 6.95444 20.4359 6.95377 20.8313C6.95311 21.2266 6.65592 21.5877 6.29757 21.6388L3.85826 21.9858C2.57245 22.1687 1.53862 21.1796 1.53662 19.7769L1.55923 7.16624C1.56654 5.76222 2.60503 4.47856 3.89017 4.29566L17.8167 2.31671Z" fill="url(#paint7_linear_258_44594)"/>
    <path d="M17.8167 2.31671C19.1025 2.13382 20.141 3.12228 20.1383 4.52563L20.137 5.32783C20.1363 5.71851 19.8438 6.07893 19.4808 6.13071C19.1184 6.18248 18.8266 5.90477 18.8272 5.51409L18.8286 4.71189C18.8299 4.09999 18.3738 3.66627 17.8133 3.74629L3.88818 5.72524C3.32771 5.80525 2.86963 6.36875 2.8683 6.98065L2.8457 19.5913C2.84437 20.2032 3.30045 20.6369 3.86092 20.5569L6.30023 20.2099C6.65792 20.1588 6.95444 20.4359 6.95377 20.8313C6.95311 21.2266 6.65592 21.5877 6.29757 21.6388L3.85826 21.9858C2.57245 22.1687 1.53862 21.1796 1.53662 19.7769L1.55923 7.16624C1.56654 5.76222 2.60503 4.47856 3.89017 4.29566L17.8167 2.31671Z" fill="url(#paint8_linear_258_44594)"/>
    <path d="M17.8167 2.31671C19.1025 2.13382 20.141 3.12228 20.1383 4.52563L20.137 5.32783C20.1363 5.71851 19.8438 6.07893 19.4808 6.13071C19.1184 6.18248 18.8266 5.90477 18.8272 5.51409L18.8286 4.71189C18.8299 4.09999 18.3738 3.66627 17.8133 3.74629L3.88818 5.72524C3.32771 5.80525 2.86963 6.36875 2.8683 6.98065L2.8457 19.5913C2.84437 20.2032 3.30045 20.6369 3.86092 20.5569L6.30023 20.2099C6.65792 20.1588 6.95444 20.4359 6.95377 20.8313C6.95311 21.2266 6.65592 21.5877 6.29757 21.6388L3.85826 21.9858C2.57245 22.1687 1.53862 21.1796 1.53662 19.7769L1.55923 7.16624C1.56654 5.76222 2.60503 4.47856 3.89017 4.29566L17.8167 2.31671Z" fill="url(#paint9_linear_258_44594)"/>
    <path d="M19.374 4.71308C19.3759 3.81956 18.6742 3.07261 17.7366 3.20626C17.7365 3.20628 17.7364 3.20629 17.7362 3.20631L3.81143 5.18521L3.81108 5.18526C2.95129 5.30801 2.3247 6.12912 2.32285 6.97947L2.32285 6.97968L2.30025 19.5901C2.30025 19.5902 2.30025 19.5902 2.30025 19.5903C2.29838 20.4838 3.00028 21.2308 3.93801 21.0969L6.37704 20.75L6.37738 20.7499C6.382 20.7492 6.38494 20.7493 6.38651 20.7494C6.38654 20.7494 6.38658 20.7495 6.38662 20.7495C6.38778 20.7506 6.40842 20.7709 6.40832 20.8303C6.40806 20.9851 6.28138 21.0902 6.22056 21.0988L3.78144 21.4458C2.87492 21.5747 2.08406 20.9012 2.08208 19.7769C2.08208 19.7767 2.08208 19.7764 2.08208 19.7761L2.10467 7.16908C2.10467 7.16879 2.10468 7.1685 2.10468 7.16821C2.1112 5.99991 2.98322 4.97576 3.96691 4.83569C3.96695 4.83569 3.96698 4.83568 3.96702 4.83567L17.8934 2.85674L17.8935 2.85673C18.802 2.7275 19.595 3.40265 19.5928 4.5246V4.52473L19.5915 5.32693C19.5913 5.47705 19.4691 5.5814 19.4037 5.59072L19.4036 5.59074C19.3978 5.59157 19.3941 5.59154 19.3921 5.59138M19.374 4.71308L18.8286 4.71189L19.374 4.71279V4.71308ZM19.374 4.71308L19.3727 5.51502C19.3726 5.56676 19.3886 5.5875 19.3921 5.59138M19.3921 5.59138C19.39 5.59122 19.3897 5.59092 19.3907 5.59126C19.3921 5.59169 19.3929 5.59232 19.3929 5.5923C19.3929 5.59229 19.3929 5.59223 19.3927 5.59207C19.3927 5.59207 19.3925 5.59185 19.3921 5.59138Z" stroke="url(#paint10_linear_258_44594)" stroke-opacity="0.13" stroke-width="1.09091"/>
    <path d="M1.5593 7.16667L1.02344 6.87215C1.02599 6.53099 1.08718 6.19288 1.20428 5.87292L1.74014 6.16745C1.62309 6.48741 1.56191 6.82552 1.5593 7.16667Z" fill="#46A0E5"/>
    <path d="M1.73997 6.16702L1.2041 5.87249C1.25377 5.73578 1.31287 5.60276 1.38095 5.47442L1.91681 5.76961C1.849 5.89737 1.78983 6.02984 1.73997 6.16702ZM1.91681 5.76961L1.38095 5.47442C1.43816 5.36691 1.50166 5.26295 1.5711 5.16309L2.10696 5.45828C2.03782 5.55713 1.97399 5.66135 1.91681 5.76961Z" fill="#46A0E5"/>
    <path d="M2.10667 5.45814L1.5708 5.16362C1.63596 5.07016 1.70576 4.98005 1.78023 4.89465L2.31609 5.18985C2.24163 5.27457 2.17182 5.36468 2.10667 5.45814Z" fill="#46A0E5"/>
    <path d="M2.31631 5.18975L1.77979 4.89455C1.85411 4.80941 1.93313 4.72859 2.01647 4.65248L2.55233 4.94768C2.46921 5.0238 2.39041 5.10462 2.31631 5.18975ZM2.553 4.94768L2.01713 4.65248C2.10622 4.57112 2.19997 4.49648 2.2977 4.42789L2.83356 4.72309C2.73525 4.79161 2.64152 4.86663 2.553 4.94768ZM2.83356 4.72309L2.2977 4.42789C2.41737 4.34384 2.54369 4.27054 2.67467 4.20801L3.21053 4.5032C3.07894 4.56556 2.95283 4.63912 2.83356 4.72309Z" fill="#46A0E5"/>
    <path d="M3.21067 4.50358L2.6748 4.20839C2.88976 4.10546 3.11882 4.03587 3.35428 4.00195L3.89014 4.29715C3.65412 4.33077 3.42541 4.40137 3.21067 4.50358Z" fill="#46A0E5"/>
    <defs>
        <linearGradient id="paint0_linear_258_44594" x1="2.9447" y1="7.2389" x2="4.93432" y2="19.7086" gradientUnits="userSpaceOnUse">
            <stop stop-color="#68F5FE"/>
            <stop offset="0.401661" stop-color="#68F5FE"/>
            <stop offset="0.684818" stop-color="#7EE2F9"/>
            <stop offset="1" stop-color="#7EE2F9"/>
        </linearGradient>
        <linearGradient id="paint1_linear_258_44594" x1="4.18734" y1="6.99932" x2="4.67133" y2="12.2712" gradientUnits="userSpaceOnUse">
            <stop stop-color="#F4F3F1"/>
            <stop offset="0.882503" stop-color="#F4F3F1" stop-opacity="0"/>
        </linearGradient>
        <linearGradient id="paint2_linear_258_44594" x1="10.1342" y1="12.2558" x2="11.2386" y2="17.8767" gradientUnits="userSpaceOnUse">
            <stop stop-color="#897BC8" stop-opacity="0"/>
            <stop offset="1" stop-color="#897BC8"/>
        </linearGradient>
        <linearGradient id="paint3_linear_258_44594" x1="13.2253" y1="6.53015" x2="13.3994" y2="17.3855" gradientUnits="userSpaceOnUse">
            <stop offset="0.228134" stop-color="#FFF5FD" stop-opacity="0"/>
            <stop offset="1" stop-color="#FFF5FD"/>
        </linearGradient>
        <linearGradient id="paint4_linear_258_44594" x1="17.5" y1="2" x2="19" y2="2" gradientUnits="userSpaceOnUse">
            <stop stop-color="#19428D"/>
            <stop offset="1" stop-color="#4DB4F6"/>
        </linearGradient>
        <linearGradient id="paint5_linear_258_44594" x1="9.5" y1="1.00006" x2="9.62562" y2="4.11594" gradientUnits="userSpaceOnUse">
            <stop stop-color="#425AA2"/>
            <stop offset="0.382047" stop-color="#0C2774"/>
            <stop offset="1" stop-color="#4FB4F8"/>
        </linearGradient>
        <linearGradient id="paint6_linear_258_44594" x1="1.5" y1="7" x2="1.27957" y2="19.7789" gradientUnits="userSpaceOnUse">
            <stop stop-color="#46A0E5"/>
            <stop offset="1" stop-color="#4DB4F6"/>
        </linearGradient>
        <linearGradient id="paint7_linear_258_44594" x1="1.05517" y1="3.51497" x2="6.92034" y2="23.8341" gradientUnits="userSpaceOnUse">
            <stop stop-color="#68F5FE"/>
            <stop offset="0.401661" stop-color="#68F5FE"/>
            <stop offset="0.684818" stop-color="#7EE2F9"/>
            <stop offset="1" stop-color="#7EE2F9"/>
        </linearGradient>
        <linearGradient id="paint8_linear_258_44594" x1="2.23757" y1="3.10256" x2="3.71675" y2="12.0084" gradientUnits="userSpaceOnUse">
            <stop stop-color="#F4F3F1"/>
            <stop offset="0.882503" stop-color="#F4F3F1" stop-opacity="0"/>
        </linearGradient>
        <linearGradient id="paint9_linear_258_44594" x1="7.89621" y1="12.1513" x2="11.0676" y2="21.0733" gradientUnits="userSpaceOnUse">
            <stop stop-color="#897BC8" stop-opacity="0"/>
            <stop offset="1" stop-color="#897BC8"/>
        </linearGradient>
        <linearGradient id="paint10_linear_258_44594" x1="10.8375" y1="2.29492" x2="11.3794" y2="20.9706" gradientUnits="userSpaceOnUse">
            <stop offset="0.228134" stop-color="#FFF5FD" stop-opacity="0"/>
            <stop offset="1" stop-color="#FFF5FD"/>
        </linearGradient>
    </defs>
</svg>
