<svg width="16" height="16" viewBox="0 0 16 16" fill="none" xmlns="http://www.w3.org/2000/svg">
    <path d="M10.1537 16C9.85616 16 9.61519 15.7708 9.61519 15.4878V7.29253C9.61519 7.17036 9.66105 7.05207 9.74477 6.95921L13.2906 3.02415H2.70925L6.25504 6.95921C6.33858 7.05207 6.38462 7.17036 6.38462 7.29253V11.861L7.65907 13.0734C7.8694 13.2734 7.8694 13.5977 7.65907 13.7976C7.44873 13.9976 7.1077 13.9976 6.89737 13.7976L5.46513 12.4352C5.36423 12.3391 5.30754 12.2089 5.30752 12.0731V7.48196L1.12961 2.84531C0.992803 2.69343 0.961416 2.47973 1.04923 2.29801C1.13712 2.11629 1.32826 1.99989 1.53859 2H14.4614C14.6717 2 14.863 2.11634 14.9508 2.29801C15.0386 2.47973 15.0072 2.69343 14.8704 2.84531L10.6923 7.48196V15.4878C10.6923 15.7707 10.4511 16 10.1537 16Z" fill="#999999"/>
</svg>
