<svg width="24" height="24" viewBox="0 0 24 24" fill="none" xmlns="http://www.w3.org/2000/svg">
    <path d="M20.9002 9.79888L19.2624 8.88904C19.2428 8.87845 19.2245 8.86565 19.2077 8.85088C19.1315 8.78916 19.0502 8.73417 18.9648 8.68652L20.6027 9.59637C20.6882 9.64406 20.7701 9.69909 20.8456 9.76073C20.8623 9.7755 20.8806 9.7883 20.9002 9.79888Z" fill="#FFC0E9"/>
    <path d="M3.55603 22.7952L1.91821 21.8853C1.36557 21.5786 0.999055 20.9506 1.00049 20.1779L2.63831 21.0878C2.63687 21.8611 3.00338 22.4885 3.55603 22.7952Z" fill="url(#paint0_linear_258_44593)"/>
    <path d="M12.7843 1.96453L11.1465 1.05469C11.2543 1.08321 11.3591 1.12279 11.4591 1.17282L13.0969 2.08266C12.9967 2.03307 12.892 1.9935 12.7843 1.96453Z" fill="#47A2E7"/>
    <path d="M13.0968 2.08373L11.459 1.17389L11.5186 1.20544L13.1564 2.11528C13.1368 2.10434 13.1169 2.09382 13.0968 2.08373Z" fill="#FFC0E9"/>
    <path fill-rule="evenodd" clip-rule="evenodd" d="M12.0983 1.92804L10.4604 1.0182C10.6926 0.985177 10.9247 0.996917 11.146 1.05488L12.7839 1.96473C12.56 1.90622 12.3269 1.89375 12.0983 1.92804ZM11.0118 2.4439L9.37402 1.53406C9.43727 1.47903 9.50194 1.42767 9.56806 1.38071C9.66827 1.30983 9.77403 1.24749 9.88427 1.19434L9.88599 1.1953C10.073 1.10551 10.2665 1.04635 10.4599 1.01855L12.0977 1.9284C11.9037 1.95628 11.7097 2.01571 11.5221 2.10596L11.5204 2.10501C11.4132 2.15694 11.3081 2.21902 11.2059 2.29055C11.1388 2.3384 11.074 2.38958 11.0118 2.4439Z" fill="url(#paint1_linear_258_44593)"/>
    <path d="M2.63853 21.0879L1 20.1781L1.01869 9.97754L2.6565 10.8874L2.63853 21.0879Z" fill="url(#paint2_linear_258_44593)"/>
    <path d="M3.54625 8.94616L1.90771 8.03632L9.37238 1.53607L11.0109 2.44592L3.54625 8.94616Z" fill="url(#paint3_linear_258_44593)"/>
    <path d="M2.65637 10.8876L1.01855 9.97773C1.01927 9.68717 1.07245 9.39588 1.17163 9.11999L2.80944 10.0298C2.71024 10.3046 2.65845 10.5948 2.65637 10.8876ZM2.81016 10.0298L1.17235 9.11999C1.21403 9.00332 1.26433 8.88959 1.32183 8.78026L2.95964 9.69011C2.90215 9.79944 2.85184 9.91317 2.81016 10.0298ZM2.95964 9.69011L1.32183 8.78026C1.36998 8.68855 1.42388 8.59976 1.48209 8.51465L3.1199 9.42449C3.06144 9.50975 3.00792 9.59844 2.95964 9.69011Z" fill="#4CB0F3"/>
    <path fill-rule="evenodd" clip-rule="evenodd" d="M1.6582 8.28797L3.29602 9.19781C3.35786 9.12586 3.42386 9.05775 3.49365 8.99383L1.85583 8.08398C1.78604 8.1479 1.72005 8.21602 1.6582 8.28797ZM1.48242 8.51481L3.12024 9.42466C3.17464 9.34591 3.23317 9.27022 3.29559 9.19793L1.65777 8.28809C1.59525 8.35999 1.53632 8.4363 1.48242 8.51481Z" fill="#449EE3"/>
    <path d="M3.4928 8.99269L1.85498 8.08285C1.87295 8.06671 1.89019 8.05056 1.90888 8.03516L3.54669 8.945C3.52801 8.96041 3.51076 8.97655 3.4928 8.99269Z" fill="#46A1E6"/>
    <path d="M12.0983 1.92856C12.4738 1.87076 12.8574 1.9431 13.1878 2.13401L20.6331 6.49465C21.185 6.8153 21.5177 7.45219 21.5163 8.18153L21.5141 9.33645C21.5134 9.60353 21.3187 9.80825 21.1124 9.83759C21.0653 9.84488 21.0171 9.84192 20.9712 9.8289C20.9253 9.81587 20.8825 9.79308 20.8458 9.76202C20.6653 9.61569 20.4573 9.5088 20.2346 9.44796C20.012 9.38712 19.7795 9.37364 19.5515 9.40836L10.9564 10.6418C9.87984 10.7966 8.99733 11.8994 8.99518 13.0859L8.98224 20.1907C8.98152 20.7366 9.16478 21.2114 9.46877 21.5482C9.69874 21.8006 9.51333 22.2775 9.16837 22.3267L4.60923 22.9812C3.52118 23.1375 2.63652 22.2878 2.63868 21.0888L2.65736 10.8876C2.66195 10.518 2.74368 10.1536 2.8971 9.81886C3.05052 9.48407 3.2721 9.18653 3.54706 8.9461L11.0117 2.44585C11.3179 2.17076 11.6951 1.99121 12.0983 1.92856Z" fill="url(#paint4_linear_258_44593)"/>
    <path d="M12.0983 1.92856C12.4738 1.87076 12.8574 1.9431 13.1878 2.13401L20.6331 6.49465C21.185 6.8153 21.5177 7.45219 21.5163 8.18153L21.5141 9.33645C21.5134 9.60353 21.3187 9.80825 21.1124 9.83759C21.0653 9.84488 21.0171 9.84192 20.9712 9.8289C20.9253 9.81587 20.8825 9.79308 20.8458 9.76202C20.6653 9.61569 20.4573 9.5088 20.2346 9.44796C20.012 9.38712 19.7795 9.37364 19.5515 9.40836L10.9564 10.6418C9.87984 10.7966 8.99733 11.8994 8.99518 13.0859L8.98224 20.1907C8.98152 20.7366 9.16478 21.2114 9.46877 21.5482C9.69874 21.8006 9.51333 22.2775 9.16837 22.3267L4.60923 22.9812C3.52118 23.1375 2.63652 22.2878 2.63868 21.0888L2.65736 10.8876C2.66195 10.518 2.74368 10.1536 2.8971 9.81886C3.05052 9.48407 3.2721 9.18653 3.54706 8.9461L11.0117 2.44585C11.3179 2.17076 11.6951 1.99121 12.0983 1.92856Z" fill="url(#paint5_linear_258_44593)"/>
    <path d="M12.0983 1.92856C12.4738 1.87076 12.8574 1.9431 13.1878 2.13401L20.6331 6.49465C21.185 6.8153 21.5177 7.45219 21.5163 8.18153L21.5141 9.33645C21.5134 9.60353 21.3187 9.80825 21.1124 9.83759C21.0653 9.84488 21.0171 9.84192 20.9712 9.8289C20.9253 9.81587 20.8825 9.79308 20.8458 9.76202C20.6653 9.61569 20.4573 9.5088 20.2346 9.44796C20.012 9.38712 19.7795 9.37364 19.5515 9.40836L10.9564 10.6418C9.87984 10.7966 8.99733 11.8994 8.99518 13.0859L8.98224 20.1907C8.98152 20.7366 9.16478 21.2114 9.46877 21.5482C9.69874 21.8006 9.51333 22.2775 9.16837 22.3267L4.60923 22.9812C3.52118 23.1375 2.63652 22.2878 2.63868 21.0888L2.65736 10.8876C2.66195 10.518 2.74368 10.1536 2.8971 9.81886C3.05052 9.48407 3.2721 9.18653 3.54706 8.9461L11.0117 2.44585C11.3179 2.17076 11.6951 1.99121 12.0983 1.92856Z" fill="url(#paint6_linear_258_44593)"/>
    <path d="M9.46877 21.5482C9.69874 21.8006 9.51333 22.2775 9.16837 22.3267L8.98224 20.1907C8.98152 20.7366 9.16478 21.2114 9.46877 21.5482ZM20.3574 6.96532L20.3591 6.96629C20.7152 7.17316 20.972 7.61185 20.9709 8.18046V8.18051L20.969 9.18088C20.7861 9.06633 20.5873 8.97887 20.3784 8.92179C20.0831 8.8411 19.7745 8.82301 19.4718 8.86874C19.471 8.86887 19.4702 8.86899 19.4694 8.86912L10.8789 10.1019L10.8787 10.1019C9.49773 10.3005 8.4523 11.666 8.44973 13.0849L8.43679 20.1897L8.43679 20.19C8.43598 20.8052 8.62663 21.37 8.97102 21.804L4.53172 22.4412L4.53167 22.4413C3.82678 22.5425 3.18247 22.0133 3.18413 21.0898L3.20281 10.8916C3.20682 10.5988 3.27177 10.3106 3.39297 10.0461C3.51445 9.78099 3.68947 9.54626 3.90568 9.35708C3.90582 9.35696 3.90597 9.35683 3.90611 9.3567L11.3699 2.8572L11.37 2.85725L11.3762 2.85162C11.6044 2.64665 11.8841 2.51393 12.1817 2.46761C12.4332 2.42898 12.6907 2.4771 12.9137 2.6056C12.9141 2.60583 12.9145 2.60607 12.915 2.60631L20.3574 6.96532Z" stroke="url(#paint7_linear_258_44593)" stroke-opacity="0.13" stroke-width="1.09091"/>
    <path d="M20.9547 14.6612L19.3169 13.7513C19.4377 13.7331 19.5608 13.7396 19.6791 13.7704L21.3169 14.6802C21.1985 14.6501 21.0755 14.6437 20.9547 14.6612Z" fill="url(#paint8_linear_258_44593)"/>
    <path d="M21.317 14.6794L19.6792 13.7696C19.7374 13.785 19.7927 13.8063 19.8459 13.8327L21.4837 14.7425C21.4304 14.7159 21.3745 14.6947 21.317 14.6794Z" fill="#48A5E9"/>
    <path d="M21.484 14.7418L19.8462 13.832L19.8785 13.8488L21.5163 14.7587C21.5057 14.7528 21.4949 14.7471 21.484 14.7418Z" fill="url(#paint9_linear_258_44593)"/>
    <path d="M15.2188 21.6767L13.581 20.7668C13.5151 20.7301 13.4542 20.6847 13.3999 20.6318L15.0377 21.5417C15.0938 21.596 15.1541 21.6407 15.2188 21.6767Z" fill="#4BAFF2"/>
    <path d="M14.6105 15.5726L12.9727 14.6628L19.3169 13.7522L20.9548 14.662L14.6105 15.5726Z" fill="url(#paint10_linear_258_44593)"/>
    <path d="M15.7926 11.3296L14.1548 10.4197C14.2777 10.4021 14.4006 10.408 14.517 10.4388L16.1548 11.3487C16.0365 11.318 15.9134 11.3116 15.7926 11.3296Z" fill="#48A5E9"/>
    <path d="M16.1549 11.3474L14.5171 10.4376C14.5724 10.4522 14.627 10.4728 14.6788 10.4985L16.3166 11.4083C16.2648 11.3825 16.2107 11.3621 16.1549 11.3474ZM16.3173 11.4083L14.6795 10.4985L14.7104 10.5146L16.3482 11.4244L16.3173 11.4083Z" fill="#48A5E9"/>
    <path d="M15.0558 11.7723L13.418 10.8624L13.4539 10.8192L15.0917 11.729C15.0794 11.7431 15.0674 11.7575 15.0558 11.7723Z" fill="#47A4E8"/>
    <path d="M15.0909 11.7287L13.4531 10.8189C13.4862 10.7807 13.5207 10.7447 13.5573 10.7117L15.1951 11.6216C15.1583 11.6551 15.1235 11.6908 15.0909 11.7287Z" fill="#48A5E9"/>
    <path d="M15.1949 11.6211L13.5571 10.7112C13.5967 10.6746 13.6383 10.6415 13.6807 10.6115L15.3186 11.5213C15.2754 11.552 15.2341 11.5853 15.1949 11.6211Z" fill="#48A5E9"/>
    <path d="M15.3185 11.5216L13.6807 10.6118C13.7346 10.5736 13.7906 10.5406 13.8481 10.5135L15.4859 11.4233C15.4284 11.4505 15.3731 11.4835 15.3185 11.5216ZM15.4859 11.4226L13.8481 10.5127C13.948 10.4651 14.0515 10.4328 14.155 10.4181L15.7928 11.3279C15.6865 11.344 15.5831 11.3759 15.4859 11.4226Z" fill="#48A5E9"/>
    <path d="M15.0377 21.542L13.3999 20.6321L9.7168 17.0947L11.3553 18.0046L15.0377 21.542Z" fill="url(#paint11_linear_258_44593)"/>
    <path d="M11.3549 18.0048L9.71704 17.095C9.61767 16.9992 9.5395 16.8829 9.48779 16.7538L11.1256 17.6636C11.1709 17.784 11.2456 17.894 11.3549 18.0048Z" fill="url(#paint12_linear_258_44593)"/>
    <path d="M11.1254 17.6638L9.48757 16.7539L9.47607 16.718L11.1139 17.6278L11.1254 17.6638Z" fill="url(#paint13_linear_258_44593)"/>
    <path d="M11.1137 17.6286L9.47584 16.7187C9.38566 16.4571 9.38566 16.1718 9.47584 15.9102L11.1137 16.82C11.0235 17.0817 11.0235 17.3669 11.1137 17.6286Z" fill="url(#paint14_linear_258_44593)"/>
    <path d="M11.1146 16.8178L9.47607 15.908L9.47751 15.9043L11.1153 16.8141L11.1146 16.8178Z" fill="#FFC0E9"/>
    <path d="M11.3353 16.3968L9.69678 15.4869L13.4173 10.8621L15.0558 11.772L11.3353 16.3968Z" fill="url(#paint15_linear_258_44593)"/>
    <path d="M11.1154 16.8157L9.47754 15.9058L9.48904 15.8662L11.1276 16.7761L11.1154 16.8157Z" fill="url(#paint16_linear_258_44593)"/>
    <path d="M15.7922 11.3291C16.0595 11.2909 16.3276 11.365 16.5281 11.5609C16.9363 11.9462 16.9348 12.6821 16.5252 13.1847L14.61 15.5716L20.9543 14.661C21.5299 14.5781 22.0014 15.0242 21.9999 15.6589C21.9985 16.2936 21.5256 16.8747 20.95 16.9576L14.6057 17.8682L16.513 19.7062C16.9212 20.0915 16.9197 20.8274 16.5101 21.33C16.3082 21.5839 16.0401 21.735 15.7728 21.7732C15.5054 21.8114 15.2374 21.7372 15.0361 21.5413L11.3538 18.0047C11.2544 17.9089 11.1762 17.7926 11.1245 17.6635L11.113 17.6268C11.0224 17.3641 11.0229 17.0776 11.1144 16.8153L11.1259 16.7757C11.1753 16.6391 11.2454 16.5113 11.3336 16.3971L15.0541 11.7723C15.2368 11.535 15.5003 11.3768 15.7922 11.3291Z" fill="url(#paint17_linear_258_44593)"/>
    <path d="M15.7922 11.3291C16.0595 11.2909 16.3276 11.365 16.5281 11.5609C16.9363 11.9462 16.9348 12.6821 16.5252 13.1847L14.61 15.5716L20.9543 14.661C21.5299 14.5781 22.0014 15.0242 21.9999 15.6589C21.9985 16.2936 21.5256 16.8747 20.95 16.9576L14.6057 17.8682L16.513 19.7062C16.9212 20.0915 16.9197 20.8274 16.5101 21.33C16.3082 21.5839 16.0401 21.735 15.7728 21.7732C15.5054 21.8114 15.2374 21.7372 15.0361 21.5413L11.3538 18.0047C11.2544 17.9089 11.1762 17.7926 11.1245 17.6635L11.113 17.6268C11.0224 17.3641 11.0229 17.0776 11.1144 16.8153L11.1259 16.7757C11.1753 16.6391 11.2454 16.5113 11.3336 16.3971L15.0541 11.7723C15.2368 11.535 15.5003 11.3768 15.7922 11.3291Z" fill="url(#paint18_linear_258_44593)"/>
    <path d="M15.7922 11.3291C16.0595 11.2909 16.3276 11.365 16.5281 11.5609C16.9363 11.9462 16.9348 12.6821 16.5252 13.1847L14.61 15.5716L20.9543 14.661C21.5299 14.5781 22.0014 15.0242 21.9999 15.6589C21.9985 16.2936 21.5256 16.8747 20.95 16.9576L14.6057 17.8682L16.513 19.7062C16.9212 20.0915 16.9197 20.8274 16.5101 21.33C16.3082 21.5839 16.0401 21.735 15.7728 21.7732C15.5054 21.8114 15.2374 21.7372 15.0361 21.5413L11.3538 18.0047C11.2544 17.9089 11.1762 17.7926 11.1245 17.6635L11.113 17.6268C11.0224 17.3641 11.0229 17.0776 11.1144 16.8153L11.1259 16.7757C11.1753 16.6391 11.2454 16.5113 11.3336 16.3971L15.0541 11.7723C15.2368 11.535 15.5003 11.3768 15.7922 11.3291Z" fill="url(#paint19_linear_258_44593)"/>
    <path d="M21.4545 15.6577C21.4536 16.0551 21.1481 16.378 20.8722 16.4177C20.8722 16.4177 20.8722 16.4177 20.8722 16.4177L14.5282 17.3283L13.4238 17.4868L14.2272 18.261L16.1345 20.099L16.1345 20.099L16.1386 20.1029C16.2922 20.2479 16.3599 20.6509 16.0873 20.9854L16.0873 20.9854L16.0832 20.9905C15.9613 21.1438 15.8148 21.2162 15.6957 21.2332C15.5798 21.2498 15.4856 21.2177 15.4166 21.1505L15.414 21.1479L11.7322 17.6119C11.7321 17.6118 11.732 17.6117 11.7319 17.6116C11.6926 17.5737 11.6604 17.5278 11.6374 17.4763L11.6335 17.4637L11.6312 17.4563L11.6286 17.4489C11.578 17.3021 11.5783 17.1416 11.6294 16.995L11.6342 16.9813L11.6383 16.9673L11.6443 16.9466C11.6735 16.87 11.7134 16.7985 11.7625 16.7342L15.4791 12.1142L15.4792 12.1142L15.4863 12.105C15.5844 11.9776 15.7234 11.8945 15.8745 11.8683C15.9882 11.8535 16.0801 11.8858 16.1469 11.9511L16.1468 11.9511L16.1537 11.9576C16.3073 12.1026 16.375 12.5056 16.1024 12.8401L16.1024 12.8401L16.0998 12.8434L14.1846 15.2302L13.3199 16.3078L14.6875 16.1115L21.0318 15.2009L21.032 15.2009C21.2291 15.1725 21.4553 15.3038 21.4545 15.6577Z" stroke="url(#paint20_linear_258_44593)" stroke-opacity="0.13" stroke-width="1.09091"/>
    <path d="M11.1271 16.7758L9.48926 15.866L9.49357 15.8535L11.1314 16.7634C11.1293 16.7673 11.1279 16.7715 11.1271 16.7758Z" fill="url(#paint21_linear_258_44593)"/>
    <path d="M11.131 16.7634L9.49316 15.8536C9.51257 15.8 9.53628 15.7472 9.56359 15.6958L11.2014 16.6057C11.1741 16.657 11.1504 16.7106 11.131 16.7634ZM11.2014 16.6057L9.56359 15.6958C9.59018 15.6445 9.62108 15.5953 9.65342 15.5476L11.2912 16.4575C11.2587 16.5052 11.2287 16.5546 11.2014 16.6057Z" fill="url(#paint22_linear_258_44593)"/>
    <path d="M11.2906 16.4562L9.65283 15.5464L9.69667 15.4862L11.3345 16.396C11.3195 16.4158 11.3049 16.4359 11.2906 16.4562Z" fill="url(#paint23_linear_258_44593)"/>
    <defs>
        <linearGradient id="paint0_linear_258_44593" x1="3.28576" y1="20.2037" x2="3.28377" y2="22.796" gradientUnits="userSpaceOnUse">
            <stop stop-color="#46A0E5"/>
            <stop offset="1" stop-color="#4DB4F6"/>
        </linearGradient>
        <linearGradient id="paint1_linear_258_44593" x1="11.5" y1="1" x2="10" y2="2" gradientUnits="userSpaceOnUse">
            <stop stop-color="#47A3E7"/>
            <stop offset="1" stop-color="#2760A9"/>
        </linearGradient>
        <linearGradient id="paint2_linear_258_44593" x1="2.48131" y1="10.0868" x2="2.42615" y2="21.0909" gradientUnits="userSpaceOnUse">
            <stop stop-color="#46A0E5"/>
            <stop offset="1" stop-color="#4DB4F6"/>
        </linearGradient>
        <linearGradient id="paint3_linear_258_44593" x1="4" y1="1.99994" x2="7.05856" y2="5.95465" gradientUnits="userSpaceOnUse">
            <stop stop-color="#425AA2"/>
            <stop offset="0.412078" stop-color="#0C2774"/>
            <stop offset="1" stop-color="#4FB4F8"/>
        </linearGradient>
        <linearGradient id="paint4_linear_258_44593" x1="2.15007" y1="3.21451" x2="8.70944" y2="24.7691" gradientUnits="userSpaceOnUse">
            <stop stop-color="#68F5FE"/>
            <stop offset="0.401661" stop-color="#68F5FE"/>
            <stop offset="0.684818" stop-color="#7EE2F9"/>
            <stop offset="1" stop-color="#7EE2F9"/>
        </linearGradient>
        <linearGradient id="paint5_linear_258_44593" x1="3.35002" y1="2.77327" x2="5.01348" y2="12.2732" gradientUnits="userSpaceOnUse">
            <stop stop-color="#F4F3F1"/>
            <stop offset="0.882503" stop-color="#F4F3F1" stop-opacity="0"/>
        </linearGradient>
        <linearGradient id="paint6_linear_258_44593" x1="9.09261" y1="12.4544" x2="12.6256" y2="21.8823" gradientUnits="userSpaceOnUse">
            <stop stop-color="#897BC8" stop-opacity="0"/>
            <stop offset="1" stop-color="#897BC8"/>
        </linearGradient>
        <linearGradient id="paint7_linear_258_44593" x1="12.0775" y1="1.90918" x2="12.6887" y2="21.8883" gradientUnits="userSpaceOnUse">
            <stop offset="0.228134" stop-color="#FFF5FD" stop-opacity="0"/>
            <stop offset="1" stop-color="#FFF5FD"/>
        </linearGradient>
        <linearGradient id="paint8_linear_258_44593" x1="21.1054" y1="13.7504" x2="21.1051" y2="14.6805" gradientUnits="userSpaceOnUse">
            <stop stop-color="#46A0E5"/>
            <stop offset="1" stop-color="#4DB4F6"/>
        </linearGradient>
        <linearGradient id="paint9_linear_258_44593" x1="21.3397" y1="13.8411" x2="21.3393" y2="14.759" gradientUnits="userSpaceOnUse">
            <stop stop-color="#46A0E5"/>
            <stop offset="1" stop-color="#4DB4F6"/>
        </linearGradient>
        <linearGradient id="paint10_linear_258_44593" x1="20.1106" y1="13.7701" x2="20.1103" y2="15.5732" gradientUnits="userSpaceOnUse">
            <stop stop-color="#46A0E5"/>
            <stop offset="1" stop-color="#4DB4F6"/>
        </linearGradient>
        <linearGradient id="paint11_linear_258_44593" x1="14.475" y1="17.1385" x2="14.4722" y2="21.5433" gradientUnits="userSpaceOnUse">
            <stop stop-color="#46A0E5"/>
            <stop offset="1" stop-color="#4DB4F6"/>
        </linearGradient>
        <linearGradient id="paint12_linear_258_44593" x1="11.1574" y1="16.7661" x2="11.1568" y2="18.0052" gradientUnits="userSpaceOnUse">
            <stop stop-color="#46A0E5"/>
            <stop offset="1" stop-color="#4DB4F6"/>
        </linearGradient>
        <linearGradient id="paint13_linear_258_44593" x1="10.951" y1="16.7273" x2="10.9506" y2="17.664" gradientUnits="userSpaceOnUse">
            <stop stop-color="#46A0E5"/>
            <stop offset="1" stop-color="#4DB4F6"/>
        </linearGradient>
        <linearGradient id="paint14_linear_258_44593" x1="10.9333" y1="15.9271" x2="10.932" y2="17.6291" gradientUnits="userSpaceOnUse">
            <stop stop-color="#46A0E5"/>
            <stop offset="1" stop-color="#4DB4F6"/>
        </linearGradient>
        <linearGradient id="paint15_linear_258_44593" x1="14.489" y1="10.9166" x2="14.4848" y2="16.3984" gradientUnits="userSpaceOnUse">
            <stop stop-color="#46A0E5"/>
            <stop offset="1" stop-color="#4DB4F6"/>
        </linearGradient>
        <linearGradient id="paint16_linear_258_44593" x1="10.9531" y1="15.8756" x2="10.9527" y2="16.816" gradientUnits="userSpaceOnUse">
            <stop stop-color="#46A0E5"/>
            <stop offset="1" stop-color="#4DB4F6"/>
        </linearGradient>
        <linearGradient id="paint17_linear_258_44593" x1="10.7619" y1="11.967" x2="13.609" y2="22.9103" gradientUnits="userSpaceOnUse">
            <stop stop-color="#68F5FE"/>
            <stop offset="0.401661" stop-color="#68F5FE"/>
            <stop offset="0.684818" stop-color="#7EE2F9"/>
            <stop offset="1" stop-color="#7EE2F9"/>
        </linearGradient>
        <linearGradient id="paint18_linear_258_44593" x1="11.4582" y1="11.7481" x2="12.1695" y2="16.4993" gradientUnits="userSpaceOnUse">
            <stop stop-color="#F4F3F1"/>
            <stop offset="0.882503" stop-color="#F4F3F1" stop-opacity="0"/>
        </linearGradient>
        <linearGradient id="paint19_linear_258_44593" x1="14.7906" y1="16.5511" x2="16.3405" y2="21.3888" gradientUnits="userSpaceOnUse">
            <stop stop-color="#897BC8" stop-opacity="0"/>
            <stop offset="1" stop-color="#897BC8"/>
        </linearGradient>
        <linearGradient id="paint20_linear_258_44593" x1="16.5227" y1="11.3194" x2="16.782" y2="21.234" gradientUnits="userSpaceOnUse">
            <stop offset="0.228134" stop-color="#FFF5FD" stop-opacity="0"/>
            <stop offset="1" stop-color="#FFF5FD"/>
        </linearGradient>
        <linearGradient id="paint21_linear_258_44593" x1="10.9577" y1="15.8626" x2="10.9573" y2="16.7761" gradientUnits="userSpaceOnUse">
            <stop stop-color="#46A0E5"/>
            <stop offset="1" stop-color="#4DB4F6"/>
        </linearGradient>
        <linearGradient id="paint22_linear_258_44593" x1="11.1011" y1="15.5596" x2="11.1005" y2="16.7638" gradientUnits="userSpaceOnUse">
            <stop stop-color="#46A0E5"/>
            <stop offset="1" stop-color="#4DB4F6"/>
        </linearGradient>
        <linearGradient id="paint23_linear_258_44593" x1="11.1566" y1="15.4957" x2="11.1562" y2="16.4565" gradientUnits="userSpaceOnUse">
            <stop stop-color="#46A0E5"/>
            <stop offset="1" stop-color="#4DB4F6"/>
        </linearGradient>
    </defs>
</svg>
