<svg width="24" height="24" viewBox="0 0 24 24" fill="none" xmlns="http://www.w3.org/2000/svg">
    <path d="M19.2443 11.6106L17.72 10.7683C17.6294 10.7094 17.5368 10.6538 17.4424 10.6016L18.9667 11.4438C19.0607 11.4959 19.1535 11.5513 19.2443 11.6106Z" fill="#84F7E9"/>
    <g filter="url(#filter0_ii_258_44598)">
        <path d="M5.48034 4.95478L3.95605 4.11251C4.03973 4.03606 4.12794 3.96489 4.22005 3.9003L5.74433 4.74256C5.6522 4.80783 5.56404 4.87869 5.48034 4.95478ZM5.74498 4.74256L4.2207 3.9003C4.33268 3.82149 4.45092 3.75227 4.5742 3.69336L6.09848 4.53562C5.97524 4.59428 5.85719 4.66348 5.74498 4.74256Z" fill="#316BD7"/>
        <path d="M5.48034 4.95478L3.95605 4.11251C4.03973 4.03606 4.12794 3.96489 4.22005 3.9003L5.74433 4.74256C5.6522 4.80783 5.56404 4.87869 5.48034 4.95478ZM5.74498 4.74256L4.2207 3.9003C4.33268 3.82149 4.45092 3.75227 4.5742 3.69336L6.09848 4.53562C5.97524 4.59428 5.85719 4.66348 5.74498 4.74256Z" fill="#3C83E6"/>
    </g>
    <g filter="url(#filter1_ii_258_44598)">
        <path fill-rule="evenodd" clip-rule="evenodd" d="M15.5631 2.02043L17.0874 2.86269C17.3361 2.82579 17.5896 2.83901 17.8333 2.90158C17.9452 2.93114 18.0541 2.97127 18.1586 3.02142L18.177 3.03159C18.1996 3.04275 18.2221 3.05418 18.2444 3.06587L16.7201 2.2236L16.6617 2.19306L16.6534 2.18848C16.5438 2.13444 16.429 2.09095 16.309 2.05931C16.0653 1.99672 15.8118 1.98351 15.5631 2.02043ZM5.53608 22.777L4.0135 21.9357C3.40443 21.5989 2.99904 20.9109 3.00098 20.0653L4.52526 20.9076C4.52332 21.7524 4.92796 22.4406 5.53608 22.777ZM5.2041 3.49941L6.72838 4.34234L17.087 2.86277L15.5627 2.02051L5.2041 3.49941ZM4.52428 20.906L3 20.0637L3.02529 6.19468L3.0249 6.19447C3.02555 5.87351 3.08458 5.55783 3.1916 5.26257C3.2383 5.13406 3.29343 5.0095 3.357 4.88955L4.88128 5.73182C4.81751 5.85201 4.76224 5.97667 4.71588 6.10484C4.60749 6.40282 4.55108 6.71773 4.54919 7.03541L4.54958 7.03562L4.52428 20.906ZM4.8817 5.73122L3.35742 4.88896C3.41126 4.78746 3.47093 4.68926 3.5358 4.59568L5.06008 5.43794C4.99521 5.53153 4.93554 5.62907 4.8817 5.73122ZM5.06008 5.43728L3.5358 4.59502C3.59677 4.50605 3.66293 4.42169 3.73298 4.34063C3.80368 4.25957 3.87827 4.18312 3.95611 4.11128L5.48039 4.95354C5.40167 5.02551 5.32717 5.10209 5.25726 5.18289C5.18721 5.26396 5.12105 5.34831 5.06008 5.43728ZM4.57373 3.69259L6.09801 4.53485C6.2974 4.43874 6.50997 4.37385 6.72848 4.34241L5.2042 3.50015C4.98569 3.53159 4.77312 3.59647 4.57373 3.69259Z" fill="#316BD7"/>
    </g>
    <path d="M18.1434 12.8999L16.6191 12.0576C16.8604 12.1209 17.092 12.2079 17.3112 12.3173L18.8355 13.1595C18.6142 13.049 18.3823 12.962 18.1434 12.8999Z" fill="#418CEB"/>
    <path d="M18.8353 13.1587L17.311 12.3164C17.3558 12.3388 17.4005 12.3625 17.4447 12.3863L18.9689 13.2285C18.9249 13.2043 18.8803 13.181 18.8353 13.1587Z" fill="#84F7E9"/>
    <g filter="url(#filter2_ii_258_44598)">
        <path fill-rule="evenodd" clip-rule="evenodd" d="M15.1069 11.9781L16.6312 12.8204C17.1356 12.7457 17.6495 12.7724 18.1438 12.8988L16.6195 12.0565C16.1253 11.9297 15.6113 11.9031 15.1069 11.9781ZM12.7501 21.1749L14.2739 22.0168C13.0502 21.3406 12.2403 19.9567 12.2435 18.2487C12.2464 17.6033 12.3606 16.9633 12.5808 16.3579L11.0565 15.5156C10.8363 16.121 10.7221 16.761 10.7192 17.4064C10.716 19.1147 11.5268 20.4987 12.7501 21.1749ZM12.5809 16.3569L11.0566 15.5146C11.15 15.2569 11.261 15.0065 11.3881 14.7659C11.4954 14.563 11.6146 14.3666 11.7448 14.178C11.8674 14.0008 11.9991 13.8307 12.1392 13.6699L12.1394 13.67C12.2793 13.5089 12.4283 13.356 12.5855 13.2122L12.5854 13.2122C12.7534 13.0586 12.9305 12.9162 13.1147 12.7864L14.639 13.6287C14.4541 13.7593 14.2774 13.9015 14.1098 14.0543L14.1099 14.0544C13.9524 14.1985 13.8032 14.3516 13.663 14.5131L13.6628 14.513C13.5225 14.6746 13.3911 14.844 13.2691 15.0203C13.1394 15.2088 13.02 15.4052 12.9124 15.6082C12.7846 15.8495 12.6738 16.0996 12.5809 16.3569ZM14.6397 13.6287L13.1154 12.7864C13.3407 12.6278 13.5785 12.4884 13.8264 12.3695L13.8262 12.3694C14.2313 12.1747 14.6629 12.0429 15.1066 11.9786L16.6308 12.8208C16.1861 12.8841 15.7562 13.0184 15.351 13.2114L15.3512 13.2115C15.1034 13.3301 14.866 13.4698 14.6397 13.6287Z" fill="#316BD7"/>
    </g>
    <mask id="path-7-inside-1_258_44598" fill="white">
        <path fill-rule="evenodd" clip-rule="evenodd" d="M17.0871 2.86292C18.2825 2.69222 19.2587 3.62544 19.2568 4.93629L19.2444 11.6105C18.3519 11.0292 17.2564 10.7669 16.07 10.9363C13.074 11.364 10.6397 14.3752 10.6339 17.6605C10.6306 19.606 11.479 21.2115 12.7925 22.1091L6.69408 22.9797C5.49866 23.1504 4.52247 22.2172 4.52442 20.9063L4.54971 7.03667C4.55231 5.72583 5.53239 4.51318 6.72781 4.34248L17.0871 2.86292ZM15.9259 6.4298C16.3644 6.37115 16.7192 6.69013 16.7179 7.14289C16.7173 7.59566 16.3612 8.01086 15.9227 8.06952L7.91796 9.1464C7.47948 9.20506 7.12468 8.88608 7.12598 8.43331C7.12663 7.98054 7.48273 7.56534 7.9212 7.50669L15.9259 6.4298ZM12.949 11.3982C12.9503 10.9737 12.6136 10.6739 12.1979 10.7292L7.68014 11.3303C7.26437 11.3857 6.92643 11.7745 6.92579 12.1996C6.92449 12.624 7.26113 12.9239 7.6769 12.8685L12.1946 12.2675C12.6104 12.2121 12.9483 11.8233 12.949 11.3982Z"/>
    </mask>
    <path fill-rule="evenodd" clip-rule="evenodd" d="M17.0871 2.86292C18.2825 2.69222 19.2587 3.62544 19.2568 4.93629L19.2444 11.6105C18.3519 11.0292 17.2564 10.7669 16.07 10.9363C13.074 11.364 10.6397 14.3752 10.6339 17.6605C10.6306 19.606 11.479 21.2115 12.7925 22.1091L6.69408 22.9797C5.49866 23.1504 4.52247 22.2172 4.52442 20.9063L4.54971 7.03667C4.55231 5.72583 5.53239 4.51318 6.72781 4.34248L17.0871 2.86292ZM15.9259 6.4298C16.3644 6.37115 16.7192 6.69013 16.7179 7.14289C16.7173 7.59566 16.3612 8.01086 15.9227 8.06952L7.91796 9.1464C7.47948 9.20506 7.12468 8.88608 7.12598 8.43331C7.12663 7.98054 7.48273 7.56534 7.9212 7.50669L15.9259 6.4298ZM12.949 11.3982C12.9503 10.9737 12.6136 10.6739 12.1979 10.7292L7.68014 11.3303C7.26437 11.3857 6.92643 11.7745 6.92579 12.1996C6.92449 12.624 7.26113 12.9239 7.6769 12.8685L12.1946 12.2675C12.6104 12.2121 12.9483 11.8233 12.949 11.3982Z" fill="#7DFCF5"/>
    <path fill-rule="evenodd" clip-rule="evenodd" d="M17.0871 2.86292C18.2825 2.69222 19.2587 3.62544 19.2568 4.93629L19.2444 11.6105C18.3519 11.0292 17.2564 10.7669 16.07 10.9363C13.074 11.364 10.6397 14.3752 10.6339 17.6605C10.6306 19.606 11.479 21.2115 12.7925 22.1091L6.69408 22.9797C5.49866 23.1504 4.52247 22.2172 4.52442 20.9063L4.54971 7.03667C4.55231 5.72583 5.53239 4.51318 6.72781 4.34248L17.0871 2.86292ZM15.9259 6.4298C16.3644 6.37115 16.7192 6.69013 16.7179 7.14289C16.7173 7.59566 16.3612 8.01086 15.9227 8.06952L7.91796 9.1464C7.47948 9.20506 7.12468 8.88608 7.12598 8.43331C7.12663 7.98054 7.48273 7.56534 7.9212 7.50669L15.9259 6.4298ZM12.949 11.3982C12.9503 10.9737 12.6136 10.6739 12.1979 10.7292L7.68014 11.3303C7.26437 11.3857 6.92643 11.7745 6.92579 12.1996C6.92449 12.624 7.26113 12.9239 7.6769 12.8685L12.1946 12.2675C12.6104 12.2121 12.9483 11.8233 12.949 11.3982Z" fill="url(#paint0_linear_258_44598)"/>
    <path fill-rule="evenodd" clip-rule="evenodd" d="M17.0871 2.86292C18.2825 2.69222 19.2587 3.62544 19.2568 4.93629L19.2444 11.6105C18.3519 11.0292 17.2564 10.7669 16.07 10.9363C13.074 11.364 10.6397 14.3752 10.6339 17.6605C10.6306 19.606 11.479 21.2115 12.7925 22.1091L6.69408 22.9797C5.49866 23.1504 4.52247 22.2172 4.52442 20.9063L4.54971 7.03667C4.55231 5.72583 5.53239 4.51318 6.72781 4.34248L17.0871 2.86292ZM15.9259 6.4298C16.3644 6.37115 16.7192 6.69013 16.7179 7.14289C16.7173 7.59566 16.3612 8.01086 15.9227 8.06952L7.91796 9.1464C7.47948 9.20506 7.12468 8.88608 7.12598 8.43331C7.12663 7.98054 7.48273 7.56534 7.9212 7.50669L15.9259 6.4298ZM12.949 11.3982C12.9503 10.9737 12.6136 10.6739 12.1979 10.7292L7.68014 11.3303C7.26437 11.3857 6.92643 11.7745 6.92579 12.1996C6.92449 12.624 7.26113 12.9239 7.6769 12.8685L12.1946 12.2675C12.6104 12.2121 12.9483 11.8233 12.949 11.3982Z" fill="url(#paint1_linear_258_44598)"/>
    <path d="M19.2568 4.93629L20.3477 4.9383L20.3477 4.9379L19.2568 4.93629ZM17.0871 2.86292L16.9329 1.78296L16.9328 1.78297L17.0871 2.86292ZM19.2444 11.6105L18.6491 12.5246L20.3316 13.6204L20.3353 11.6125L19.2444 11.6105ZM16.07 10.9363L16.2242 12.0162L16.2242 12.0162L16.07 10.9363ZM10.6339 17.6605L9.54296 17.6586V17.6587L10.6339 17.6605ZM12.7925 22.1091L12.9467 23.1891L15.7257 22.7923L13.408 21.2084L12.7925 22.1091ZM6.69408 22.9797L6.53991 21.8998L6.53988 21.8998L6.69408 22.9797ZM4.52442 20.9063L3.43351 20.9044L3.43351 20.9047L4.52442 20.9063ZM4.54971 7.03667L3.45881 7.03451L3.45881 7.03468L4.54971 7.03667ZM6.72781 4.34248L6.88202 5.42244L6.88206 5.42243L6.72781 4.34248ZM16.7179 7.14289L15.627 7.13977L15.627 7.14133L16.7179 7.14289ZM15.9259 6.4298L15.7813 5.34853L15.7805 5.34863L15.9259 6.4298ZM15.9227 8.06952L15.7781 6.98824L15.7773 6.98835L15.9227 8.06952ZM7.91796 9.1464L8.0626 10.2277L8.06341 10.2276L7.91796 9.1464ZM7.12598 8.43331L8.21689 8.43644L8.21689 8.43487L7.12598 8.43331ZM7.9212 7.50669L8.06585 8.58797L8.06665 8.58786L7.9212 7.50669ZM12.1979 10.7292L12.3417 11.8106L12.3418 11.8106L12.1979 10.7292ZM12.949 11.3982L11.8581 11.3948L11.8581 11.3965L12.949 11.3982ZM7.68014 11.3303L7.53627 10.2489L7.53616 10.2489L7.68014 11.3303ZM6.92579 12.1996L8.01669 12.2029L8.01669 12.2012L6.92579 12.1996ZM7.6769 12.8685L7.53303 11.7871L7.53291 11.7871L7.6769 12.8685ZM12.1946 12.2675L12.3385 13.3488L12.3386 13.3488L12.1946 12.2675ZM20.3477 4.9379C20.3504 3.07032 18.8885 1.50372 16.9329 1.78296L17.2413 3.94287C17.6765 3.88073 18.167 4.18055 18.1658 4.93467L20.3477 4.9379ZM20.3353 11.6125L20.3477 4.9383L18.1658 4.93427L18.1535 11.6085L20.3353 11.6125ZM16.2242 12.0162C17.1517 11.8838 17.9804 12.0891 18.6491 12.5246L19.8398 10.6963C18.7234 9.96925 17.3611 9.64997 15.9158 9.85631L16.2242 12.0162ZM11.7248 17.6625C11.7298 14.8496 13.8312 12.3579 16.2242 12.0162L15.9159 9.85631C12.3168 10.3701 9.54964 13.9008 9.54296 17.6586L11.7248 17.6625ZM13.408 21.2084C12.4242 20.5361 11.7221 19.287 11.7248 17.6624L9.54296 17.6587C9.53918 19.9251 10.5339 21.8869 12.177 23.0098L13.408 21.2084ZM6.84826 24.0597L12.9467 23.1891L12.6383 21.0292L6.53991 21.8998L6.84826 24.0597ZM3.43351 20.9047C3.43074 22.7723 4.89267 24.3389 6.84829 24.0597L6.53988 21.8998C6.10465 21.9619 5.61421 21.6621 5.61532 20.908L3.43351 20.9047ZM3.45881 7.03468L3.43351 20.9044L5.61532 20.9083L5.64062 7.03866L3.45881 7.03468ZM6.57361 3.26253C4.77505 3.51934 3.46234 5.25154 3.45881 7.03451L5.64062 7.03883C5.64228 6.20011 6.28973 5.50701 6.88202 5.42244L6.57361 3.26253ZM16.9328 1.78297L6.57357 3.26253L6.88206 5.42243L17.2413 3.94287L16.9328 1.78297ZM17.8088 7.14602C17.8119 6.05976 16.9023 5.19856 15.7813 5.34853L16.0706 7.51108C15.9823 7.52289 15.8585 7.49672 15.7571 7.40544C15.6573 7.31561 15.6268 7.20655 15.627 7.13977L17.8088 7.14602ZM16.0673 9.15079C17.067 9.01707 17.8074 8.12283 17.8088 7.14446L15.627 7.14133C15.6271 7.08307 15.6479 7.05377 15.6566 7.04362C15.665 7.03384 15.6998 6.99871 15.7781 6.98824L16.0673 9.15079ZM8.06341 10.2276L16.0682 9.15069L15.7773 6.98835L7.77251 8.06523L8.06341 10.2276ZM6.03508 8.43019C6.03196 9.51645 6.94157 10.3776 8.0626 10.2277L7.77331 8.06512C7.86159 8.05332 7.9854 8.07948 8.08682 8.17076C8.18664 8.2606 8.21708 8.36966 8.21688 8.43644L6.03508 8.43019ZM7.77656 6.42541C6.77695 6.55913 6.03647 7.45337 6.03507 8.43175L8.21689 8.43487C8.2168 8.49314 8.19603 8.52244 8.18732 8.53258C8.17893 8.54237 8.1441 8.5775 8.06585 8.58797L7.77656 6.42541ZM15.7805 5.34863L7.77575 6.42552L8.06665 8.58786L16.0714 7.51097L15.7805 5.34863ZM12.3418 11.8106C12.2454 11.8234 12.1133 11.7956 12.0042 11.6984C11.8961 11.6021 11.8578 11.4802 11.8581 11.3948L14.0399 11.4015C14.0431 10.3313 13.1399 9.50326 12.0539 9.64787L12.3418 11.8106ZM7.82401 12.4117L12.3417 11.8106L12.054 9.64786L7.53627 10.2489L7.82401 12.4117ZM8.01669 12.2012C8.01658 12.277 7.98852 12.3214 7.97106 12.3415C7.95381 12.3613 7.90945 12.4003 7.82413 12.4117L7.53616 10.2489C6.56938 10.3777 5.83634 11.2363 5.83488 12.1979L8.01669 12.2012ZM7.53291 11.7871C7.62933 11.7743 7.76143 11.8022 7.8705 11.8993C7.97864 11.9956 8.01695 12.1175 8.01669 12.2029L5.83488 12.1962C5.83161 13.2664 6.73482 14.0945 7.82088 13.9499L7.53291 11.7871ZM12.0507 11.1861L7.53303 11.7871L7.82077 13.9499L12.3385 13.3488L12.0507 11.1861ZM11.8581 11.3965C11.8582 11.3208 11.8862 11.2764 11.9037 11.2563C11.9209 11.2364 11.9653 11.1975 12.0506 11.1861L12.3386 13.3488C13.3054 13.2201 14.0384 12.3614 14.0399 11.3998L11.8581 11.3965Z" fill="url(#paint2_linear_258_44598)" mask="url(#path-7-inside-1_258_44598)"/>
    <mask id="path-9-inside-2_258_44598" fill="white">
        <path fill-rule="evenodd" clip-rule="evenodd" d="M20.9998 16.9974C21.005 14.3454 19.0481 12.475 16.6307 12.8204C14.2119 13.1664 12.2479 15.5963 12.2427 18.2476C12.2381 20.8996 14.1944 22.77 16.6132 22.4247C19.0306 22.08 20.9953 19.6494 20.9998 16.9974ZM18.9292 15.8303C19.0109 15.8632 19.0853 15.9122 19.1483 15.9744C19.2113 16.0366 19.2617 16.1108 19.2965 16.1928C19.3312 16.2748 19.3497 16.363 19.3508 16.4522C19.352 16.5415 19.3358 16.6302 19.3031 16.713C19.2705 16.7959 19.222 16.8715 19.1606 16.9353L16.5758 19.6407L16.5713 19.6453L16.5693 19.6479L16.5635 19.6526C16.533 19.6829 16.5006 19.7106 16.4662 19.7336L16.4597 19.7376C16.3879 19.7839 16.3083 19.8165 16.2249 19.8338L16.2217 19.8345C16.1385 19.8502 16.0531 19.85 15.97 19.8338C15.9636 19.8324 15.9575 19.8303 15.9516 19.8283C15.946 19.8264 15.9406 19.8245 15.935 19.8232C15.9051 19.816 15.8753 19.8087 15.8467 19.7969C15.8373 19.7931 15.8284 19.7881 15.8195 19.783C15.8143 19.7801 15.8092 19.7771 15.8039 19.7745C15.7976 19.7712 15.7913 19.768 15.7849 19.7648C15.7671 19.7558 15.7491 19.7468 15.7319 19.7356C15.722 19.7293 15.7129 19.7214 15.7038 19.7135C15.6987 19.7091 15.6936 19.7047 15.6885 19.7007C15.6836 19.6969 15.6787 19.6932 15.6738 19.6895C15.6591 19.6783 15.6444 19.6672 15.6308 19.6539L15.6275 19.6499L15.6236 19.6466L13.8775 17.8725C13.7521 17.745 13.6816 17.5722 13.6816 17.392C13.6816 17.2118 13.7521 17.039 13.8775 16.9116C14.0029 16.7841 14.173 16.7126 14.3504 16.7126C14.5277 16.7126 14.6978 16.7841 14.8232 16.9116L16.09 18.1987L18.2026 15.9882C18.2638 15.9242 18.3368 15.8731 18.4174 15.8378C18.4981 15.8024 18.5848 15.7836 18.6726 15.7823C18.7604 15.781 18.8476 15.7973 18.9292 15.8303Z"/>
    </mask>
    <path fill-rule="evenodd" clip-rule="evenodd" d="M20.9998 16.9974C21.005 14.3454 19.0481 12.475 16.6307 12.8204C14.2119 13.1664 12.2479 15.5963 12.2427 18.2476C12.2381 20.8996 14.1944 22.77 16.6132 22.4247C19.0306 22.08 20.9953 19.6494 20.9998 16.9974ZM18.9292 15.8303C19.0109 15.8632 19.0853 15.9122 19.1483 15.9744C19.2113 16.0366 19.2617 16.1108 19.2965 16.1928C19.3312 16.2748 19.3497 16.363 19.3508 16.4522C19.352 16.5415 19.3358 16.6302 19.3031 16.713C19.2705 16.7959 19.222 16.8715 19.1606 16.9353L16.5758 19.6407L16.5713 19.6453L16.5693 19.6479L16.5635 19.6526C16.533 19.6829 16.5006 19.7106 16.4662 19.7336L16.4597 19.7376C16.3879 19.7839 16.3083 19.8165 16.2249 19.8338L16.2217 19.8345C16.1385 19.8502 16.0531 19.85 15.97 19.8338C15.9636 19.8324 15.9575 19.8303 15.9516 19.8283C15.946 19.8264 15.9406 19.8245 15.935 19.8232C15.9051 19.816 15.8753 19.8087 15.8467 19.7969C15.8373 19.7931 15.8284 19.7881 15.8195 19.783C15.8143 19.7801 15.8092 19.7771 15.8039 19.7745C15.7976 19.7712 15.7913 19.768 15.7849 19.7648C15.7671 19.7558 15.7491 19.7468 15.7319 19.7356C15.722 19.7293 15.7129 19.7214 15.7038 19.7135C15.6987 19.7091 15.6936 19.7047 15.6885 19.7007C15.6836 19.6969 15.6787 19.6932 15.6738 19.6895C15.6591 19.6783 15.6444 19.6672 15.6308 19.6539L15.6275 19.6499L15.6236 19.6466L13.8775 17.8725C13.7521 17.745 13.6816 17.5722 13.6816 17.392C13.6816 17.2118 13.7521 17.039 13.8775 16.9116C14.0029 16.7841 14.173 16.7126 14.3504 16.7126C14.5277 16.7126 14.6978 16.7841 14.8232 16.9116L16.09 18.1987L18.2026 15.9882C18.2638 15.9242 18.3368 15.8731 18.4174 15.8378C18.4981 15.8024 18.5848 15.7836 18.6726 15.7823C18.7604 15.781 18.8476 15.7973 18.9292 15.8303Z" fill="#7DFCF5"/>
    <path fill-rule="evenodd" clip-rule="evenodd" d="M20.9998 16.9974C21.005 14.3454 19.0481 12.475 16.6307 12.8204C14.2119 13.1664 12.2479 15.5963 12.2427 18.2476C12.2381 20.8996 14.1944 22.77 16.6132 22.4247C19.0306 22.08 20.9953 19.6494 20.9998 16.9974ZM18.9292 15.8303C19.0109 15.8632 19.0853 15.9122 19.1483 15.9744C19.2113 16.0366 19.2617 16.1108 19.2965 16.1928C19.3312 16.2748 19.3497 16.363 19.3508 16.4522C19.352 16.5415 19.3358 16.6302 19.3031 16.713C19.2705 16.7959 19.222 16.8715 19.1606 16.9353L16.5758 19.6407L16.5713 19.6453L16.5693 19.6479L16.5635 19.6526C16.533 19.6829 16.5006 19.7106 16.4662 19.7336L16.4597 19.7376C16.3879 19.7839 16.3083 19.8165 16.2249 19.8338L16.2217 19.8345C16.1385 19.8502 16.0531 19.85 15.97 19.8338C15.9636 19.8324 15.9575 19.8303 15.9516 19.8283C15.946 19.8264 15.9406 19.8245 15.935 19.8232C15.9051 19.816 15.8753 19.8087 15.8467 19.7969C15.8373 19.7931 15.8284 19.7881 15.8195 19.783C15.8143 19.7801 15.8092 19.7771 15.8039 19.7745C15.7976 19.7712 15.7913 19.768 15.7849 19.7648C15.7671 19.7558 15.7491 19.7468 15.7319 19.7356C15.722 19.7293 15.7129 19.7214 15.7038 19.7135C15.6987 19.7091 15.6936 19.7047 15.6885 19.7007C15.6836 19.6969 15.6787 19.6932 15.6738 19.6895C15.6591 19.6783 15.6444 19.6672 15.6308 19.6539L15.6275 19.6499L15.6236 19.6466L13.8775 17.8725C13.7521 17.745 13.6816 17.5722 13.6816 17.392C13.6816 17.2118 13.7521 17.039 13.8775 16.9116C14.0029 16.7841 14.173 16.7126 14.3504 16.7126C14.5277 16.7126 14.6978 16.7841 14.8232 16.9116L16.09 18.1987L18.2026 15.9882C18.2638 15.9242 18.3368 15.8731 18.4174 15.8378C18.4981 15.8024 18.5848 15.7836 18.6726 15.7823C18.7604 15.781 18.8476 15.7973 18.9292 15.8303Z" fill="url(#paint3_linear_258_44598)"/>
    <path fill-rule="evenodd" clip-rule="evenodd" d="M20.9998 16.9974C21.005 14.3454 19.0481 12.475 16.6307 12.8204C14.2119 13.1664 12.2479 15.5963 12.2427 18.2476C12.2381 20.8996 14.1944 22.77 16.6132 22.4247C19.0306 22.08 20.9953 19.6494 20.9998 16.9974ZM18.9292 15.8303C19.0109 15.8632 19.0853 15.9122 19.1483 15.9744C19.2113 16.0366 19.2617 16.1108 19.2965 16.1928C19.3312 16.2748 19.3497 16.363 19.3508 16.4522C19.352 16.5415 19.3358 16.6302 19.3031 16.713C19.2705 16.7959 19.222 16.8715 19.1606 16.9353L16.5758 19.6407L16.5713 19.6453L16.5693 19.6479L16.5635 19.6526C16.533 19.6829 16.5006 19.7106 16.4662 19.7336L16.4597 19.7376C16.3879 19.7839 16.3083 19.8165 16.2249 19.8338L16.2217 19.8345C16.1385 19.8502 16.0531 19.85 15.97 19.8338C15.9636 19.8324 15.9575 19.8303 15.9516 19.8283C15.946 19.8264 15.9406 19.8245 15.935 19.8232C15.9051 19.816 15.8753 19.8087 15.8467 19.7969C15.8373 19.7931 15.8284 19.7881 15.8195 19.783C15.8143 19.7801 15.8092 19.7771 15.8039 19.7745C15.7976 19.7712 15.7913 19.768 15.7849 19.7648C15.7671 19.7558 15.7491 19.7468 15.7319 19.7356C15.722 19.7293 15.7129 19.7214 15.7038 19.7135C15.6987 19.7091 15.6936 19.7047 15.6885 19.7007C15.6836 19.6969 15.6787 19.6932 15.6738 19.6895C15.6591 19.6783 15.6444 19.6672 15.6308 19.6539L15.6275 19.6499L15.6236 19.6466L13.8775 17.8725C13.7521 17.745 13.6816 17.5722 13.6816 17.392C13.6816 17.2118 13.7521 17.039 13.8775 16.9116C14.0029 16.7841 14.173 16.7126 14.3504 16.7126C14.5277 16.7126 14.6978 16.7841 14.8232 16.9116L16.09 18.1987L18.2026 15.9882C18.2638 15.9242 18.3368 15.8731 18.4174 15.8378C18.4981 15.8024 18.5848 15.7836 18.6726 15.7823C18.7604 15.781 18.8476 15.7973 18.9292 15.8303Z" fill="url(#paint4_linear_258_44598)"/>
    <path d="M16.6307 12.8204L16.4764 11.7404L16.4762 11.7405L16.6307 12.8204ZM20.9998 16.9974L19.9089 16.9953L19.9089 16.9956L20.9998 16.9974ZM12.2427 18.2476L11.1518 18.2455L11.1518 18.2458L12.2427 18.2476ZM16.6132 22.4247L16.4592 21.3447L16.459 21.3447L16.6132 22.4247ZM19.1483 15.9744L18.3818 16.7507L18.3823 16.7512L19.1483 15.9744ZM19.2965 16.1928L18.2921 16.6186L18.2921 16.6186L19.2965 16.1928ZM19.3508 16.4522L20.4417 16.4383L20.4417 16.4383L19.3508 16.4522ZM19.3031 16.713L18.2881 16.3133L18.2881 16.3133L19.3031 16.713ZM19.1606 16.9353L18.3747 16.1787L18.3718 16.1817L19.1606 16.9353ZM16.5758 19.6407L17.3534 20.4059L17.359 20.4001L17.3646 20.3943L16.5758 19.6407ZM16.5713 19.6453L15.7937 18.8801L15.7396 18.9351L15.6938 18.9971L16.5713 19.6453ZM16.5693 19.6479L17.2457 20.5038L17.3601 20.4134L17.4468 20.2961L16.5693 19.6479ZM16.5635 19.6526L15.8871 18.7967L15.8383 18.8352L15.7942 18.879L16.5635 19.6526ZM16.4662 19.7336L17.0339 20.6652L17.0542 20.6528L17.074 20.6395L16.4662 19.7336ZM16.4597 19.7376L15.892 18.806L15.8801 18.8133L15.8684 18.8208L16.4597 19.7376ZM16.2249 19.8338L16.4425 20.9028L16.4462 20.902L16.2249 19.8338ZM16.2217 19.8345L16.4251 20.9062L16.4322 20.9049L16.4393 20.9034L16.2217 19.8345ZM15.97 19.8338L15.7418 20.9006L15.7513 20.9026L15.7609 20.9045L15.97 19.8338ZM15.9516 19.8283L16.3061 18.7966L16.306 18.7966L15.9516 19.8283ZM15.935 19.8232L15.6774 20.8833L15.686 20.8854L15.6947 20.8874L15.935 19.8232ZM15.8467 19.7969L16.2655 18.7895L16.2576 18.7863L16.2498 18.7832L15.8467 19.7969ZM15.8195 19.783L16.3587 18.8347L16.3586 18.8346L15.8195 19.783ZM15.8039 19.7745L15.2993 20.7417L15.3098 20.747L15.8039 19.7745ZM15.7849 19.7648L15.2941 20.7391L15.2941 20.7391L15.7849 19.7648ZM15.7319 19.7356L16.3259 18.8205L16.3167 18.8147L15.7319 19.7356ZM15.7038 19.7135L16.4181 18.889L16.4181 18.889L15.7038 19.7135ZM15.6885 19.7007L16.3622 18.8426L16.3588 18.84L15.6885 19.7007ZM15.6738 19.6895L15.0161 20.5598L15.0161 20.5598L15.6738 19.6895ZM15.6308 19.6539L14.7873 20.3458L14.8249 20.3916L14.8673 20.4331L15.6308 19.6539ZM15.6275 19.6499L16.4709 18.958L16.4081 18.8814L16.3325 18.8174L15.6275 19.6499ZM15.6236 19.6466L14.8461 20.4118L14.8808 20.4471L14.9186 20.4791L15.6236 19.6466ZM13.8775 17.8725L14.655 17.1072H14.655L13.8775 17.8725ZM13.8775 16.9116L14.655 17.6768H14.655L13.8775 16.9116ZM14.8232 16.9116L14.0457 17.6768H14.0457L14.8232 16.9116ZM16.09 18.1987L15.3125 18.9639L16.1015 19.7656L16.8786 18.9524L16.09 18.1987ZM18.2026 15.9882L17.4141 15.2343L17.4139 15.2345L18.2026 15.9882ZM18.6726 15.7823L18.6886 16.8731H18.6886L18.6726 15.7823ZM16.7849 13.9003C18.4421 13.6636 19.913 14.9004 19.9089 16.9953L22.0907 16.9996C22.097 13.7904 19.6541 11.2865 16.4764 11.7404L16.7849 13.9003ZM13.3336 18.2498C13.3379 16.0708 14.9691 14.1601 16.7851 13.9003L16.4762 11.7405C13.4548 12.1727 11.1579 15.1218 11.1518 18.2455L13.3336 18.2498ZM16.459 21.3447C14.8004 21.5815 13.33 20.3446 13.3336 18.2495L11.1518 18.2458C11.1463 21.4547 13.5884 23.9585 16.7673 23.5046L16.459 21.3447ZM19.9089 16.9956C19.9052 19.1753 18.2732 21.0861 16.4592 21.3447L16.7671 23.5047C19.788 23.074 22.0854 20.1236 22.0907 16.9993L19.9089 16.9956ZM19.9147 15.1981C19.7497 15.0352 19.5538 14.906 19.3378 14.8187L18.5207 16.8418C18.4679 16.8205 18.4208 16.7892 18.3818 16.7507L19.9147 15.1981ZM20.3008 15.767C20.2107 15.5543 20.0795 15.3606 19.9142 15.1976L18.3823 16.7512C18.3431 16.7125 18.3127 16.6673 18.2921 16.6186L20.3008 15.767ZM20.4417 16.4383C20.4387 16.2078 20.391 15.9797 20.3008 15.767L18.2921 16.6186C18.2714 16.5699 18.2607 16.5182 18.26 16.4662L20.4417 16.4383ZM20.3181 17.1128C20.4028 16.8979 20.4446 16.6688 20.4417 16.4383L18.26 16.4662C18.2594 16.4143 18.2688 16.3624 18.2881 16.3133L20.3181 17.1128ZM19.9465 17.6919C20.1075 17.5247 20.2335 17.3277 20.3181 17.1128L18.2881 16.3133C18.3075 16.2642 18.3366 16.2183 18.3747 16.1787L19.9465 17.6919ZM17.3646 20.3943L19.9494 17.6889L18.3718 16.1817L15.787 18.8871L17.3646 20.3943ZM17.3488 20.4105L17.3534 20.4059L15.7983 18.8755L15.7937 18.8801L17.3488 20.4105ZM17.4468 20.2961L17.4487 20.2935L15.6938 18.9971L15.6919 18.9997L17.4468 20.2961ZM17.2399 20.5084L17.2457 20.5038L15.8929 18.7921L15.8871 18.7967L17.2399 20.5084ZM17.074 20.6395C17.1787 20.5692 17.2647 20.4938 17.3327 20.4261L15.7942 18.879C15.8013 18.872 15.8224 18.8519 15.8583 18.8277L17.074 20.6395ZM17.0274 20.6691L17.0339 20.6652L15.8985 18.8021L15.892 18.806L17.0274 20.6691ZM16.4462 20.902C16.6617 20.8574 16.8666 20.7732 17.051 20.6543L15.8684 18.8208C15.9091 18.7946 15.9548 18.7757 16.0036 18.7656L16.4462 20.902ZM16.4393 20.9034L16.4425 20.9028L16.0073 18.7648L16.004 18.7655L16.4393 20.9034ZM15.7609 20.9045C15.9802 20.9473 16.2056 20.9479 16.4251 20.9062L16.0182 18.7627C16.0713 18.7526 16.126 18.7527 16.179 18.7631L15.7609 20.9045ZM15.5971 20.86C15.5975 20.8602 15.6162 20.8667 15.6379 20.8734C15.6615 20.8807 15.6974 20.8911 15.7418 20.9006L16.1982 18.767C16.2361 18.7751 16.2659 18.7838 16.2834 18.7892C16.2989 18.794 16.3116 18.7985 16.3061 18.7966L15.5971 20.86ZM15.6947 20.8874C15.6595 20.8794 15.6322 20.8713 15.6169 20.8665C15.6032 20.8622 15.592 20.8582 15.5971 20.86L16.306 18.7966C16.3057 18.7964 16.2889 18.7906 16.2697 18.7846C16.2489 18.7781 16.216 18.7683 16.1753 18.7591L15.6947 20.8874ZM15.428 20.8042C15.5481 20.8541 15.6611 20.8794 15.6774 20.8833L16.1925 18.7632C16.1842 18.7612 16.1819 18.7606 16.1805 18.7602C16.1796 18.76 16.1831 18.7609 16.1891 18.7626C16.2007 18.7659 16.2288 18.7743 16.2655 18.7895L15.428 20.8042ZM15.2804 20.7314C15.282 20.7323 15.3027 20.7442 15.3266 20.7568C15.3524 20.7702 15.3928 20.7904 15.4437 20.8106L16.2498 18.7832C16.2912 18.7996 16.3225 18.8154 16.3392 18.8241C16.3541 18.8319 16.3659 18.8388 16.3587 18.8347L15.2804 20.7314ZM15.3098 20.747C15.2974 20.7408 15.2881 20.7357 15.2837 20.7332C15.2798 20.7311 15.2768 20.7294 15.2804 20.7314L16.3586 18.8346C16.3574 18.8339 16.33 18.8181 16.2981 18.8019L15.3098 20.747ZM15.2941 20.7391C15.2976 20.7408 15.299 20.7415 15.3002 20.7421C15.3012 20.7426 15.3007 20.7424 15.2993 20.7417L16.3085 18.8073C16.2942 18.7998 16.2809 18.7931 16.2757 18.7905L15.2941 20.7391ZM15.138 20.6506C15.2132 20.6994 15.2842 20.7341 15.2941 20.7391L16.2757 18.7905C16.2733 18.7893 16.2719 18.7886 16.2707 18.788C16.2701 18.7877 16.2697 18.7875 16.2695 18.7874C16.2692 18.7872 16.2691 18.7872 16.2691 18.7872C16.2691 18.7872 16.2693 18.7873 16.2695 18.7874C16.2698 18.7875 16.2703 18.7878 16.2708 18.7881C16.2719 18.7886 16.2736 18.7895 16.2758 18.7907C16.2841 18.7952 16.3025 18.8053 16.3259 18.8206L15.138 20.6506ZM14.9896 20.5381C14.9915 20.5398 15.011 20.5569 15.0337 20.5751C15.0579 20.5946 15.0968 20.6246 15.1472 20.6565L16.3167 18.8147C16.3571 18.8403 16.3865 18.8632 16.4014 18.8752C16.4148 18.8859 16.4252 18.8951 16.4181 18.889L14.9896 20.5381ZM15.0148 20.5587C15.0037 20.55 14.9954 20.5431 14.9917 20.5399C14.9885 20.5372 14.9862 20.5352 14.9896 20.5381L16.4181 18.889C16.4167 18.8877 16.3916 18.8657 16.3621 18.8426L15.0148 20.5587ZM15.0161 20.5598C15.0188 20.5618 15.0196 20.5625 15.0202 20.5629C15.0207 20.5633 15.0198 20.5626 15.0181 20.5613L16.3588 18.84C16.3467 18.8305 16.3354 18.822 16.3315 18.8191L15.0161 20.5598ZM14.8673 20.4331C14.9387 20.5031 15.0093 20.5547 15.0161 20.5598L16.3315 18.8191C16.3219 18.8118 16.3288 18.8169 16.3378 18.8242C16.3486 18.8329 16.3692 18.8502 16.3942 18.8746L14.8673 20.4331ZM14.7841 20.3418L14.7873 20.3458L16.4742 18.962L16.4709 18.958L14.7841 20.3418ZM14.9186 20.4791L14.9225 20.4824L16.3325 18.8174L16.3286 18.8141L14.9186 20.4791ZM13.1 18.6377L14.8461 20.4118L16.4011 18.8814L14.655 17.1072L13.1 18.6377ZM12.5907 17.392C12.5907 17.856 12.772 18.3044 13.1 18.6377L14.655 17.1072C14.7322 17.1857 14.7725 17.2885 14.7725 17.392H12.5907ZM13.1 16.1464C12.772 16.4796 12.5907 16.9281 12.5907 17.392H14.7725C14.7725 17.4956 14.7322 17.5983 14.655 17.6768L13.1 16.1464ZM14.3504 15.6217C13.878 15.6217 13.4286 15.8125 13.1 16.1464L14.655 17.6768C14.5772 17.7558 14.468 17.8035 14.3504 17.8035V15.6217ZM15.6007 16.1464C15.2721 15.8125 14.8227 15.6217 14.3504 15.6217V17.8035C14.2327 17.8035 14.1235 17.7558 14.0457 17.6768L15.6007 16.1464ZM16.8675 17.4335L15.6007 16.1464L14.0457 17.6768L15.3125 18.9639L16.8675 17.4335ZM17.4139 15.2345L15.3013 17.445L16.8786 18.9524L18.9912 16.742L17.4139 15.2345ZM17.9796 14.8386C17.7662 14.9321 17.5742 15.0668 17.4141 15.2343L18.9911 16.7421C18.9533 16.7816 18.9073 16.8142 18.8552 16.837L17.9796 14.8386ZM18.6566 14.6915C18.4231 14.6949 18.193 14.7451 17.9796 14.8386L18.8552 16.837C18.8031 16.8598 18.7464 16.8722 18.6886 16.8731L18.6566 14.6915ZM19.3378 14.8187C19.1216 14.7315 18.8901 14.6881 18.6566 14.6915L18.6886 16.8731C18.6307 16.8739 18.5736 16.8632 18.5207 16.8418L19.3378 14.8187Z" fill="url(#paint5_linear_258_44598)" mask="url(#path-9-inside-2_258_44598)"/>
    <defs>
        <filter id="filter0_ii_258_44598" x="1.77424" y="3.69336" width="4.32427" height="3.44323" filterUnits="userSpaceOnUse" color-interpolation-filters="sRGB">
            <feFlood flood-opacity="0" result="BackgroundImageFix"/>
            <feBlend mode="normal" in="SourceGraphic" in2="BackgroundImageFix" result="shape"/>
            <feColorMatrix in="SourceAlpha" type="matrix" values="0 0 0 0 0 0 0 0 0 0 0 0 0 0 0 0 0 0 127 0" result="hardAlpha"/>
            <feOffset dx="-2.18182" dy="2.18182"/>
            <feGaussianBlur stdDeviation="1.63636"/>
            <feComposite in2="hardAlpha" operator="arithmetic" k2="-1" k3="1"/>
            <feColorMatrix type="matrix" values="0 0 0 0 0.311184 0 0 0 0 0.670339 0 0 0 0 0.995822 0 0 0 0.7 0"/>
            <feBlend mode="normal" in2="shape" result="effect1_innerShadow_258_44598"/>
            <feColorMatrix in="SourceAlpha" type="matrix" values="0 0 0 0 0 0 0 0 0 0 0 0 0 0 0 0 0 0 127 0" result="hardAlpha"/>
            <feOffset dx="-1.09091" dy="1.09091"/>
            <feComposite in2="hardAlpha" operator="arithmetic" k2="-1" k3="1"/>
            <feColorMatrix type="matrix" values="0 0 0 0 0.813889 0 0 0 0 0.911521 0 0 0 0 1 0 0 0 0.09 0"/>
            <feBlend mode="normal" in2="effect1_innerShadow_258_44598" result="effect2_innerShadow_258_44598"/>
        </filter>
        <filter id="filter1_ii_258_44598" x="0.818182" y="2" width="17.4262" height="22.9589" filterUnits="userSpaceOnUse" color-interpolation-filters="sRGB">
            <feFlood flood-opacity="0" result="BackgroundImageFix"/>
            <feBlend mode="normal" in="SourceGraphic" in2="BackgroundImageFix" result="shape"/>
            <feColorMatrix in="SourceAlpha" type="matrix" values="0 0 0 0 0 0 0 0 0 0 0 0 0 0 0 0 0 0 127 0" result="hardAlpha"/>
            <feOffset dx="-2.18182" dy="2.18182"/>
            <feGaussianBlur stdDeviation="1.63636"/>
            <feComposite in2="hardAlpha" operator="arithmetic" k2="-1" k3="1"/>
            <feColorMatrix type="matrix" values="0 0 0 0 0.311184 0 0 0 0 0.670339 0 0 0 0 0.995822 0 0 0 0.7 0"/>
            <feBlend mode="normal" in2="shape" result="effect1_innerShadow_258_44598"/>
            <feColorMatrix in="SourceAlpha" type="matrix" values="0 0 0 0 0 0 0 0 0 0 0 0 0 0 0 0 0 0 127 0" result="hardAlpha"/>
            <feOffset dx="-1.09091" dy="1.09091"/>
            <feComposite in2="hardAlpha" operator="arithmetic" k2="-1" k3="1"/>
            <feColorMatrix type="matrix" values="0 0 0 0 0.813889 0 0 0 0 0.911521 0 0 0 0 1 0 0 0 0.09 0"/>
            <feBlend mode="normal" in2="effect1_innerShadow_258_44598" result="effect2_innerShadow_258_44598"/>
        </filter>
        <filter id="filter2_ii_258_44598" x="8.53742" y="11.9365" width="9.60638" height="12.2621" filterUnits="userSpaceOnUse" color-interpolation-filters="sRGB">
            <feFlood flood-opacity="0" result="BackgroundImageFix"/>
            <feBlend mode="normal" in="SourceGraphic" in2="BackgroundImageFix" result="shape"/>
            <feColorMatrix in="SourceAlpha" type="matrix" values="0 0 0 0 0 0 0 0 0 0 0 0 0 0 0 0 0 0 127 0" result="hardAlpha"/>
            <feOffset dx="-2.18182" dy="2.18182"/>
            <feGaussianBlur stdDeviation="1.63636"/>
            <feComposite in2="hardAlpha" operator="arithmetic" k2="-1" k3="1"/>
            <feColorMatrix type="matrix" values="0 0 0 0 0.311184 0 0 0 0 0.670339 0 0 0 0 0.995822 0 0 0 0.7 0"/>
            <feBlend mode="normal" in2="shape" result="effect1_innerShadow_258_44598"/>
            <feColorMatrix in="SourceAlpha" type="matrix" values="0 0 0 0 0 0 0 0 0 0 0 0 0 0 0 0 0 0 127 0" result="hardAlpha"/>
            <feOffset dx="-1.09091" dy="1.09091"/>
            <feComposite in2="hardAlpha" operator="arithmetic" k2="-1" k3="1"/>
            <feColorMatrix type="matrix" values="0 0 0 0 0.813889 0 0 0 0 0.911521 0 0 0 0 1 0 0 0 0.09 0"/>
            <feBlend mode="normal" in2="effect1_innerShadow_258_44598" result="effect2_innerShadow_258_44598"/>
        </filter>
        <linearGradient id="paint0_linear_258_44598" x1="13.5184" y1="9.17251" x2="5.04935" y2="10.4737" gradientUnits="userSpaceOnUse">
            <stop offset="0.199258" stop-color="#EEFDFF" stop-opacity="0"/>
            <stop offset="0.883971" stop-color="#EEFDFF"/>
        </linearGradient>
        <linearGradient id="paint1_linear_258_44598" x1="24.1299" y1="15.2558" x2="12.1886" y2="16.893" gradientUnits="userSpaceOnUse">
            <stop offset="0.557454" stop-color="#BFB7FF"/>
            <stop offset="0.849617" stop-color="#BFB7FF" stop-opacity="0"/>
        </linearGradient>
        <linearGradient id="paint2_linear_258_44598" x1="13.4149" y1="3.70314" x2="5.67904" y2="17.5136" gradientUnits="userSpaceOnUse">
            <stop stop-color="#EBFCFF" stop-opacity="0"/>
            <stop offset="1" stop-color="#EBFCFF"/>
        </linearGradient>
        <linearGradient id="paint3_linear_258_44598" x1="17.5889" y1="15.821" x2="12.6155" y2="16.7662" gradientUnits="userSpaceOnUse">
            <stop offset="0.199258" stop-color="#EEFDFF" stop-opacity="0"/>
            <stop offset="0.883971" stop-color="#EEFDFF"/>
        </linearGradient>
        <linearGradient id="paint4_linear_258_44598" x1="23.8966" y1="18.7444" x2="16.8672" y2="19.9365" gradientUnits="userSpaceOnUse">
            <stop offset="0.557454" stop-color="#BFB7FF"/>
            <stop offset="0.849617" stop-color="#BFB7FF" stop-opacity="0"/>
        </linearGradient>
        <linearGradient id="paint5_linear_258_44598" x1="17.5273" y1="13.1927" x2="14.2509" y2="20.428" gradientUnits="userSpaceOnUse">
            <stop stop-color="#EBFCFF" stop-opacity="0"/>
            <stop offset="1" stop-color="#EBFCFF"/>
        </linearGradient>
    </defs>
</svg>
