<svg width="24" height="20" viewBox="0 0 24 20" fill="none" xmlns="http://www.w3.org/2000/svg">
    <path fill-rule="evenodd" clip-rule="evenodd"
          d="M22.6969 18.0568V5.37368C22.6969 4.88606 22.3172 4.4891 21.8508 4.4891H17.1352V17.7457C17.1352 17.9172 17.0039 18.0544 16.8398 18.0568C16.6758 18.0568 16.5422 17.9172 16.5422 17.7457V0.884587C16.5422 0.396962 16.1625 0 15.6961 0H8.29688C7.83047 0 7.45078 0.396962 7.45078 0.884587V17.7506C7.45078 17.9221 7.31719 18.0593 7.15547 18.0593C6.99375 18.0593 6.86016 17.9196 6.86016 17.7506V4.49155H2.25703C1.79062 4.49155 1.41094 4.88851 1.41094 5.37613L1.5 18.0372L0 18.025V20H24V18.025L22.6969 18.0568ZM4.50938 6.70424H5.72344V7.97599H4.50938V6.70424ZM5.72344 8.85812H4.50938V10.1299H5.72344V8.85812ZM4.50938 11.0855H5.72344V12.3548H4.50938V11.0855ZM3.82969 6.70424H2.61562V7.97599H3.82969V6.70424ZM2.61562 8.85812H3.82969V10.1299H2.61562V8.85812ZM3.82969 11.0855H2.61562V12.3548H3.82969V11.0855ZM2.61562 13.2173H3.82969V14.4866H2.61562V13.2173ZM2.64844 16.5597H3.8625V15.2904H2.64844V16.5597ZM4.50938 13.2173H5.72344V14.4866H4.50938V13.2173ZM4.5375 16.5597H5.75391V15.2904H4.5375V16.5597ZM13.875 18.6743H10.125V11.0047C10.125 10.789 10.2937 10.6126 10.5 10.6126H13.5C13.7063 10.6126 13.875 10.789 13.875 11.0047V18.6743ZM9.37969 4.72433C9.37969 6.23867 10.5539 7.46386 12 7.46386C13.4461 7.46386 14.6203 6.24112 14.6203 4.72678C14.6203 3.21245 13.4461 1.98726 12 1.98726C10.5539 1.98726 9.37969 3.21 9.37969 4.72433ZM20.2641 6.70424H21.4805V7.97599H20.2641V6.70424ZM21.4805 8.85812H20.2641V10.1299H21.4805V8.85812ZM20.2641 11.0855H21.4805V12.3548H20.2641V11.0855ZM19.5844 6.70424H18.3703V7.97599H19.5844V6.70424ZM18.3703 8.85812H19.5844V10.1299H18.3703V8.85812ZM19.5844 11.0855H18.3703V12.3548H19.5844V11.0855ZM18.3703 13.2173H19.5844V14.4866H18.3703V13.2173ZM18.4008 16.5597H19.6172V15.2904H18.4008V16.5597ZM20.2641 13.2173H21.4805V14.4866H20.2641V13.2173ZM20.2922 16.5597H21.5062V15.2904H20.2922V16.5597Z"
          fill="white"/>
</svg>
