<svg width="24" height="24" viewBox="0 0 24 24" fill="none" xmlns="http://www.w3.org/2000/svg">
    <g filter="url(#filter0_ii_258_44599)">
        <path d="M17.037 5.76936C17.037 5.76936 17.0479 5.76936 17.0533 5.76936C17.1079 5.78027 17.1679 5.78572 17.2224 5.78027C17.2224 5.78027 17.2279 5.78027 17.2333 5.78027C17.2933 5.78027 17.3533 5.77481 17.4133 5.75845C17.4133 5.75845 17.4188 5.75845 17.4242 5.75845C17.4897 5.74754 17.5552 5.72572 17.6206 5.7039L17.7079 5.67118C17.7079 5.67118 17.7242 5.66572 17.7352 5.66027C17.7515 5.66027 17.7624 5.64936 17.7788 5.64936C17.7952 5.64936 17.8115 5.6439 17.8224 5.63845C17.8388 5.63845 17.8552 5.633 17.8661 5.633C17.8824 5.633 17.8988 5.633 17.9152 5.633C17.9261 5.633 17.937 5.633 17.9479 5.633H17.9588C17.9752 5.633 17.9915 5.633 18.0079 5.633C18.0297 5.633 18.0461 5.633 18.0679 5.63845C18.0897 5.63845 18.117 5.64936 18.1388 5.65481C18.1442 5.65481 18.1552 5.65481 18.1606 5.66572L20.5006 6.55481C20.4352 6.52754 20.3642 6.51663 20.2879 6.52209C20.2115 6.52209 20.1297 6.53845 20.0479 6.57118L19.9606 6.6039C19.9606 6.6039 19.9333 6.61481 19.917 6.62027C19.8952 6.62572 19.8733 6.63663 19.8515 6.64209C19.8297 6.64754 19.8024 6.653 19.7806 6.65845C19.7752 6.65845 19.7697 6.65845 19.7642 6.65845C19.7642 6.65845 19.7588 6.65845 19.7533 6.65845C19.737 6.65845 19.7261 6.6639 19.7097 6.6639C19.6824 6.6639 19.6606 6.66936 19.6333 6.67481C19.6115 6.67481 19.5897 6.67481 19.5733 6.67481C19.5733 6.67481 19.5679 6.67481 19.5624 6.67481C19.5624 6.67481 19.557 6.67481 19.5515 6.67481C19.5242 6.67481 19.497 6.67481 19.4642 6.67481C19.437 6.67481 19.4097 6.66936 19.3879 6.6639C19.3879 6.6639 19.377 6.6639 19.3715 6.6639C19.3715 6.6639 19.3661 6.6639 19.3606 6.6639C19.317 6.65845 19.2788 6.64754 19.2406 6.63118C19.2297 6.63118 19.2133 6.62027 19.2024 6.61481L16.8624 5.72572C16.917 5.74754 16.9715 5.7639 17.0315 5.76936H17.037Z" fill="#316BD7"/>
    </g>
    <path d="M13.5734 20.835C13.8788 20.9495 14.1788 21.1895 14.3261 21.3095L14.3916 21.364C14.4679 21.4568 14.5661 21.5222 14.6807 21.5659L12.3407 20.6768C12.2316 20.6331 12.1334 20.5677 12.0516 20.475L11.9861 20.4204C11.8443 20.3004 11.5388 20.0604 11.2334 19.9459L13.5734 20.835Z" fill="#2254DB"/>
    <path d="M9.85904 14.9384C9.85904 14.9384 9.8754 14.9384 9.88086 14.9384C9.96813 14.9548 10.0609 14.9602 10.1536 14.9602C10.1536 14.9602 10.1645 14.9602 10.17 14.9602C10.2627 14.9602 10.3609 14.9493 10.459 14.9275C10.4645 14.9275 10.4699 14.9275 10.4754 14.9275C10.579 14.9057 10.6827 14.8784 10.7918 14.8402C10.879 14.8075 10.9609 14.7748 11.0427 14.7311C11.1245 14.6929 11.2009 14.6493 11.2772 14.6002C11.2827 14.6002 11.2936 14.5893 11.299 14.5838C11.3699 14.5348 11.4463 14.4857 11.5172 14.4311C11.5227 14.4311 11.5281 14.4202 11.5336 14.4148C11.6045 14.3602 11.6754 14.3002 11.7463 14.2348C11.7463 14.2348 11.7572 14.2238 11.7627 14.2184C11.8281 14.1584 11.8936 14.0929 11.959 14.022C11.9699 14.0111 11.9809 14.0002 11.9918 13.9893C12.0518 13.9238 12.1118 13.8529 12.1718 13.782C12.1881 13.7657 12.199 13.7493 12.2154 13.7329C12.2645 13.6729 12.3081 13.6129 12.3518 13.5475C12.3681 13.5257 12.3845 13.5038 12.4009 13.482C12.439 13.4275 12.4718 13.3729 12.51 13.3184C12.5318 13.2802 12.559 13.2475 12.5809 13.2093C12.5972 13.182 12.6081 13.1548 12.6245 13.1275C12.6736 13.0402 12.7227 12.9475 12.7718 12.8548C12.7936 12.8166 12.8099 12.7784 12.8263 12.7348C12.8645 12.6475 12.9027 12.5657 12.9409 12.4784C12.9572 12.4348 12.979 12.3911 12.9954 12.3475C13.0063 12.3148 13.0172 12.282 13.0336 12.2493C13.0609 12.1675 13.0881 12.0911 13.1154 12.0093C13.1154 11.9984 13.1263 11.982 13.1263 11.9711C13.1536 11.8729 13.1809 11.7693 13.2081 11.6711C13.2081 11.6602 13.2136 11.6493 13.219 11.6384C13.2409 11.5348 13.2627 11.4311 13.279 11.3275C13.279 11.322 13.279 11.3111 13.279 11.3057C13.2954 11.1966 13.3118 11.0875 13.3227 10.9729C13.3227 10.9729 13.3227 10.9729 13.3227 10.9675C13.3336 10.8529 13.339 10.7438 13.3445 10.6293C13.3445 10.4766 13.3445 10.3293 13.3281 10.1875C13.3281 10.1875 13.3281 10.1766 13.3281 10.1711C13.3172 10.0293 13.2954 9.89839 13.2681 9.76748C13.2409 9.64203 13.2081 9.51657 13.1699 9.40203C13.1699 9.40203 13.1699 9.39112 13.1699 9.38566C13.1318 9.27112 13.0827 9.16748 13.0336 9.0693C13.0336 9.05839 13.0227 9.05294 13.0172 9.04203C12.9736 8.95475 12.9245 8.87839 12.8699 8.80203C12.859 8.78566 12.8536 8.77475 12.8427 8.75839C12.8263 8.73657 12.8099 8.72566 12.7936 8.70384C12.7172 8.61112 12.6354 8.5293 12.5481 8.45839C12.5209 8.43657 12.4936 8.41475 12.4663 8.39294C12.3572 8.31657 12.2481 8.25112 12.1281 8.20203L14.4681 9.09112C14.5881 9.13475 14.7027 9.20566 14.8063 9.28203C14.8336 9.30384 14.8609 9.32566 14.8881 9.34748C14.9754 9.41839 15.0572 9.50021 15.1336 9.59294C15.1445 9.60384 15.1554 9.61475 15.1663 9.62566C15.1663 9.63112 15.1772 9.63657 15.1772 9.64748C15.1881 9.66384 15.199 9.67475 15.2045 9.69112C15.2318 9.7293 15.2645 9.77294 15.2863 9.81112C15.3081 9.8493 15.3299 9.88748 15.3518 9.92566C15.3518 9.93657 15.3627 9.94203 15.3681 9.95293C15.3681 9.95839 15.3736 9.96384 15.379 9.9693C15.4009 10.0184 15.4281 10.0675 15.4445 10.1166C15.4609 10.1602 15.4827 10.2038 15.499 10.2529C15.499 10.2584 15.499 10.2638 15.5045 10.2693C15.5045 10.2693 15.5045 10.2802 15.5045 10.2857C15.5154 10.3184 15.5263 10.3511 15.5372 10.3838C15.5481 10.4275 15.5645 10.4711 15.5754 10.5148C15.5863 10.5584 15.5972 10.5966 15.6027 10.6402C15.6027 10.6402 15.6027 10.6402 15.6027 10.6457C15.6081 10.6838 15.619 10.722 15.6245 10.7657C15.6299 10.8093 15.6354 10.8475 15.6463 10.8911C15.6518 10.9348 15.6572 10.9784 15.6627 11.022C15.6627 11.0329 15.6627 11.0384 15.6627 11.0493C15.6627 11.0493 15.6627 11.0602 15.6627 11.0657C15.6627 11.0929 15.6627 11.1257 15.6681 11.1529C15.6681 11.1966 15.6681 11.2402 15.6736 11.2893C15.6736 11.3329 15.6736 11.382 15.6736 11.4257C15.6736 11.4529 15.6736 11.4802 15.6736 11.5075C15.6736 11.5293 15.6736 11.5457 15.6736 11.5675C15.6736 11.6166 15.6736 11.6657 15.6681 11.7148C15.6681 11.7584 15.6627 11.802 15.6572 11.8457C15.6572 11.8457 15.6572 11.8457 15.6572 11.8511C15.6572 11.8511 15.6572 11.8511 15.6572 11.8566C15.6572 11.9057 15.6463 11.9548 15.6409 12.0093C15.6354 12.0584 15.6245 12.1129 15.619 12.162C15.619 12.1675 15.619 12.1729 15.619 12.1784C15.619 12.1838 15.619 12.1948 15.619 12.2002C15.6136 12.2384 15.6081 12.2766 15.5972 12.3148C15.5863 12.3693 15.5754 12.4238 15.5645 12.4784C15.5645 12.4893 15.5645 12.5002 15.559 12.5111C15.559 12.522 15.559 12.5329 15.5536 12.5438C15.5481 12.5766 15.5372 12.6093 15.5263 12.6475C15.5099 12.7075 15.4936 12.7675 15.4772 12.822C15.4772 12.8275 15.4772 12.8384 15.4718 12.8438C15.4718 12.8602 15.4609 12.8711 15.4609 12.8875C15.4445 12.9366 15.4336 12.9802 15.4172 13.0238C15.4063 13.0566 15.3899 13.0893 15.379 13.122C15.3681 13.1548 15.3572 13.1875 15.3409 13.2202C15.3354 13.2366 15.3299 13.2584 15.319 13.2802C15.3081 13.3075 15.2972 13.3293 15.2863 13.3566C15.2481 13.4438 15.2099 13.5311 15.1718 13.6129C15.1554 13.6511 15.1336 13.6893 15.1172 13.7275C15.0736 13.8202 15.0245 13.9075 14.9699 14.0002C14.959 14.022 14.9481 14.0438 14.9372 14.0602C14.9372 14.0657 14.9318 14.0711 14.9263 14.0766C14.9045 14.1148 14.8827 14.1475 14.8554 14.1857C14.8281 14.2293 14.8009 14.2784 14.7681 14.322C14.7627 14.3329 14.7518 14.3438 14.7463 14.3493C14.7299 14.3711 14.7136 14.3929 14.7027 14.4148C14.6754 14.4475 14.6536 14.4857 14.6263 14.5184C14.6045 14.5457 14.5827 14.5729 14.5609 14.6002C14.5445 14.6166 14.5336 14.6329 14.5172 14.6493C14.5063 14.6602 14.4954 14.6766 14.4899 14.6875C14.4463 14.7366 14.4081 14.7857 14.3645 14.8348C14.359 14.8457 14.3481 14.8511 14.3427 14.862C14.3318 14.8729 14.3209 14.8838 14.3099 14.8948C14.2881 14.9166 14.2663 14.9438 14.2445 14.9657C14.2063 15.0038 14.1681 15.042 14.1245 15.0802C14.1245 15.0802 14.119 15.0857 14.1136 15.0911C14.1136 15.0911 14.1027 15.102 14.0972 15.102C14.0699 15.1293 14.0427 15.1511 14.0154 15.1784C13.9772 15.2111 13.9445 15.2384 13.9063 15.2657C13.9009 15.2657 13.8954 15.2766 13.8845 15.282C13.879 15.282 13.8736 15.2929 13.8681 15.2929C13.8463 15.3093 13.8245 15.3257 13.8027 15.342C13.7699 15.3693 13.7318 15.3911 13.699 15.4129C13.6827 15.4238 13.6663 15.4348 13.6554 15.4402C13.6499 15.4402 13.639 15.4511 13.6336 15.4566C13.6227 15.462 13.6118 15.4729 13.5954 15.4784C13.5627 15.5002 13.5245 15.5166 13.4918 15.5384C13.459 15.5548 13.4263 15.5711 13.3936 15.5875C13.3609 15.6038 13.3227 15.6202 13.2899 15.6366C13.2572 15.6529 13.219 15.6638 13.1863 15.6802C13.1754 15.6802 13.159 15.6911 13.1481 15.6966C13.1263 15.7075 13.1045 15.7129 13.0827 15.7184C13.0445 15.7293 13.0118 15.7402 12.9736 15.7511C12.9354 15.762 12.8972 15.7729 12.859 15.7784C12.8481 15.7784 12.8427 15.7784 12.8318 15.7784C12.8263 15.7784 12.8209 15.7784 12.8154 15.7784C12.7936 15.7784 12.7718 15.7893 12.7445 15.7893C12.7009 15.7948 12.6627 15.8002 12.6245 15.8057C12.5918 15.8057 12.559 15.8057 12.5263 15.8057C12.5263 15.8057 12.5154 15.8057 12.51 15.8057C12.51 15.8057 12.499 15.8057 12.4936 15.8057C12.4499 15.8057 12.4009 15.8057 12.3572 15.8057C12.3136 15.8057 12.2754 15.7948 12.2372 15.7893C12.2318 15.7893 12.2209 15.7893 12.2154 15.7893H12.2045C12.139 15.7784 12.0736 15.762 12.0136 15.7402C11.9918 15.7348 11.9699 15.7238 11.9481 15.7184L9.60813 14.8293C9.6954 14.862 9.78268 14.8838 9.8754 14.9002L9.85904 14.9384Z" fill="url(#paint0_linear_258_44599)"/>
    <g filter="url(#filter1_ii_258_44599)">
        <path d="M2.85466 14.5786C2.85466 14.5786 2.85466 14.5405 2.85466 14.5186C2.85466 14.4641 2.85466 14.415 2.85466 14.3605C2.85466 14.3168 2.85466 14.2732 2.85466 14.2296C2.85466 14.2077 2.85466 14.1859 2.85466 14.1641C2.85466 14.1096 2.85466 14.055 2.86012 14.0005C2.86012 13.9786 2.86012 13.9568 2.86012 13.9296C2.86012 13.9132 2.86012 13.9023 2.86012 13.8859C2.87103 13.7605 2.87648 13.635 2.89284 13.5096C2.89284 13.5096 2.89284 13.4986 2.89284 13.4932C2.89284 13.4659 2.8983 13.4441 2.8983 13.4168C2.90375 13.3459 2.91466 13.2805 2.92012 13.215C2.92012 13.1768 2.93102 13.1386 2.93102 13.1059C2.93648 13.0459 2.94739 12.9914 2.95284 12.9314C2.95284 12.915 2.95284 12.8986 2.9583 12.8823C2.9583 12.8659 2.9583 12.855 2.96375 12.8386C2.96921 12.7786 2.98011 12.7241 2.98557 12.6696C2.98557 12.6477 2.99103 12.6259 2.99648 12.6096C3.00739 12.5386 3.01284 12.4732 3.02375 12.4241L3.04557 12.2441C3.04557 12.2114 3.05648 12.1841 3.06193 12.1514C3.06739 12.1132 3.0783 12.075 3.08375 12.0368C3.08921 11.9986 3.10012 11.9659 3.11102 11.9332C3.12193 11.895 3.13284 11.8568 3.14375 11.8186C3.15466 11.7805 3.17102 11.7368 3.18193 11.6986C3.18193 11.6877 3.19284 11.6714 3.1983 11.6605C3.1983 11.6496 3.20921 11.6386 3.20921 11.6277C3.22012 11.6059 3.22557 11.5786 3.23648 11.5568C3.24194 11.5405 3.25284 11.5241 3.2583 11.5077C3.30193 11.3986 3.35103 11.3005 3.40557 11.2077C3.41103 11.1968 3.41648 11.1805 3.42193 11.1696C3.42193 11.1641 3.43284 11.1532 3.4383 11.1477C3.4383 11.1368 3.44921 11.1314 3.45466 11.1205C3.47102 11.0986 3.48193 11.0768 3.4983 11.055C3.52012 11.0277 3.53648 11.0005 3.5583 10.9732C3.56921 10.9568 3.58011 10.9459 3.59102 10.9296C3.59102 10.9296 3.59103 10.9241 3.59648 10.9186C3.59648 10.9186 3.60193 10.9077 3.60739 10.9023C3.62375 10.8805 3.64012 10.8641 3.65648 10.8477C3.67284 10.8314 3.68921 10.815 3.70557 10.7986C3.72193 10.7823 3.73284 10.7714 3.74921 10.755C3.74921 10.755 3.74921 10.755 3.75466 10.755C3.76557 10.7441 3.77648 10.7332 3.78739 10.7277C3.7983 10.7168 3.81466 10.7059 3.82557 10.695C3.83648 10.6841 3.85284 10.6732 3.86375 10.6677C3.87466 10.6568 3.89102 10.6514 3.90193 10.6405C3.90739 10.6405 3.9183 10.6296 3.92375 10.6296C3.92375 10.6296 3.93466 10.6241 3.93466 10.6186C3.94557 10.6132 3.96194 10.6023 3.97284 10.5968C3.98375 10.5914 4.00012 10.5805 4.01103 10.575C4.02194 10.5696 4.0383 10.5641 4.04921 10.5586C4.06012 10.5532 4.07648 10.5477 4.08739 10.5423C4.08739 10.5423 4.0983 10.5423 4.10375 10.5368L4.19103 10.5041C4.30012 10.4659 4.40375 10.4114 4.50739 10.3459C4.50739 10.3459 4.50739 10.3459 4.51284 10.3459C4.61102 10.2805 4.70921 10.2041 4.80193 10.1223C4.89466 10.035 4.98194 9.94228 5.06375 9.83865C5.06375 9.83865 5.07466 9.82774 5.07466 9.82228C5.15648 9.7241 5.22739 9.61501 5.2983 9.50592C5.2983 9.50046 5.30921 9.49501 5.30921 9.4841C5.32012 9.46228 5.33102 9.44046 5.34193 9.41865C5.41284 9.29319 5.4783 9.16228 5.53284 9.03137C5.57648 8.92774 5.62011 8.8241 5.65284 8.71501C5.65284 8.71501 5.65284 8.70956 5.65284 8.7041C5.69648 8.56774 5.72921 8.43137 5.75102 8.28956C5.75102 8.28956 5.75102 8.28956 5.75102 8.2841C5.77284 8.14228 5.7892 8.00046 5.7892 7.85865C5.7892 7.79319 5.78921 7.72228 5.7783 7.65137C5.7783 7.65137 5.7783 7.64047 5.7783 7.63501C5.77284 7.56956 5.76193 7.50956 5.75102 7.44956C5.75102 7.43319 5.75103 7.42228 5.74557 7.40592C5.73466 7.36228 5.72921 7.3241 5.7183 7.29137C5.7183 7.26956 5.70739 7.24774 5.70193 7.23137C5.69103 7.18774 5.68011 7.14956 5.67466 7.12774C5.66921 7.11137 5.66375 7.09501 5.6583 7.07865C5.65284 7.05683 5.64739 7.04047 5.64193 7.01865C5.64193 6.99683 5.63103 6.98047 5.63103 6.95865C5.63103 6.93683 5.62557 6.92046 5.62012 6.89865C5.62012 6.88774 5.62012 6.87683 5.62012 6.86592C5.62012 6.86047 5.62012 6.85501 5.62012 6.84956C5.62012 6.82774 5.62011 6.81137 5.61466 6.78956C5.61466 6.76774 5.61466 6.75137 5.61466 6.72956C5.61466 6.70774 5.61466 6.69137 5.61466 6.66956C5.61466 6.64774 5.61466 6.63137 5.61466 6.60956C5.61466 6.59865 5.61466 6.59319 5.61466 6.58228C5.61466 6.58228 5.61466 6.58228 5.61466 6.57683C5.61466 6.56592 5.61466 6.55501 5.61466 6.5441C5.61466 6.52228 5.61466 6.50047 5.61466 6.47865C5.61466 6.45683 5.61466 6.43501 5.61466 6.41319C5.61466 6.39137 5.61466 6.36956 5.62012 6.34774C5.62012 6.32592 5.62557 6.3041 5.63103 6.28228C5.63103 6.26046 5.63648 6.23319 5.64193 6.21137C5.64193 6.1841 5.65284 6.16228 5.6583 6.13501C5.66375 6.10774 5.66921 6.08046 5.68012 6.05319C5.68557 6.03137 5.69102 6.00956 5.69648 5.98774C5.69648 5.98774 5.69648 5.98228 5.69648 5.97683C5.69648 5.97683 5.69648 5.96592 5.69648 5.96047C5.70739 5.92774 5.7183 5.89501 5.72921 5.86228C5.74557 5.81865 5.75648 5.78046 5.77284 5.73683C5.77284 5.72592 5.78375 5.72047 5.78375 5.70956C5.83284 5.5841 5.8983 5.45865 5.96921 5.33319C5.96921 5.32228 5.97466 5.31683 5.98012 5.30592C6.01285 5.25683 6.04012 5.20228 6.0783 5.15319C6.08921 5.13137 6.10557 5.11501 6.12193 5.09319C6.12739 5.08228 6.13284 5.07683 6.1383 5.06592C6.14921 5.05501 6.15466 5.0441 6.16557 5.02774C6.19284 4.99501 6.22012 4.95683 6.24739 4.9241C6.27466 4.89137 6.30194 4.8641 6.32921 4.83137C6.33466 4.82592 6.34012 4.81501 6.35103 4.80956L8.33103 2.6441C8.38557 2.60592 8.44012 2.56228 8.49466 2.51865C8.51648 2.50228 8.5383 2.49137 8.56011 2.47501C8.56011 2.47501 8.56012 2.47501 8.56557 2.47501C8.56557 2.47501 8.56557 2.47501 8.57103 2.47501C8.59284 2.4641 8.60921 2.44774 8.63103 2.43683C8.64739 2.42592 8.66375 2.41501 8.68012 2.40956C8.69648 2.39865 8.71284 2.39319 8.72375 2.38774C8.74012 2.38228 8.75103 2.37137 8.76739 2.36592C8.7783 2.36046 8.79466 2.35501 8.80557 2.34956C8.80557 2.34956 8.81648 2.34956 8.82194 2.3441C8.83284 2.3441 8.84375 2.33865 8.85466 2.33319C8.87103 2.32774 8.88739 2.32228 8.90921 2.31683C8.92557 2.31683 8.94739 2.30592 8.96375 2.30046C8.97466 2.30046 8.98557 2.30046 8.99102 2.30046C8.99102 2.30046 8.99648 2.30046 9.00194 2.30046C9.00739 2.30046 9.0183 2.30046 9.02375 2.30046C9.04557 2.30046 9.06739 2.29501 9.09466 2.29501C9.12193 2.29501 9.14375 2.29501 9.17103 2.29501C9.1983 2.29501 9.22557 2.29501 9.24739 2.29501C9.27466 2.29501 9.30194 2.30046 9.32921 2.30592C9.32921 2.30592 9.33466 2.30592 9.34012 2.30592C9.3783 2.31137 9.42193 2.32228 9.46012 2.33865C9.47103 2.33865 9.48739 2.34956 9.4983 2.34956L11.1619 2.98228C11.1619 2.98228 11.1783 2.97683 11.1838 2.97137C11.2328 2.93865 11.2874 2.89501 11.3419 2.84592C11.3419 2.84592 11.3528 2.83501 11.3583 2.83501C11.4074 2.79137 11.4565 2.74228 11.511 2.68774C11.5219 2.67683 11.5383 2.66046 11.5492 2.6441C11.5874 2.60046 11.6256 2.55683 11.6638 2.51319C11.6856 2.49137 11.7019 2.46956 11.7238 2.44228C11.751 2.40956 11.7728 2.38228 11.8001 2.34956C11.8383 2.30046 11.8819 2.25137 11.9201 2.19683C11.9419 2.16956 11.9638 2.14228 11.9801 2.11501C12.0347 2.03865 12.0892 1.96774 12.1383 1.89137C12.1547 1.86956 12.1656 1.84774 12.1819 1.83137C12.2365 1.74956 12.2856 1.67319 12.3292 1.60228C12.351 1.5641 12.3783 1.52592 12.4001 1.48774C12.4274 1.44956 12.4547 1.41137 12.4765 1.37865C12.4983 1.35137 12.5147 1.32956 12.5365 1.30228C12.5365 1.30228 12.5365 1.29683 12.5419 1.29137C12.5419 1.29137 12.5474 1.28592 12.5528 1.28046C12.5747 1.25319 12.6019 1.22592 12.6238 1.19865C12.6456 1.17137 12.6674 1.14956 12.6947 1.12774C12.7165 1.10592 12.7383 1.0841 12.7601 1.06228C12.7656 1.05683 12.771 1.05137 12.7765 1.04592C12.7765 1.04592 12.7765 1.04592 12.7819 1.04046C12.7928 1.02956 12.8092 1.01865 12.8201 1.00774C12.8419 0.991374 12.8638 0.97501 12.8801 0.958647C12.9019 0.942283 12.9183 0.925919 12.9401 0.91501C12.9619 0.898647 12.9783 0.887737 13.0001 0.871374C13.011 0.865919 13.0219 0.85501 13.0328 0.849556C13.0328 0.849556 13.0328 0.849556 13.0383 0.849556C13.0438 0.849556 13.0492 0.838647 13.0547 0.838647C13.071 0.827737 13.0928 0.816828 13.1092 0.805919C13.1256 0.79501 13.1474 0.784101 13.1638 0.778647C13.1801 0.767737 13.2019 0.762283 13.2183 0.751374C13.2347 0.740465 13.2565 0.73501 13.2728 0.729556C13.2783 0.729556 13.2892 0.724101 13.2947 0.724101C13.3056 0.724101 13.311 0.718647 13.3219 0.713192C13.3383 0.713192 13.3547 0.702283 13.371 0.696828C13.3874 0.696828 13.4038 0.685919 13.4201 0.685919C13.4365 0.685919 13.4583 0.680465 13.4747 0.67501C13.4965 0.67501 13.5128 0.67501 13.5347 0.669556C13.5456 0.669556 13.551 0.669556 13.5619 0.669556H13.5728C13.5838 0.669556 13.5947 0.669556 13.611 0.669556C13.6547 0.669556 13.6983 0.669556 13.7419 0.669556C13.7692 0.669556 13.7965 0.669556 13.8238 0.67501L15.8147 1.39501L18.1547 2.2841L16.1638 1.5641C16.0819 1.55319 16.0001 1.54774 15.9183 1.55319H15.9074C15.8256 1.55319 15.7383 1.56956 15.6401 1.60774C15.5528 1.64046 15.4601 1.6841 15.3728 1.73865C15.3728 1.73865 15.3728 1.73865 15.3674 1.73865C15.2801 1.79319 15.1983 1.85865 15.1165 1.92956C15.1165 1.92956 15.1165 1.92956 15.111 1.93501C15.0292 2.01137 14.9474 2.09319 14.8765 2.18046C14.8765 2.18046 14.8765 2.18592 14.871 2.19137C14.7947 2.2841 14.7238 2.38228 14.6583 2.48592C14.6147 2.55683 14.5656 2.63319 14.511 2.71501C14.511 2.72046 14.5001 2.73137 14.4947 2.73683C14.4838 2.75319 14.4728 2.7641 14.4619 2.78046C14.4128 2.85137 14.3583 2.92774 14.3038 2.99865C14.2928 3.01501 14.2819 3.03137 14.271 3.04774C14.2601 3.05865 14.2547 3.06956 14.2438 3.08046C14.2056 3.13501 14.1619 3.1841 14.1238 3.23319C14.1074 3.25501 14.0856 3.27683 14.0692 3.29865C14.0638 3.3041 14.0583 3.31501 14.0474 3.32046C14.0256 3.34228 14.0092 3.36956 13.9874 3.39137C13.9601 3.41865 13.9383 3.45137 13.911 3.47865C13.9001 3.49501 13.8838 3.50592 13.8728 3.52228C13.8619 3.53865 13.8456 3.54956 13.8347 3.56046C13.8238 3.57137 13.8074 3.58774 13.7965 3.6041C13.7692 3.63137 13.7365 3.6641 13.7092 3.69137C13.6983 3.69683 13.6928 3.70774 13.6874 3.71319C13.6874 3.71319 13.6765 3.7241 13.671 3.7241C13.6601 3.73501 13.6492 3.74046 13.6383 3.75137C13.6219 3.76774 13.6001 3.7841 13.5838 3.79501C13.5674 3.80592 13.551 3.81683 13.5401 3.82774C13.5292 3.83319 13.5238 3.83865 13.5128 3.8441C13.5128 3.8441 13.5074 3.8441 13.5019 3.84956C13.491 3.85501 13.4801 3.86592 13.4692 3.87137C13.4583 3.87683 13.4528 3.88228 13.4419 3.88774C13.431 3.88774 13.4256 3.89865 13.4147 3.89865C13.4092 3.89865 13.3983 3.9041 13.3928 3.90956C13.3874 3.91501 13.3765 3.91501 13.371 3.92046C13.371 3.92046 13.371 3.92046 13.3656 3.92046H13.3547C13.3492 3.92046 13.3383 3.92046 13.3328 3.92592C13.3274 3.92592 13.3165 3.92592 13.311 3.93137C13.3001 3.93137 13.2892 3.93137 13.2783 3.93683C13.2674 3.93683 13.2619 3.93683 13.251 3.93683C13.2347 3.93683 13.2238 3.93683 13.2074 3.93683C13.1856 3.93683 13.1692 3.93683 13.1474 3.93683C13.1474 3.93683 13.1419 3.93683 13.1365 3.93683C13.131 3.93683 13.1201 3.93683 13.1147 3.93683C13.0983 3.93683 13.0819 3.93683 13.0601 3.93137C13.0492 3.93137 13.0383 3.92592 13.0274 3.92046C13.0001 3.91501 12.9728 3.90956 12.9456 3.89865C12.9347 3.89865 12.9238 3.89865 12.9128 3.88774C12.891 3.88228 12.8747 3.87137 12.8528 3.86592L11.151 3.21683C11.0583 3.24956 10.9765 3.29865 10.8947 3.35319C10.8947 3.35319 10.8947 3.35319 10.8892 3.35319C10.8074 3.40774 10.731 3.46774 10.6601 3.52228L8.68012 5.68774C8.60375 5.76956 8.5383 5.85137 8.47285 5.93865C8.46739 5.9441 8.46194 5.95501 8.45648 5.96592C8.40194 6.04228 8.35284 6.11865 8.30921 6.20047C8.2383 6.32047 8.1783 6.44592 8.12375 6.57683C8.09103 6.6641 8.0583 6.75137 8.03102 6.83865C8.03102 6.83865 8.03102 6.8441 8.03102 6.84956C8.00375 6.94774 7.98194 7.05137 7.96557 7.14956C7.94921 7.24774 7.94375 7.34592 7.9383 7.4441C7.9383 7.4441 7.9383 7.4441 7.9383 7.44956C7.9383 7.54774 7.9383 7.64047 7.95466 7.72774C7.96557 7.82047 7.98739 7.90774 8.02012 7.98956C8.02557 8.01137 8.03648 8.03865 8.04193 8.07683C8.04193 8.08228 8.04193 8.09319 8.04193 8.09865C8.04193 8.12046 8.05284 8.13683 8.0583 8.15865C8.0583 8.18047 8.06921 8.20228 8.07466 8.2241C8.07466 8.24047 8.08012 8.25683 8.08557 8.27319C8.08557 8.28956 8.08557 8.30047 8.09102 8.31683C8.09102 8.32774 8.09103 8.33865 8.09648 8.35501C8.10193 8.38774 8.10739 8.42047 8.11284 8.45865C8.11284 8.47501 8.11284 8.49137 8.11284 8.50774C8.11284 8.50774 8.11284 8.51865 8.11284 8.5241C8.11284 8.52956 8.11284 8.53501 8.11284 8.54592C8.11284 8.56774 8.11284 8.58956 8.11284 8.61137C8.11284 8.62774 8.11284 8.6441 8.11284 8.66592C8.11284 8.68228 8.11284 8.69319 8.11284 8.70956C8.11284 8.71501 8.11284 8.72592 8.11284 8.73137C8.11284 8.74228 8.11284 8.75865 8.11284 8.76956C8.11284 8.80228 8.11284 8.82956 8.11284 8.86228C8.11284 8.89501 8.11284 8.92228 8.10739 8.95501C8.10739 8.98774 8.10193 9.02046 8.09648 9.04774C8.09648 9.08047 8.08557 9.11319 8.08012 9.14592C8.08012 9.14592 8.08012 9.15683 8.08012 9.16228C8.08012 9.16228 8.08012 9.16228 8.08012 9.16774C8.08012 9.19501 8.06921 9.21683 8.06921 9.2441C8.06375 9.27683 8.05285 9.31501 8.04739 9.34774C8.04194 9.38047 8.03103 9.41865 8.02012 9.45137C8.00921 9.48956 7.9983 9.52774 7.98739 9.56046C7.98739 9.56592 7.98739 9.57137 7.98193 9.57683C7.98193 9.57683 7.98193 9.58228 7.98193 9.58774C7.97103 9.62046 7.96012 9.65319 7.94921 9.68592C7.93285 9.74046 7.91103 9.79501 7.88921 9.84956C7.88375 9.87137 7.86739 9.88774 7.86193 9.9041C7.80739 10.0405 7.74193 10.1714 7.67103 10.2914C7.66012 10.3077 7.65466 10.3296 7.64375 10.3405C7.64375 10.3405 7.6383 10.3514 7.63284 10.3568C7.63284 10.3623 7.62193 10.3677 7.62193 10.3786C7.59466 10.4223 7.56739 10.4659 7.54012 10.5096C7.51285 10.5532 7.48011 10.5968 7.44739 10.635C7.43102 10.6568 7.41466 10.6732 7.3983 10.695C7.3983 10.7005 7.38739 10.7059 7.38739 10.7114C7.37648 10.7223 7.37103 10.7332 7.36012 10.7441C7.33284 10.7768 7.30557 10.8041 7.2783 10.8368C7.25103 10.8641 7.22921 10.8914 7.20193 10.9186C7.18012 10.9459 7.15284 10.9677 7.12557 10.9896C7.12557 10.9896 7.12557 10.9896 7.12012 10.995C7.0983 11.0114 7.08193 11.0332 7.06011 11.0496C7.0383 11.0714 7.01648 11.0877 6.98921 11.1041C6.96739 11.1205 6.94557 11.1368 6.92375 11.1532C6.90193 11.1696 6.88012 11.1859 6.8583 11.1968C6.84739 11.2023 6.83648 11.2077 6.82557 11.2186C6.82557 11.2186 6.82557 11.2186 6.82012 11.2186C6.80921 11.2241 6.80375 11.2296 6.79284 11.235C6.77103 11.2459 6.74921 11.2623 6.72739 11.2732C6.70557 11.2841 6.68375 11.295 6.66194 11.3059C6.64012 11.3168 6.6183 11.3277 6.59648 11.3386C6.57466 11.3496 6.55284 11.355 6.53102 11.3659C6.52011 11.3659 6.51466 11.3714 6.50375 11.3768L6.41648 11.4096C6.35102 11.4314 6.29103 11.4641 6.23103 11.5023C6.17103 11.5405 6.11648 11.5841 6.06193 11.6332C6.00739 11.6823 5.95284 11.7423 5.90375 11.8023C5.90375 11.8023 5.90375 11.8077 5.8983 11.8132C5.84921 11.8732 5.80557 11.9332 5.76739 12.0041C5.76739 12.015 5.75648 12.0205 5.75102 12.0314C5.74011 12.0532 5.72921 12.075 5.7183 12.0968C5.66375 12.1896 5.61466 12.2932 5.57103 12.3968C5.55466 12.435 5.5383 12.4732 5.52193 12.5114C5.52193 12.5223 5.51103 12.5332 5.51103 12.5441C5.4783 12.6314 5.45102 12.7241 5.42375 12.8223C5.39648 12.9259 5.37466 13.0296 5.3583 13.1386L5.33648 13.3186C5.33103 13.3677 5.32012 13.4332 5.30921 13.5041C5.30921 13.5259 5.30375 13.5477 5.2983 13.5696C5.29284 13.6241 5.28193 13.6786 5.27648 13.7386C5.27648 13.7714 5.27102 13.8041 5.26557 13.8368C5.26011 13.8914 5.2492 13.9514 5.24375 14.0114C5.24375 14.0441 5.2383 14.0823 5.23284 14.115C5.22739 14.1805 5.21648 14.2514 5.21102 14.3223C5.21102 14.355 5.20557 14.3823 5.20012 14.415C5.18921 14.5405 5.1783 14.6659 5.16739 14.7914C5.16739 14.8296 5.16739 14.8677 5.16194 14.9005C5.16194 14.955 5.15648 15.0096 5.15648 15.0641C5.15648 15.1296 5.15648 15.195 5.15102 15.2605C5.15102 15.3314 5.15102 15.4023 5.15102 15.4786C5.15102 15.5386 5.15102 15.5986 5.15102 15.6586C5.15102 15.6968 5.15102 15.7296 5.15102 15.7677C5.15102 15.8877 5.16193 16.0077 5.16739 16.1223C5.16739 16.1605 5.16739 16.1932 5.17284 16.2259C5.17284 16.2805 5.1783 16.335 5.18375 16.3841C5.18375 16.4223 5.18921 16.455 5.19466 16.4932C5.19466 16.5423 5.20557 16.5859 5.20557 16.635C5.20557 16.6677 5.21103 16.695 5.21648 16.7277C5.22193 16.7823 5.22739 16.8423 5.23284 16.8914C5.23284 16.9132 5.23284 16.935 5.2383 16.9568C5.24375 17.0168 5.24921 17.0768 5.25466 17.1205L5.26557 17.2023C5.27648 17.3168 5.30375 17.4096 5.32557 17.5077L7.13103 18.195C7.20739 18.2223 7.2783 18.2659 7.34375 18.315C7.36012 18.3259 7.37648 18.3423 7.3983 18.3586C7.45284 18.4077 7.50739 18.4568 7.55648 18.5168C7.56194 18.5223 7.57284 18.5277 7.5783 18.5386C7.5783 18.5386 7.5783 18.5441 7.58375 18.5496C7.58921 18.5605 7.59466 18.5659 7.60012 18.5768C7.61648 18.6041 7.6383 18.6259 7.65466 18.6586C7.67103 18.6805 7.68194 18.7077 7.69284 18.7296C7.69284 18.735 7.6983 18.7405 7.70375 18.7459C7.70375 18.7459 7.70375 18.7514 7.70921 18.7568C7.72557 18.7896 7.73648 18.8168 7.75284 18.8496C7.76375 18.8768 7.77466 18.9041 7.78557 18.9368C7.78557 18.9368 7.78557 18.9423 7.78557 18.9477C7.78557 18.9477 7.78557 18.9532 7.78557 18.9586C7.79103 18.9805 7.80194 19.0023 7.80739 19.0241C7.8183 19.0514 7.82375 19.0786 7.82921 19.1059C7.83466 19.1332 7.84012 19.1605 7.84557 19.1877C7.84557 19.215 7.85648 19.2423 7.86193 19.2641C7.86193 19.2914 7.87285 19.3186 7.87285 19.3459C7.87285 19.3732 7.8783 19.4005 7.88375 19.4277C7.88375 19.4277 7.88375 19.4386 7.88375 19.4441C7.88375 19.4441 7.88375 19.4496 7.88375 19.455C7.88375 19.4714 7.88375 19.4932 7.88375 19.5096C7.88375 19.5368 7.88375 19.5641 7.88375 19.5914C7.88375 19.6186 7.88375 19.6459 7.88375 19.6786C7.88375 19.695 7.88375 19.7114 7.88375 19.7277C7.88375 19.7441 7.88375 19.7605 7.88375 19.7714C7.88375 19.7877 7.88375 19.8041 7.88375 19.8205C7.88375 19.8368 7.88375 19.8586 7.88375 19.875C7.88375 19.875 7.88375 19.875 7.88375 19.8805C7.88375 19.8805 7.88375 19.8805 7.88375 19.8859C7.88375 19.9023 7.88375 19.9186 7.88375 19.9296C7.88375 19.9514 7.88375 19.9732 7.88375 19.995C7.88375 20.0059 7.88375 20.0168 7.88375 20.0277C7.88375 20.0332 7.88375 20.0386 7.88375 20.0441C7.88375 20.0496 7.88375 20.0605 7.88375 20.0659C7.88375 20.0932 7.8783 20.1205 7.87285 20.1477C7.87285 20.1586 7.87285 20.1641 7.87285 20.175C7.87285 20.1859 7.87285 20.1914 7.87285 20.2023C7.87285 20.2132 7.87284 20.2241 7.86739 20.235C7.86739 20.2623 7.85648 20.2841 7.85103 20.3114C7.85103 20.3114 7.85103 20.3223 7.85103 20.3277C7.84557 20.3659 7.83466 20.3986 7.82921 20.4314C7.8183 20.4641 7.81284 20.4914 7.80739 20.5186V20.5241C7.79648 20.5568 7.79103 20.5732 7.78557 20.5896C7.78557 20.6005 7.78012 20.6059 7.78012 20.6059C7.74739 20.7096 7.72011 20.8186 7.6983 20.9223C7.67648 21.0259 7.66557 21.1296 7.66011 21.2277C7.65466 21.3259 7.65466 21.4296 7.66011 21.5223C7.66557 21.615 7.67648 21.7077 7.69284 21.795C7.70921 21.8768 7.73102 21.9586 7.76375 22.035C7.76375 22.035 7.76375 22.0405 7.76375 22.0459C7.79103 22.1168 7.82375 22.1823 7.86193 22.2423C7.86193 22.2423 7.86739 22.2532 7.87285 22.2586C7.90012 22.3023 7.9383 22.3405 7.97102 22.3786C7.98739 22.395 7.9983 22.4114 8.01466 22.4223C8.06375 22.4659 8.11284 22.4986 8.16739 22.5259L5.82739 21.6368C5.77285 21.6096 5.72375 21.5714 5.67466 21.5332C5.6583 21.5223 5.64739 21.5059 5.63103 21.4896C5.60921 21.4677 5.58739 21.4514 5.57103 21.4241C5.55466 21.4077 5.54375 21.3859 5.53284 21.3641C5.53284 21.3641 5.52739 21.3532 5.52193 21.3477C5.52193 21.3477 5.51648 21.3368 5.51103 21.3368C5.49466 21.3096 5.48375 21.2877 5.46739 21.2605C5.45648 21.2386 5.44557 21.2114 5.43466 21.1896C5.43466 21.1786 5.42375 21.1677 5.42375 21.1568C5.42375 21.1568 5.42375 21.1514 5.42375 21.1459C5.42375 21.1405 5.4183 21.1296 5.41284 21.1241C5.40739 21.1023 5.39648 21.0805 5.39103 21.0532C5.38557 21.0314 5.38012 21.0096 5.36921 20.9823C5.36375 20.9605 5.3583 20.9386 5.35284 20.9114C5.35284 20.9114 5.35284 20.9114 5.35284 20.9059C5.35284 20.8896 5.34739 20.8677 5.34193 20.8459C5.34193 20.8241 5.33648 20.8023 5.33103 20.775C5.33103 20.7532 5.32557 20.7259 5.32557 20.7041C5.32557 20.6823 5.32557 20.655 5.32012 20.6332C5.32012 20.6114 5.32012 20.5896 5.32012 20.5677C5.32012 20.5459 5.32012 20.5186 5.32012 20.4968C5.32012 20.4696 5.32012 20.4477 5.32012 20.4205C5.32012 20.3932 5.32012 20.3714 5.32012 20.3441C5.32012 20.3223 5.32012 20.295 5.32557 20.2732C5.32557 20.2459 5.32557 20.2186 5.33648 20.1914C5.33648 20.1641 5.34193 20.1368 5.34739 20.1096C5.34739 20.0823 5.3583 20.0605 5.3583 20.0332C5.3583 20.0059 5.36921 19.9786 5.37466 19.9514C5.38012 19.9241 5.38557 19.8968 5.39648 19.8641C5.40194 19.8314 5.41284 19.8041 5.42375 19.7714C5.42375 19.755 5.43466 19.7386 5.44011 19.7223C5.44011 19.7223 5.44012 19.7114 5.44557 19.7005C5.44557 19.6841 5.45648 19.6623 5.46739 19.635C5.46739 19.635 5.46739 19.6296 5.46739 19.6241C5.47284 19.5968 5.48375 19.5696 5.48921 19.5368C5.50012 19.5041 5.50557 19.4659 5.51648 19.4277C5.51648 19.4277 5.51648 19.4168 5.51648 19.4114C5.52193 19.3786 5.53284 19.3405 5.5383 19.3023C5.5383 19.2914 5.5383 19.2859 5.5383 19.275C5.54375 19.2314 5.54921 19.1877 5.55466 19.1441C5.55466 19.1386 5.55466 19.1332 5.55466 19.1277C5.55466 19.0786 5.56557 19.035 5.56557 18.9859C5.56557 18.9859 5.56557 18.9859 5.56557 18.9805C5.56557 18.9314 5.56557 18.8768 5.56557 18.8277C5.56557 18.7296 5.56557 18.6368 5.55466 18.5496C5.55466 18.5496 5.55466 18.5441 5.55466 18.5386C5.54921 18.4514 5.53284 18.3641 5.51648 18.2823C5.50557 18.2223 5.48375 18.1677 5.46739 18.1077L3.48193 17.355C3.41648 17.3332 3.35648 17.2896 3.30193 17.2405C3.28557 17.2241 3.26921 17.2077 3.2583 17.1914C3.24193 17.175 3.22012 17.1586 3.20375 17.1368C3.18193 17.1096 3.16557 17.0823 3.14375 17.0496C3.1383 17.0386 3.12739 17.0223 3.12193 17.0059C3.12193 17.0059 3.12194 17.0005 3.11648 16.995C3.11648 16.9841 3.10557 16.9786 3.10012 16.9677C3.08921 16.9405 3.07284 16.9186 3.06193 16.8859C3.05102 16.8586 3.04012 16.8314 3.02921 16.8041C3.0183 16.7768 3.01285 16.7496 3.00194 16.7223C3.00194 16.7114 3.00194 16.7059 2.99648 16.695C2.99648 16.695 2.99648 16.6896 2.99648 16.6841C2.99648 16.6677 2.98557 16.6514 2.98012 16.635C2.97466 16.6023 2.96375 16.575 2.9583 16.5423C2.95284 16.5096 2.94739 16.4768 2.94194 16.4441C2.93648 16.4114 2.93102 16.3732 2.92557 16.335C2.92557 16.3241 2.92557 16.3077 2.92557 16.2968L2.91466 16.215C2.91466 16.1714 2.90375 16.1114 2.8983 16.0514C2.8983 16.0296 2.8983 16.0077 2.89284 15.9859C2.88739 15.9368 2.88193 15.8823 2.87648 15.8223C2.87648 15.8059 2.87648 15.7896 2.87102 15.7677C2.87102 15.7568 2.87102 15.7405 2.87102 15.7296C2.87102 15.6859 2.86012 15.6368 2.86012 15.5877C2.86012 15.5496 2.85466 15.5168 2.84921 15.4786C2.84921 15.4296 2.84375 15.375 2.8383 15.3205C2.8383 15.2932 2.8383 15.2605 2.83284 15.2332C2.83284 15.2277 2.83284 15.2223 2.83284 15.2168C2.82739 15.1023 2.82193 14.9823 2.81648 14.8623C2.81648 14.8514 2.81648 14.8405 2.81648 14.8296C2.81648 14.8023 2.81648 14.7805 2.81648 14.7532C2.81648 14.6932 2.81648 14.6332 2.81648 14.5732L2.85466 14.5786Z" fill="#316BD7"/>
    </g>
    <path d="M5.98195 12.9735L5.92037 13.3922C5.86585 13.7629 5.75094 14.6152 5.74065 15.2633L5.74066 15.2633L5.74059 15.2666C5.72561 15.9506 5.80798 16.6668 5.84821 17.0166L5.85112 17.042L5.86139 17.1189L5.86143 17.1189L5.86222 17.1255C5.90794 17.5032 6.00683 17.6676 6.05755 17.7183C6.06773 17.7285 6.07368 17.7318 6.07467 17.7324C6.07477 17.7324 6.07486 17.7325 6.07493 17.7325C6.07581 17.7327 6.08134 17.7335 6.09312 17.7322C6.10596 17.7308 6.12689 17.7267 6.15661 17.7159C6.1571 17.7158 6.1576 17.7156 6.15809 17.7154L6.24192 17.6839L6.24548 17.6826C6.86243 17.4562 7.47649 17.5821 7.91319 18.0167C8.32156 18.423 8.51459 19.036 8.50642 19.7045C8.52094 19.9761 8.47621 20.2459 8.43455 20.4335C8.41222 20.5339 8.38859 20.6202 8.36955 20.6835C8.36006 20.7151 8.35125 20.7425 8.34375 20.7644C8.34072 20.7733 8.33721 20.7833 8.33346 20.7933C8.22981 21.1337 8.21933 21.4588 8.26937 21.7028C8.31815 21.9407 8.40397 22.0266 8.43722 22.0496L10.3091 22.7568C10.3775 22.7777 10.419 22.784 10.4508 22.7849C10.481 22.7857 10.5218 22.7821 10.5866 22.7591C10.7981 22.683 11.071 22.4571 11.2914 22.0998C11.5634 21.6495 11.8387 21.2579 12.0934 20.9581C12.2208 20.8082 12.3491 20.674 12.4749 20.5652C12.5938 20.4623 12.7409 20.3552 12.9068 20.2949M5.98195 12.9735L19.8625 13.4219C20.4134 13.2201 20.8334 12.5438 20.9753 11.6765L20.9971 11.4965C21.0516 11.1201 21.1716 10.2365 21.1825 9.54376C21.1934 8.85104 21.1062 8.04922 21.068 7.70558L21.0571 7.61285C20.9534 6.75649 20.5662 6.37467 20.0371 6.57104L19.9498 6.60376C19.088 6.92013 18.4007 6.24376 18.4225 5.0874M5.98195 12.9735C6.04813 12.7087 6.14352 12.4819 6.25291 12.3052C6.39929 12.0687 6.54644 11.9586 6.64801 11.9215L6.65224 11.92L6.65223 11.9199L6.73603 11.8885C7.32306 11.6767 7.80499 11.1934 8.13631 10.6456C8.47248 10.0898 8.68955 9.41052 8.70244 8.73047C8.70935 8.38341 8.60476 7.98326 8.57251 7.8599L8.57033 7.85153L8.56524 7.83203L8.55873 7.81296C8.48996 7.61158 8.48582 7.31991 8.58239 6.98442C8.67748 6.65406 8.85968 6.32087 9.10816 6.0526L9.11055 6.05002L9.11054 6.05002L11.0553 3.92312C11.0686 3.91322 11.0813 3.90374 11.0934 3.89468C11.2263 3.79539 11.2928 3.74573 11.3659 3.71994L11.3714 3.71799L11.3714 3.71796C11.5443 3.65486 11.6999 3.7071 11.7641 3.77128L11.7714 3.77855L11.7715 3.77848C11.959 3.95907 12.2309 4.15585 12.5192 4.29281C12.7769 4.41527 13.1939 4.56049 13.5938 4.41727C13.7868 4.34812 13.958 4.21494 14.0869 4.09959C14.2263 3.97483 14.3657 3.82512 14.4953 3.67227C14.7546 3.36666 15.004 3.01378 15.173 2.73789L15.1742 2.73609L15.1741 2.73609C15.3925 2.37673 15.6652 2.15394 15.8792 2.07727L15.8852 2.07512L15.8852 2.07509C15.9418 2.05407 15.9867 2.04896 16.1008 2.05746L17.9887 2.74018M5.98195 12.9735L17.9887 2.74018M12.9068 20.2949C12.9067 20.2949 12.9066 20.295 12.9065 20.295L13.0934 20.8074L12.907 20.2948C12.9069 20.2948 12.9069 20.2949 12.9068 20.2949ZM12.9068 20.2949C13.1384 20.2104 13.3662 20.2265 13.5461 20.2675C13.7273 20.3088 13.8953 20.3834 14.0353 20.4588C14.3131 20.6084 14.5521 20.8011 14.6719 20.9028C14.6726 20.9034 14.6733 20.904 14.674 20.9045L14.7354 20.9556L14.7667 20.9818L14.7938 21.0123C14.8318 21.055 14.9295 21.126 15.1686 21.0408L15.1701 21.0403C15.244 21.0142 15.3248 20.9547 15.469 20.8388L17.3876 18.7599C17.5998 18.4945 17.7602 18.1561 17.843 17.8185C17.9291 17.468 17.9185 17.1744 17.8537 16.991L17.846 16.9692L17.8402 16.9469L17.838 16.9385C17.8058 16.8151 17.7011 16.4147 17.7081 16.0675M17.7081 16.0675C17.7081 16.0677 17.7081 16.0678 17.7081 16.068L18.2534 16.0783L17.7081 16.0672C17.7081 16.0673 17.7081 16.0674 17.7081 16.0675ZM17.7081 16.0675C17.7211 15.3876 17.9381 14.7085 18.2742 14.1528C18.6059 13.6044 19.0886 13.1206 19.6766 12.9092C19.9521 12.807 20.3049 12.3801 20.4352 11.5992L20.4556 11.4309L20.4554 11.4308L20.4573 11.4183C20.512 11.0409 20.6269 10.1889 20.6371 9.53517C20.6474 8.88275 20.5646 8.11483 20.5261 7.76756L20.5156 7.67839C20.5155 7.6781 20.5155 7.67781 20.5155 7.67751C20.4697 7.30052 20.3708 7.13334 20.3187 7.08063C20.3099 7.07167 20.3042 7.0677 20.3014 7.06613C20.2962 7.06566 20.2735 7.06521 20.2276 7.08215C20.2273 7.08224 20.2271 7.08232 20.2269 7.08241L20.1413 7.11449L20.1413 7.1145L20.1378 7.11581C19.5224 7.34169 18.9086 7.21872 18.471 6.78545C18.0572 6.37567 17.8644 5.75425 17.8772 5.07711L18.4225 5.0874M18.4225 5.0874C18.428 4.74376 18.5589 4.3074 18.6025 4.17649M18.4225 5.0874L17.8772 5.07874C17.884 4.64994 18.0361 4.15173 18.0834 4.00901M18.6025 4.17649L18.0822 4.01304C18.0826 4.01169 18.083 4.01035 18.0834 4.00901M18.6025 4.17649C18.8698 3.32558 18.6898 2.46376 18.2098 2.24013L18.6025 4.17649ZM18.0834 4.00901C18.1913 3.66339 18.2029 3.33096 18.152 3.08246C18.1036 2.84582 18.0195 2.76203 17.9887 2.74018M18.0834 4.00901L17.9887 2.74018M5.19526 15.2547C5.20177 14.8448 5.24707 14.3651 5.29416 13.966L5.61373 13.8062L5.62463 13.8007L5.19526 15.2547ZM5.19526 15.2547C5.17945 15.9769 5.26552 16.7245 5.30579 17.0742C5.30718 17.0864 5.30853 17.0981 5.30981 17.1092L5.32072 17.191C5.42436 18.0474 5.81163 18.4238 6.34617 18.2274L6.43344 18.1947M5.19526 15.2547L6.43344 18.1947M6.43344 18.1947C7.29526 17.8783 7.98254 18.5601 7.96072 19.7165L6.43344 18.1947ZM15.3516 21.5547C14.9534 21.6965 14.6044 21.6201 14.3862 21.3747L14.3207 21.3201L15.3516 21.5547ZM15.3516 21.5547C15.5287 21.4922 15.686 21.365 15.8233 21.2539C15.8297 21.2487 15.8362 21.2435 15.8425 21.2383L15.3516 21.5547ZM20.2994 7.06526C20.2994 7.06534 20.3 7.06566 20.3011 7.06597L20.2994 7.06526ZM13.3189 16.2415C12.4502 16.5598 11.6102 16.3836 11.0112 15.7901C10.4359 15.2202 10.1463 14.3318 10.1644 13.3195C10.1827 12.3005 10.5092 11.2799 11.0167 10.4437C11.5204 9.61391 12.2361 8.91236 13.0755 8.60593C13.947 8.28775 14.7873 8.46538 15.3857 9.06005C15.9598 9.63064 16.2479 10.5188 16.2297 11.5281C16.2115 12.5445 15.8849 13.565 15.3776 14.4016C14.8742 15.2316 14.1586 15.9349 13.3189 16.2415Z" fill="#7DFCF5"/>
    <path d="M5.98195 12.9735L5.92037 13.3922C5.86585 13.7629 5.75094 14.6152 5.74065 15.2633L5.74066 15.2633L5.74059 15.2666C5.72561 15.9506 5.80798 16.6668 5.84821 17.0166L5.85112 17.042L5.86139 17.1189L5.86143 17.1189L5.86222 17.1255C5.90794 17.5032 6.00683 17.6676 6.05755 17.7183C6.06773 17.7285 6.07368 17.7318 6.07467 17.7324C6.07477 17.7324 6.07486 17.7325 6.07493 17.7325C6.07581 17.7327 6.08134 17.7335 6.09312 17.7322C6.10596 17.7308 6.12689 17.7267 6.15661 17.7159C6.1571 17.7158 6.1576 17.7156 6.15809 17.7154L6.24192 17.6839L6.24548 17.6826C6.86243 17.4562 7.47649 17.5821 7.91319 18.0167C8.32156 18.423 8.51459 19.036 8.50642 19.7045C8.52094 19.9761 8.47621 20.2459 8.43455 20.4335C8.41222 20.5339 8.38859 20.6202 8.36955 20.6835C8.36006 20.7151 8.35125 20.7425 8.34375 20.7644C8.34072 20.7733 8.33721 20.7833 8.33346 20.7933C8.22981 21.1337 8.21933 21.4588 8.26937 21.7028C8.31815 21.9407 8.40397 22.0266 8.43722 22.0496L10.3091 22.7568C10.3775 22.7777 10.419 22.784 10.4508 22.7849C10.481 22.7857 10.5218 22.7821 10.5866 22.7591C10.7981 22.683 11.071 22.4571 11.2914 22.0998C11.5634 21.6495 11.8387 21.2579 12.0934 20.9581C12.2208 20.8082 12.3491 20.674 12.4749 20.5652C12.5938 20.4623 12.7409 20.3552 12.9068 20.2949M5.98195 12.9735L19.8625 13.4219C20.4134 13.2201 20.8334 12.5438 20.9753 11.6765L20.9971 11.4965C21.0516 11.1201 21.1716 10.2365 21.1825 9.54376C21.1934 8.85104 21.1062 8.04922 21.068 7.70558L21.0571 7.61285C20.9534 6.75649 20.5662 6.37467 20.0371 6.57104L19.9498 6.60376C19.088 6.92013 18.4007 6.24376 18.4225 5.0874M5.98195 12.9735C6.04813 12.7087 6.14352 12.4819 6.25291 12.3052C6.39929 12.0687 6.54644 11.9586 6.64801 11.9215L6.65224 11.92L6.65223 11.9199L6.73603 11.8885C7.32306 11.6767 7.80499 11.1934 8.13631 10.6456C8.47248 10.0898 8.68955 9.41052 8.70244 8.73047C8.70935 8.38341 8.60476 7.98326 8.57251 7.8599L8.57033 7.85153L8.56524 7.83203L8.55873 7.81296C8.48996 7.61158 8.48582 7.31991 8.58239 6.98442C8.67748 6.65406 8.85968 6.32087 9.10816 6.0526L9.11055 6.05002L9.11054 6.05002L11.0553 3.92312C11.0686 3.91322 11.0813 3.90374 11.0934 3.89468C11.2263 3.79539 11.2928 3.74573 11.3659 3.71994L11.3714 3.71799L11.3714 3.71796C11.5443 3.65486 11.6999 3.7071 11.7641 3.77128L11.7714 3.77855L11.7715 3.77848C11.959 3.95907 12.2309 4.15585 12.5192 4.29281C12.7769 4.41527 13.1939 4.56049 13.5938 4.41727C13.7868 4.34812 13.958 4.21494 14.0869 4.09959C14.2263 3.97483 14.3657 3.82512 14.4953 3.67227C14.7546 3.36666 15.004 3.01378 15.173 2.73789L15.1742 2.73609L15.1741 2.73609C15.3925 2.37673 15.6652 2.15394 15.8792 2.07727L15.8852 2.07512L15.8852 2.07509C15.9418 2.05407 15.9867 2.04896 16.1008 2.05746L17.9887 2.74018M5.98195 12.9735L17.9887 2.74018M12.9068 20.2949C12.9067 20.2949 12.9066 20.295 12.9065 20.295L13.0934 20.8074L12.907 20.2948C12.9069 20.2948 12.9069 20.2949 12.9068 20.2949ZM12.9068 20.2949C13.1384 20.2104 13.3662 20.2265 13.5461 20.2675C13.7273 20.3088 13.8953 20.3834 14.0353 20.4588C14.3131 20.6084 14.5521 20.8011 14.6719 20.9028C14.6726 20.9034 14.6733 20.904 14.674 20.9045L14.7354 20.9556L14.7667 20.9818L14.7938 21.0123C14.8318 21.055 14.9295 21.126 15.1686 21.0408L15.1701 21.0403C15.244 21.0142 15.3248 20.9547 15.469 20.8388L17.3876 18.7599C17.5998 18.4945 17.7602 18.1561 17.843 17.8185C17.9291 17.468 17.9185 17.1744 17.8537 16.991L17.846 16.9692L17.8402 16.9469L17.838 16.9385C17.8058 16.8151 17.7011 16.4147 17.7081 16.0675M17.7081 16.0675C17.7081 16.0677 17.7081 16.0678 17.7081 16.068L18.2534 16.0783L17.7081 16.0672C17.7081 16.0673 17.7081 16.0674 17.7081 16.0675ZM17.7081 16.0675C17.7211 15.3876 17.9381 14.7085 18.2742 14.1528C18.6059 13.6044 19.0886 13.1206 19.6766 12.9092C19.9521 12.807 20.3049 12.3801 20.4352 11.5992L20.4556 11.4309L20.4554 11.4308L20.4573 11.4183C20.512 11.0409 20.6269 10.1889 20.6371 9.53517C20.6474 8.88275 20.5646 8.11483 20.5261 7.76756L20.5156 7.67839C20.5155 7.6781 20.5155 7.67781 20.5155 7.67751C20.4697 7.30052 20.3708 7.13334 20.3187 7.08063C20.3099 7.07167 20.3042 7.0677 20.3014 7.06613C20.2962 7.06566 20.2735 7.06521 20.2276 7.08215C20.2273 7.08224 20.2271 7.08232 20.2269 7.08241L20.1413 7.11449L20.1413 7.1145L20.1378 7.11581C19.5224 7.34169 18.9086 7.21872 18.471 6.78545C18.0572 6.37567 17.8644 5.75425 17.8772 5.07711L18.4225 5.0874M18.4225 5.0874C18.428 4.74376 18.5589 4.3074 18.6025 4.17649M18.4225 5.0874L17.8772 5.07874C17.884 4.64994 18.0361 4.15173 18.0834 4.00901M18.6025 4.17649L18.0822 4.01304C18.0826 4.01169 18.083 4.01035 18.0834 4.00901M18.6025 4.17649C18.8698 3.32558 18.6898 2.46376 18.2098 2.24013L18.6025 4.17649ZM18.0834 4.00901C18.1913 3.66339 18.2029 3.33096 18.152 3.08246C18.1036 2.84582 18.0195 2.76203 17.9887 2.74018M18.0834 4.00901L17.9887 2.74018M5.19526 15.2547C5.20177 14.8448 5.24707 14.3651 5.29416 13.966L5.61373 13.8062L5.62463 13.8007L5.19526 15.2547ZM5.19526 15.2547C5.17945 15.9769 5.26552 16.7245 5.30579 17.0742C5.30718 17.0864 5.30853 17.0981 5.30981 17.1092L5.32072 17.191C5.42436 18.0474 5.81163 18.4238 6.34617 18.2274L6.43344 18.1947M5.19526 15.2547L6.43344 18.1947M6.43344 18.1947C7.29526 17.8783 7.98254 18.5601 7.96072 19.7165L6.43344 18.1947ZM15.3516 21.5547C14.9534 21.6965 14.6044 21.6201 14.3862 21.3747L14.3207 21.3201L15.3516 21.5547ZM15.3516 21.5547C15.5287 21.4922 15.686 21.365 15.8233 21.2539C15.8297 21.2487 15.8362 21.2435 15.8425 21.2383L15.3516 21.5547ZM20.2994 7.06526C20.2994 7.06534 20.3 7.06566 20.3011 7.06597L20.2994 7.06526ZM13.3189 16.2415C12.4502 16.5598 11.6102 16.3836 11.0112 15.7901C10.4359 15.2202 10.1463 14.3318 10.1644 13.3195C10.1827 12.3005 10.5092 11.2799 11.0167 10.4437C11.5204 9.61391 12.2361 8.91236 13.0755 8.60593C13.947 8.28775 14.7873 8.46538 15.3857 9.06005C15.9598 9.63064 16.2479 10.5188 16.2297 11.5281C16.2115 12.5445 15.8849 13.565 15.3776 14.4016C14.8742 15.2316 14.1586 15.9349 13.3189 16.2415Z" fill="url(#paint1_linear_258_44599)"/>
    <path d="M5.98195 12.9735L5.92037 13.3922C5.86585 13.7629 5.75094 14.6152 5.74065 15.2633L5.74066 15.2633L5.74059 15.2666C5.72561 15.9506 5.80798 16.6668 5.84821 17.0166L5.85112 17.042L5.86139 17.1189L5.86143 17.1189L5.86222 17.1255C5.90794 17.5032 6.00683 17.6676 6.05755 17.7183C6.06773 17.7285 6.07368 17.7318 6.07467 17.7324C6.07477 17.7324 6.07486 17.7325 6.07493 17.7325C6.07581 17.7327 6.08134 17.7335 6.09312 17.7322C6.10596 17.7308 6.12689 17.7267 6.15661 17.7159C6.1571 17.7158 6.1576 17.7156 6.15809 17.7154L6.24192 17.6839L6.24548 17.6826C6.86243 17.4562 7.47649 17.5821 7.91319 18.0167C8.32156 18.423 8.51459 19.036 8.50642 19.7045C8.52094 19.9761 8.47621 20.2459 8.43455 20.4335C8.41222 20.5339 8.38859 20.6202 8.36955 20.6835C8.36006 20.7151 8.35125 20.7425 8.34375 20.7644C8.34072 20.7733 8.33721 20.7833 8.33346 20.7933C8.22981 21.1337 8.21933 21.4588 8.26937 21.7028C8.31815 21.9407 8.40397 22.0266 8.43722 22.0496L10.3091 22.7568C10.3775 22.7777 10.419 22.784 10.4508 22.7849C10.481 22.7857 10.5218 22.7821 10.5866 22.7591C10.7981 22.683 11.071 22.4571 11.2914 22.0998C11.5634 21.6495 11.8387 21.2579 12.0934 20.9581C12.2208 20.8082 12.3491 20.674 12.4749 20.5652C12.5938 20.4623 12.7409 20.3552 12.9068 20.2949M5.98195 12.9735L19.8625 13.4219C20.4134 13.2201 20.8334 12.5438 20.9753 11.6765L20.9971 11.4965C21.0516 11.1201 21.1716 10.2365 21.1825 9.54376C21.1934 8.85104 21.1062 8.04922 21.068 7.70558L21.0571 7.61285C20.9534 6.75649 20.5662 6.37467 20.0371 6.57104L19.9498 6.60376C19.088 6.92013 18.4007 6.24376 18.4225 5.0874M5.98195 12.9735C6.04813 12.7087 6.14352 12.4819 6.25291 12.3052C6.39929 12.0687 6.54644 11.9586 6.64801 11.9215L6.65224 11.92L6.65223 11.9199L6.73603 11.8885C7.32306 11.6767 7.80499 11.1934 8.13631 10.6456C8.47248 10.0898 8.68955 9.41052 8.70244 8.73047C8.70935 8.38341 8.60476 7.98326 8.57251 7.8599L8.57033 7.85153L8.56524 7.83203L8.55873 7.81296C8.48996 7.61158 8.48582 7.31991 8.58239 6.98442C8.67748 6.65406 8.85968 6.32087 9.10816 6.0526L9.11055 6.05002L9.11054 6.05002L11.0553 3.92312C11.0686 3.91322 11.0813 3.90374 11.0934 3.89468C11.2263 3.79539 11.2928 3.74573 11.3659 3.71994L11.3714 3.71799L11.3714 3.71796C11.5443 3.65486 11.6999 3.7071 11.7641 3.77128L11.7714 3.77855L11.7715 3.77848C11.959 3.95907 12.2309 4.15585 12.5192 4.29281C12.7769 4.41527 13.1939 4.56049 13.5938 4.41727C13.7868 4.34812 13.958 4.21494 14.0869 4.09959C14.2263 3.97483 14.3657 3.82512 14.4953 3.67227C14.7546 3.36666 15.004 3.01378 15.173 2.73789L15.1742 2.73609L15.1741 2.73609C15.3925 2.37673 15.6652 2.15394 15.8792 2.07727L15.8852 2.07512L15.8852 2.07509C15.9418 2.05407 15.9867 2.04896 16.1008 2.05746L17.9887 2.74018M5.98195 12.9735L17.9887 2.74018M12.9068 20.2949C12.9067 20.2949 12.9066 20.295 12.9065 20.295L13.0934 20.8074L12.907 20.2948C12.9069 20.2948 12.9069 20.2949 12.9068 20.2949ZM12.9068 20.2949C13.1384 20.2104 13.3662 20.2265 13.5461 20.2675C13.7273 20.3088 13.8953 20.3834 14.0353 20.4588C14.3131 20.6084 14.5521 20.8011 14.6719 20.9028C14.6726 20.9034 14.6733 20.904 14.674 20.9045L14.7354 20.9556L14.7667 20.9818L14.7938 21.0123C14.8318 21.055 14.9295 21.126 15.1686 21.0408L15.1701 21.0403C15.244 21.0142 15.3248 20.9547 15.469 20.8388L17.3876 18.7599C17.5998 18.4945 17.7602 18.1561 17.843 17.8185C17.9291 17.468 17.9185 17.1744 17.8537 16.991L17.846 16.9692L17.8402 16.9469L17.838 16.9385C17.8058 16.8151 17.7011 16.4147 17.7081 16.0675M17.7081 16.0675C17.7081 16.0677 17.7081 16.0678 17.7081 16.068L18.2534 16.0783L17.7081 16.0672C17.7081 16.0673 17.7081 16.0674 17.7081 16.0675ZM17.7081 16.0675C17.7211 15.3876 17.9381 14.7085 18.2742 14.1528C18.6059 13.6044 19.0886 13.1206 19.6766 12.9092C19.9521 12.807 20.3049 12.3801 20.4352 11.5992L20.4556 11.4309L20.4554 11.4308L20.4573 11.4183C20.512 11.0409 20.6269 10.1889 20.6371 9.53517C20.6474 8.88275 20.5646 8.11483 20.5261 7.76756L20.5156 7.67839C20.5155 7.6781 20.5155 7.67781 20.5155 7.67751C20.4697 7.30052 20.3708 7.13334 20.3187 7.08063C20.3099 7.07167 20.3042 7.0677 20.3014 7.06613C20.2962 7.06566 20.2735 7.06521 20.2276 7.08215C20.2273 7.08224 20.2271 7.08232 20.2269 7.08241L20.1413 7.11449L20.1413 7.1145L20.1378 7.11581C19.5224 7.34169 18.9086 7.21872 18.471 6.78545C18.0572 6.37567 17.8644 5.75425 17.8772 5.07711L18.4225 5.0874M18.4225 5.0874C18.428 4.74376 18.5589 4.3074 18.6025 4.17649M18.4225 5.0874L17.8772 5.07874C17.884 4.64994 18.0361 4.15173 18.0834 4.00901M18.6025 4.17649L18.0822 4.01304C18.0826 4.01169 18.083 4.01035 18.0834 4.00901M18.6025 4.17649C18.8698 3.32558 18.6898 2.46376 18.2098 2.24013L18.6025 4.17649ZM18.0834 4.00901C18.1913 3.66339 18.2029 3.33096 18.152 3.08246C18.1036 2.84582 18.0195 2.76203 17.9887 2.74018M18.0834 4.00901L17.9887 2.74018M5.19526 15.2547C5.20177 14.8448 5.24707 14.3651 5.29416 13.966L5.61373 13.8062L5.62463 13.8007L5.19526 15.2547ZM5.19526 15.2547C5.17945 15.9769 5.26552 16.7245 5.30579 17.0742C5.30718 17.0864 5.30853 17.0981 5.30981 17.1092L5.32072 17.191C5.42436 18.0474 5.81163 18.4238 6.34617 18.2274L6.43344 18.1947M5.19526 15.2547L6.43344 18.1947M6.43344 18.1947C7.29526 17.8783 7.98254 18.5601 7.96072 19.7165L6.43344 18.1947ZM15.3516 21.5547C14.9534 21.6965 14.6044 21.6201 14.3862 21.3747L14.3207 21.3201L15.3516 21.5547ZM15.3516 21.5547C15.5287 21.4922 15.686 21.365 15.8233 21.2539C15.8297 21.2487 15.8362 21.2435 15.8425 21.2383L15.3516 21.5547ZM20.2994 7.06526C20.2994 7.06534 20.3 7.06566 20.3011 7.06597L20.2994 7.06526ZM13.3189 16.2415C12.4502 16.5598 11.6102 16.3836 11.0112 15.7901C10.4359 15.2202 10.1463 14.3318 10.1644 13.3195C10.1827 12.3005 10.5092 11.2799 11.0167 10.4437C11.5204 9.61391 12.2361 8.91236 13.0755 8.60593C13.947 8.28775 14.7873 8.46538 15.3857 9.06005C15.9598 9.63064 16.2479 10.5188 16.2297 11.5281C16.2115 12.5445 15.8849 13.565 15.3776 14.4016C14.8742 15.2316 14.1586 15.9349 13.3189 16.2415Z" fill="url(#paint2_linear_258_44599)"/>
    <path d="M5.98195 12.9735L5.92037 13.3922C5.86585 13.7629 5.75094 14.6152 5.74065 15.2633L5.74066 15.2633L5.74059 15.2666C5.72561 15.9506 5.80798 16.6668 5.84821 17.0166L5.85112 17.042L5.86139 17.1189L5.86143 17.1189L5.86222 17.1255C5.90794 17.5032 6.00683 17.6676 6.05755 17.7183C6.06773 17.7285 6.07368 17.7318 6.07467 17.7324C6.07477 17.7324 6.07486 17.7325 6.07493 17.7325C6.07581 17.7327 6.08134 17.7335 6.09312 17.7322C6.10596 17.7308 6.12689 17.7267 6.15661 17.7159C6.1571 17.7158 6.1576 17.7156 6.15809 17.7154L6.24192 17.6839L6.24548 17.6826C6.86243 17.4562 7.47649 17.5821 7.91319 18.0167C8.32156 18.423 8.51459 19.036 8.50642 19.7045C8.52094 19.9761 8.47621 20.2459 8.43455 20.4335C8.41222 20.5339 8.38859 20.6202 8.36955 20.6835C8.36006 20.7151 8.35125 20.7425 8.34375 20.7644C8.34072 20.7733 8.33721 20.7833 8.33346 20.7933C8.22981 21.1337 8.21933 21.4588 8.26937 21.7028C8.31815 21.9407 8.40397 22.0266 8.43722 22.0496L10.3091 22.7568C10.3775 22.7777 10.419 22.784 10.4508 22.7849C10.481 22.7857 10.5218 22.7821 10.5866 22.7591C10.7981 22.683 11.071 22.4571 11.2914 22.0998C11.5634 21.6495 11.8387 21.2579 12.0934 20.9581C12.2208 20.8082 12.3491 20.674 12.4749 20.5652C12.5938 20.4623 12.7409 20.3552 12.9068 20.2949M5.98195 12.9735L19.8625 13.4219C20.4134 13.2201 20.8334 12.5438 20.9753 11.6765L20.9971 11.4965C21.0516 11.1201 21.1716 10.2365 21.1825 9.54376C21.1934 8.85104 21.1062 8.04922 21.068 7.70558L21.0571 7.61285C20.9534 6.75649 20.5662 6.37467 20.0371 6.57104L19.9498 6.60376C19.088 6.92013 18.4007 6.24376 18.4225 5.0874M5.98195 12.9735C6.04813 12.7087 6.14352 12.4819 6.25291 12.3052C6.39929 12.0687 6.54644 11.9586 6.64801 11.9215L6.65224 11.92L6.65223 11.9199L6.73603 11.8885C7.32306 11.6767 7.80499 11.1934 8.13631 10.6456C8.47248 10.0898 8.68955 9.41052 8.70244 8.73047C8.70935 8.38341 8.60476 7.98326 8.57251 7.8599L8.57033 7.85153L8.56524 7.83203L8.55873 7.81296C8.48996 7.61158 8.48582 7.31991 8.58239 6.98442C8.67748 6.65406 8.85968 6.32087 9.10816 6.0526L9.11055 6.05002L9.11054 6.05002L11.0553 3.92312C11.0686 3.91322 11.0813 3.90374 11.0934 3.89468C11.2263 3.79539 11.2928 3.74573 11.3659 3.71994L11.3714 3.71799L11.3714 3.71796C11.5443 3.65486 11.6999 3.7071 11.7641 3.77128L11.7714 3.77855L11.7715 3.77848C11.959 3.95907 12.2309 4.15585 12.5192 4.29281C12.7769 4.41527 13.1939 4.56049 13.5938 4.41727C13.7868 4.34812 13.958 4.21494 14.0869 4.09959C14.2263 3.97483 14.3657 3.82512 14.4953 3.67227C14.7546 3.36666 15.004 3.01378 15.173 2.73789L15.1742 2.73609L15.1741 2.73609C15.3925 2.37673 15.6652 2.15394 15.8792 2.07727L15.8852 2.07512L15.8852 2.07509C15.9418 2.05407 15.9867 2.04896 16.1008 2.05746L17.9887 2.74018M5.98195 12.9735L17.9887 2.74018M12.9068 20.2949C12.9067 20.2949 12.9066 20.295 12.9065 20.295L13.0934 20.8074L12.907 20.2948C12.9069 20.2948 12.9069 20.2949 12.9068 20.2949ZM12.9068 20.2949C13.1384 20.2104 13.3662 20.2265 13.5461 20.2675C13.7273 20.3088 13.8953 20.3834 14.0353 20.4588C14.3131 20.6084 14.5521 20.8011 14.6719 20.9028C14.6726 20.9034 14.6733 20.904 14.674 20.9045L14.7354 20.9556L14.7667 20.9818L14.7938 21.0123C14.8318 21.055 14.9295 21.126 15.1686 21.0408L15.1701 21.0403C15.244 21.0142 15.3248 20.9547 15.469 20.8388L17.3876 18.7599C17.5998 18.4945 17.7602 18.1561 17.843 17.8185C17.9291 17.468 17.9185 17.1744 17.8537 16.991L17.846 16.9692L17.8402 16.9469L17.838 16.9385C17.8058 16.8151 17.7011 16.4147 17.7081 16.0675M17.7081 16.0675C17.7081 16.0677 17.7081 16.0678 17.7081 16.068L18.2534 16.0783L17.7081 16.0672C17.7081 16.0673 17.7081 16.0674 17.7081 16.0675ZM17.7081 16.0675C17.7211 15.3876 17.9381 14.7085 18.2742 14.1528C18.6059 13.6044 19.0886 13.1206 19.6766 12.9092C19.9521 12.807 20.3049 12.3801 20.4352 11.5992L20.4556 11.4309L20.4554 11.4308L20.4573 11.4183C20.512 11.0409 20.6269 10.1889 20.6371 9.53517C20.6474 8.88275 20.5646 8.11483 20.5261 7.76756L20.5156 7.67839C20.5155 7.6781 20.5155 7.67781 20.5155 7.67751C20.4697 7.30052 20.3708 7.13334 20.3187 7.08063C20.3099 7.07167 20.3042 7.0677 20.3014 7.06613C20.2962 7.06566 20.2735 7.06521 20.2276 7.08215C20.2273 7.08224 20.2271 7.08232 20.2269 7.08241L20.1413 7.11449L20.1413 7.1145L20.1378 7.11581C19.5224 7.34169 18.9086 7.21872 18.471 6.78545C18.0572 6.37567 17.8644 5.75425 17.8772 5.07711L18.4225 5.0874M18.4225 5.0874C18.428 4.74376 18.5589 4.3074 18.6025 4.17649M18.4225 5.0874L17.8772 5.07874C17.884 4.64994 18.0361 4.15173 18.0834 4.00901M18.6025 4.17649L18.0822 4.01304C18.0826 4.01169 18.083 4.01035 18.0834 4.00901M18.6025 4.17649C18.8698 3.32558 18.6898 2.46376 18.2098 2.24013L18.6025 4.17649ZM18.0834 4.00901C18.1913 3.66339 18.2029 3.33096 18.152 3.08246C18.1036 2.84582 18.0195 2.76203 17.9887 2.74018M18.0834 4.00901L17.9887 2.74018M5.19526 15.2547C5.20177 14.8448 5.24707 14.3651 5.29416 13.966L5.61373 13.8062L5.62463 13.8007L5.19526 15.2547ZM5.19526 15.2547C5.17945 15.9769 5.26552 16.7245 5.30579 17.0742C5.30718 17.0864 5.30853 17.0981 5.30981 17.1092L5.32072 17.191C5.42436 18.0474 5.81163 18.4238 6.34617 18.2274L6.43344 18.1947M5.19526 15.2547L6.43344 18.1947M6.43344 18.1947C7.29526 17.8783 7.98254 18.5601 7.96072 19.7165L6.43344 18.1947ZM15.3516 21.5547C14.9534 21.6965 14.6044 21.6201 14.3862 21.3747L14.3207 21.3201L15.3516 21.5547ZM15.3516 21.5547C15.5287 21.4922 15.686 21.365 15.8233 21.2539C15.8297 21.2487 15.8362 21.2435 15.8425 21.2383L15.3516 21.5547ZM20.2994 7.06526C20.2994 7.06534 20.3 7.06566 20.3011 7.06597L20.2994 7.06526ZM13.3189 16.2415C12.4502 16.5598 11.6102 16.3836 11.0112 15.7901C10.4359 15.2202 10.1463 14.3318 10.1644 13.3195C10.1827 12.3005 10.5092 11.2799 11.0167 10.4437C11.5204 9.61391 12.2361 8.91236 13.0755 8.60593C13.947 8.28775 14.7873 8.46538 15.3857 9.06005C15.9598 9.63064 16.2479 10.5188 16.2297 11.5281C16.2115 12.5445 15.8849 13.565 15.3776 14.4016C14.8742 15.2316 14.1586 15.9349 13.3189 16.2415Z" stroke="url(#paint3_linear_258_44599)" stroke-width="1.09091"/>
    <defs>
        <filter id="filter0_ii_258_44599" x="14.6806" y="5.633" width="5.82" height="3.22363" filterUnits="userSpaceOnUse" color-interpolation-filters="sRGB">
            <feFlood flood-opacity="0" result="BackgroundImageFix"/>
            <feBlend mode="normal" in="SourceGraphic" in2="BackgroundImageFix" result="shape"/>
            <feColorMatrix in="SourceAlpha" type="matrix" values="0 0 0 0 0 0 0 0 0 0 0 0 0 0 0 0 0 0 127 0" result="hardAlpha"/>
            <feOffset dx="-2.18182" dy="2.18182"/>
            <feGaussianBlur stdDeviation="1.63636"/>
            <feComposite in2="hardAlpha" operator="arithmetic" k2="-1" k3="1"/>
            <feColorMatrix type="matrix" values="0 0 0 0 0.311184 0 0 0 0 0.670339 0 0 0 0 0.995822 0 0 0 0.7 0"/>
            <feBlend mode="normal" in2="shape" result="effect1_innerShadow_258_44599"/>
            <feColorMatrix in="SourceAlpha" type="matrix" values="0 0 0 0 0 0 0 0 0 0 0 0 0 0 0 0 0 0 127 0" result="hardAlpha"/>
            <feOffset dx="-1.09091" dy="1.09091"/>
            <feComposite in2="hardAlpha" operator="arithmetic" k2="-1" k3="1"/>
            <feColorMatrix type="matrix" values="0 0 0 0 0.813889 0 0 0 0 0.911521 0 0 0 0 1 0 0 0 0.09 0"/>
            <feBlend mode="normal" in2="effect1_innerShadow_258_44599" result="effect2_innerShadow_258_44599"/>
        </filter>
        <filter id="filter1_ii_258_44599" x="0.63471" y="0.669556" width="17.52" height="24.0382" filterUnits="userSpaceOnUse" color-interpolation-filters="sRGB">
            <feFlood flood-opacity="0" result="BackgroundImageFix"/>
            <feBlend mode="normal" in="SourceGraphic" in2="BackgroundImageFix" result="shape"/>
            <feColorMatrix in="SourceAlpha" type="matrix" values="0 0 0 0 0 0 0 0 0 0 0 0 0 0 0 0 0 0 127 0" result="hardAlpha"/>
            <feOffset dx="-2.18182" dy="2.18182"/>
            <feGaussianBlur stdDeviation="1.63636"/>
            <feComposite in2="hardAlpha" operator="arithmetic" k2="-1" k3="1"/>
            <feColorMatrix type="matrix" values="0 0 0 0 0.311184 0 0 0 0 0.670339 0 0 0 0 0.995822 0 0 0 0.7 0"/>
            <feBlend mode="normal" in2="shape" result="effect1_innerShadow_258_44599"/>
            <feColorMatrix in="SourceAlpha" type="matrix" values="0 0 0 0 0 0 0 0 0 0 0 0 0 0 0 0 0 0 127 0" result="hardAlpha"/>
            <feOffset dx="-1.09091" dy="1.09091"/>
            <feComposite in2="hardAlpha" operator="arithmetic" k2="-1" k3="1"/>
            <feColorMatrix type="matrix" values="0 0 0 0 0.813889 0 0 0 0 0.911521 0 0 0 0 1 0 0 0 0.09 0"/>
            <feBlend mode="normal" in2="effect1_innerShadow_258_44599" result="effect2_innerShadow_258_44599"/>
        </filter>
        <linearGradient id="paint0_linear_258_44599" x1="14.7648" y1="9.6498" x2="11.6578" y2="15.6015" gradientUnits="userSpaceOnUse">
            <stop stop-color="#2153DA"/>
            <stop offset="1" stop-color="#62A0EE"/>
        </linearGradient>
        <linearGradient id="paint1_linear_258_44599" x1="11.4216" y1="8.36068" x2="20.6126" y2="9.77634" gradientUnits="userSpaceOnUse">
            <stop offset="0.199258" stop-color="#EEFDFF" stop-opacity="0"/>
            <stop offset="0.883971" stop-color="#EEFDFF"/>
        </linearGradient>
        <linearGradient id="paint2_linear_258_44599" x1="-0.0958959" y1="14.9465" x2="12.8637" y2="16.7279" gradientUnits="userSpaceOnUse">
            <stop offset="0.557454" stop-color="#BFB7FF"/>
            <stop offset="0.849617" stop-color="#BFB7FF" stop-opacity="0"/>
        </linearGradient>
        <linearGradient id="paint3_linear_258_44599" x1="11.534" y1="2.43944" x2="19.8978" y2="17.4091" gradientUnits="userSpaceOnUse">
            <stop stop-color="#EBFCFF" stop-opacity="0"/>
            <stop offset="1" stop-color="#EBFCFF"/>
        </linearGradient>
    </defs>
</svg>
